SplineFontDB: 3.0
FontName: JannonStM
FullName: Sorts Mill Jannon
FamilyName: Sorts Mill Jannon
Weight: Regular
Copyright: Copyright (C) 2011 Barry Schwartz
UComments: "Scan 11pt at 6400px/in +AD0A 88.89px/pt, cut 978px +AD0A 11pt high, no scaling. Print at 11pt to match the original." 
Version: 0.2
ItalicAngle: 0
UnderlinePosition: -100
UnderlineWidth: 50
Ascent: 710
Descent: 290
LayerCount: 3
Layer: 0 0 "Back"  1
Layer: 1 0 "Fore"  0
Layer: 2 0 "backup"  0
NeedsXUIDChange: 1
XUID: [1021 658 797806517 9253483]
FSType: 0
OS2Version: 0
OS2_WeightWidthSlopeOnly: 0
OS2_UseTypoMetrics: 1
CreationTime: 1283672823
ModificationTime: 1294817476
OS2TypoAscent: 0
OS2TypoAOffset: 1
OS2TypoDescent: 0
OS2TypoDOffset: 1
OS2TypoLinegap: 90
OS2WinAscent: 0
OS2WinAOffset: 1
OS2WinDescent: 0
OS2WinDOffset: 1
HheadAscent: 0
HheadAOffset: 1
HheadDescent: 0
HheadDOffset: 1
OS2Vendor: 'PfEd'
Lookup: 3 0 0 "'aalt' Access All Alternates lookup 0"  {"'aalt' Access All Alternates lookup 0 subtable"  } ['aalt' ('DFLT' <'dflt' > ) ]
Lookup: 3 0 0 "'aalt' Access All Alternates in Latin lookup 0"  {"'aalt' Access All Alternates in Latin lookup 0 subtable"  } ['aalt' ('latn' <'ROM ' 'MOL ' 'TRK ' 'AZE ' 'CRT ' 'dflt' > ) ]
Lookup: 1 0 0 "romanian"  {"romanian subtable"  } ['locl' ('latn' <'ROM ' 'MOL ' > ) ]
Lookup: 1 0 0 "turkish"  {"turkish subtable"  } ['locl' ('latn' <'TRK ' 'AZE ' 'CRT ' > ) ]
Lookup: 1 0 0 "'hist' Historical Forms in Latin lookup 2"  {"'hist' Historical Forms in Latin lookup 2 subtable"  } ['hist' ('latn' <'dflt' 'ROM ' 'MOL ' 'TRK ' 'AZE ' 'CRT ' > 'DFLT' <'dflt' > ) ]
Lookup: 3 0 0 "'salt' Stylistic Alternatives in Latin lookup 3"  {"'salt' Stylistic Alternatives in Latin lookup 3 subtable"  } ['salt' ('latn' <'dflt' 'ROM ' 'MOL ' 'TRK ' 'AZE ' 'CRT ' > 'DFLT' <'dflt' > ) ]

StartChar: a
Encoding: 97 97 0
Width: 431
VWidth: 0
Flags: W
HStem: -9 59<75.5 169.735> 0 51<283.5 378.019> 384 41<155.856 268>
VStem: 26 82<31.5 122.193> 252 66<92.8004 202.057> 256 72<233.201 372.186>
AnchorPoint: "top" 204 469 basechar 0
AnchorPoint: "l;bl" 0 10 basechar 0
AnchorPoint: "l;x" 20 389 basechar 0
AnchorPoint: "l;o" 0 215 basechar 0
AnchorPoint: "r;bl" 431 10 basechar 0
AnchorPoint: "r;x" 391 389 basechar 0
AnchorPoint: "r;o" 401 215 basechar 0
LayerCount: 3
Fore
SplineSet
48 309 m 0x74
 48 369 177 425 246 425 c 0
 290 425 328 399 328 336 c 0x74
 328 282 318 122 318 105 c 0
 318 66 335 51 348 51 c 0
 385 51 393 94 409 94 c 0
 413 94 420 91 420 84 c 0
 420 62 382 0 315 0 c 0x78
 252 0 251 80 248 80 c 0
 245 80 188 -9 89 -9 c 0xb8
 62 -9 26 12 26 51 c 0
 26 156 142 200 235 232 c 0
 248 236 253 237 254 256 c 0
 255 271 256 289 256 306 c 0
 256 347 243 384 202 384 c 0
 125 384 125 278 76 278 c 0
 60 278 48 295 48 309 c 0x74
241 204 m 0
 214 204 108 159 108 92 c 0
 108 61 124 50 145 50 c 0
 208 50 251 97 251 158 c 0
 251 164 252 174 252 183 c 0xb8
 252 194 249 204 241 204 c 0
EndSplineSet
Layer: 2
SplineSet
48 309 m 4x74
 48 369 177 425 246 425 c 4
 290 425 328 399 328 336 c 4x74
 328 282 318 122 318 105 c 4
 318 66 335 51 348 51 c 4
 385 51 393 94 409 94 c 4
 413 94 420 91 420 84 c 4
 420 62 382 0 315 0 c 4x78
 252 0 251 80 248 80 c 4
 245 80 188 -9 89 -9 c 4xb8
 62 -9 26 12 26 51 c 4
 26 156 142 199 235 231 c 4
 248 235 253 237 254 256 c 4
 255 271 256 289 256 306 c 4
 256 347 243 384 202 384 c 4
 125 384 125 278 76 278 c 4
 60 278 48 295 48 309 c 4x74
241 204 m 4
 214 204 108 159 108 92 c 4
 108 61 124 50 145 50 c 4
 208 50 251 97 251 158 c 4
 251 164 252 174 252 183 c 4xb8
 252 194 249 204 241 204 c 4
EndSplineSet
EndChar

StartChar: b
Encoding: 98 98 1
Width: 482
VWidth: 0
Flags: W
HStem: -11 34<173.167 307.612> 366 52<178.75 289.504> 669 20G<112.5 119>
VStem: 61 28<-46.9538 0.641113> 64 64<58.1117 358.354 376.637 614.604> 381 70<118.483 276.256>
AnchorPoint: "l;bl" 0 10 basechar 0
AnchorPoint: "l;x" 0 389 basechar 0
AnchorPoint: "l;o" 0 215 basechar 0
AnchorPoint: "r;bl" 442 10 basechar 0
AnchorPoint: "r;x" 462 389 basechar 0
AnchorPoint: "r;o" 482 215 basechar 0
AnchorPoint: "l;k;hi" 0 675 basechar 0
LayerCount: 3
Fore
SplineSet
451 213 m 0xec
 451 87 346 -11 227 -11 c 0
 167 -11 144 6 116 6 c 0
 98 6 93 -15 89 -31 c 0
 86 -41 82 -47 74 -47 c 0
 66 -47 61 -40 61 -25 c 0xf4
 61 -7 64 91 64 132 c 0
 64 238 59 443 59 571 c 0
 59 608 49 613 28 621 c 0
 17 625 -2 625 -2 638 c 0
 -2 644 1 649 10 652 c 0
 36 659 79 676 105 687 c 0
 108 688 111 689 114 689 c 0
 124 689 128 679 128 668 c 0
 128 571 131 479 131 381 c 0
 131 378 136 369 148 377 c 0
 203 416 233 418 269 418 c 0
 379 418 451 321 451 213 c 0xec
242 23 m 0
 332 23 381 95 381 192 c 0
 381 290 308 366 200 366 c 0
 137 366 128 349 128 306 c 0xec
 128 248 131 171 131 108 c 0
 131 44 196 23 242 23 c 0
EndSplineSet
EndChar

StartChar: c
Encoding: 99 99 2
Width: 415
VWidth: 0
Flags: W
HStem: -16 60<178.478 307.606> 403 40<171.58 286.339>
VStem: 32 70<130.6 299.72>
AnchorPoint: "cedilla" 231 -81 basechar 0
AnchorPoint: "top" 235 469 basechar 0
AnchorPoint: "l;bl" 20 10 basechar 0
AnchorPoint: "l;x" 20 389 basechar 0
AnchorPoint: "l;o" 0 215 basechar 0
AnchorPoint: "r;bl" 405 10 basechar 0
AnchorPoint: "r;x" 415 389 basechar 0
AnchorPoint: "r;o" 415 215 basechar 0
LayerCount: 3
Fore
SplineSet
237 403 m 0
 147 403 102 314 102 222 c 0
 102 125 163 44 254 44 c 0
 339 44 364 103 376 103 c 0
 381 103 388 99 388 91 c 0
 388 57 309 -16 229 -16 c 0
 130 -16 32 59 32 196 c 0
 32 322 122 443 260 443 c 0
 336 443 374 411 374 374 c 0
 374 358 359 350 349 350 c 0
 302 350 289 403 237 403 c 0
EndSplineSet
EndChar

StartChar: d
Encoding: 100 100 3
Width: 488
VWidth: 0
Flags: W
HStem: -16 21G<346.5 351> 0 48<187.023 310.097> 19 26<421.707 476.911> 389 29<173.019 291.964> 672 28<259.049 324.593> 688 20G<392.5 397.5>
VStem: 32 63<137.368 294.798> 329 69<404.866 668.802> 337 61<52.6696 345.363>
AnchorPoint: "l;k;hi" 20 675 basechar 0
AnchorPoint: "top" 128 685 basechar 0
AnchorPoint: "right" 461 469 basechar 0
AnchorPoint: "l;bl" 20 10 basechar 0
AnchorPoint: "l;x" 20 389 basechar 0
AnchorPoint: "l;o" 0 215 basechar 0
AnchorPoint: "r;bl" 488 10 basechar 0
AnchorPoint: "r;x" 478 389 basechar 0
AnchorPoint: "r;hi" 478 675 basechar 0
AnchorPoint: "r;o" 478 215 basechar 0
LayerCount: 3
Fore
SplineSet
32 195 m 0x5280
 32 305 107 418 241 418 c 0
 271 418 302 411 318 405 c 0
 326 402 329 408 329 425 c 2
 329 471 l 2
 329 537 327 637 327 650 c 0
 327 665 309 669 293 672 c 0
 276 675 259 676 259 685 c 0
 259 694 263 699 273 700 c 0x5b
 358 706 392 708 393 708 c 0
 402 708 403 702 403 695 c 0
 403 682 398 436 398 266 c 0
 398 200 398 139 399 96 c 0
 400 48 401 36 421 36 c 0
 436 36 456 45 467 45 c 0
 472 45 477 41 477 34 c 0
 477 26 474 23 461 19 c 0
 391 -2 353 -16 349 -16 c 4xb680
 344 -16 340 -12 339 0 c 2
 335 33 l 1
 335 33 270 0 223 0 c 0
 104 0 32 78 32 195 c 0x5280
271 48 m 0
 335 48 337 58 337 118 c 0x5280
 337 176 336 249 331 304 c 0
 326 357 294 389 235 389 c 0
 150 389 95 324 95 220 c 0
 95 113 185 48 271 48 c 0
EndSplineSet
Layer: 2
SplineSet
32 195 m 4x5d
 32 296 107 417 241 417 c 4
 271 417 302 410 318 404 c 4
 326 401 329 408 329 425 c 6
 329 471 l 6x5e
 329 537 327 637 327 650 c 4
 327 665 309 669 293 672 c 4
 276 675 259 676 259 685 c 4
 259 694 263 699 273 700 c 4
 358 706 392 708 393 708 c 4
 402 708 403 702 403 695 c 4
 403 682 398 436 398 266 c 4
 398 200 398 139 399 96 c 4
 400 48 401 36 421 36 c 4
 436 36 456 45 467 45 c 4
 472 45 477 41 477 34 c 4
 477 26 474 23 461 19 c 4
 391 -2 353 -16 349 -16 c 4xbd
 344 -16 340 -12 339 0 c 6
 335 33 l 5
 335 33 270 0 223 0 c 4
 104 0 32 78 32 195 c 4x5d
271 48 m 4
 335 48 337 58 337 118 c 4x5d
 337 176 336 249 331 304 c 4
 326 357 294 389 235 389 c 4
 150 389 95 324 95 220 c 4
 95 113 185 48 271 48 c 4
EndSplineSet
EndChar

StartChar: e
Encoding: 101 101 4
Width: 422
VWidth: 0
Flags: W
HStem: -17 64<165.727 303.088> 272 30<109 294.461> 395 31<176.433 281.313>
VStem: 31 59<127.767 271.472> 313 79<288 341.863>
AnchorPoint: "top" 225 469 basechar 0
AnchorPoint: "l;bl" 20 10 basechar 0
AnchorPoint: "l;x" 20 389 basechar 0
AnchorPoint: "l;o" 0 215 basechar 0
AnchorPoint: "r;bl" 412 10 basechar 0
AnchorPoint: "r;x" 412 389 basechar 0
AnchorPoint: "r;o" 422 215 basechar 0
LayerCount: 3
Fore
SplineSet
217 -17 m 0
 99 -17 31 81 31 187 c 0
 31 310 107 426 230 426 c 0
 281 426 312 406 342 377 c 0
 369 351 392 308 392 295 c 0
 392 281 382 273 364 273 c 2
 106 272 l 2
 95 272 90 250 90 232 c 0
 90 134 134 47 253 47 c 0
 320 47 345 81 364 90 c 0
 373 94 376 87 376 80 c 0
 376 52 307 -17 217 -17 c 0
226 395 m 0
 171 395 109 330 109 303 c 1
 118 303 138 302 162 302 c 0
 224 302 313 302 313 341 c 0
 313 366 269 395 226 395 c 0
EndSplineSet
Layer: 2
SplineSet
217 -22 m 4
 99 -22 31 76 31 182 c 4
 31 305 107 420 230 420 c 4
 281 420 312 401 342 372 c 4
 369 346 392 303 392 290 c 4
 392 276 382 268 364 268 c 6
 106 267 l 6
 95 267 90 245 90 227 c 4
 90 129 134 42 253 42 c 4
 320 42 345 77 364 85 c 5
 373 90 376 82 376 75 c 4
 376 47 307 -22 217 -22 c 4
226 390 m 4
 171 390 109 325 109 298 c 5
 118 298 138 297 162 297 c 4
 224 297 313 297 313 336 c 4
 313 361 269 390 226 390 c 4
EndSplineSet
EndChar

StartChar: f
Encoding: 102 102 5
Width: 309
VWidth: 0
Flags: W
HStem: -2 29<16.0147 97.5861 184.525 266.909> 366 34<177.872 290.974> 659 44<220.877 334.531>
VStem: 107 69<32.0234 347.986 400.006 538.615>
AnchorPoint: "l;bl" 0 10 basechar 0
AnchorPoint: "l;x" 20 389 basechar 0
AnchorPoint: "l;o" 10 215 basechar 0
AnchorPoint: "r;bl" 284 10 basechar 0
AnchorPoint: "r;x" 309 389 basechar 0
AnchorPoint: "r;o" 304 215 basechar 0
LayerCount: 3
Fore
SplineSet
91 348 m 0
 79 348 56 342 47 342 c 0
 43 342 37 345 37 355 c 0
 37 364 52 370 58 372 c 0
 85 381 112 384 112 395 c 0
 112 489 128 570 165 623 c 0
 193 664 228 703 298 703 c 0
 320 703 361 703 361 676 c 0
 361 663 342 634 321 634 c 0
 302 634 286 659 256 659 c 0
 239 659 212 640 198 593 c 0
 186 553 177 497 177 418 c 0
 177 408 180 400 189 400 c 0
 204 400 257 404 276 404 c 0
 282 404 291 403 291 384 c 0
 291 370 287 366 277 366 c 0
 253 365 222 363 193 360 c 0
 175 358 178 353 178 342 c 0
 177 257 176 173 176 88 c 0
 176 27 192 30 233 29 c 0
 254 28 267 24 267 11 c 0
 267 -1 253 -3 242 -3 c 0
 212 -3 180 0 138 0 c 0
 99 0 58 -2 33 -2 c 0
 21 -2 16 2 16 12 c 0
 16 24 30 27 43 27 c 2
 53 27 l 2
 96 27 107 34 107 103 c 2
 106 330 l 2
 106 345 99 348 91 348 c 0
EndSplineSet
EndChar

StartChar: g
Encoding: 103 103 6
Width: 435
VWidth: 0
Flags: W
HStem: -260 32<92.4346 248.303> -22 57<103.375 332.234> 131 24<163.051 238.997> 349 60<349.002 433.25> 403 27<156.781 243.728>
VStem: -15 57<-191.742 -94.7723> 27 61<50.4376 109.511> 49 69<195.354 360.219> 287 67<204.534 347.522> 359 52<-147.438 -47.516>
AnchorPoint: "top" 210 469 basechar 0
AnchorPoint: "l;bl" 0 10 basechar 0
AnchorPoint: "l;x" 25 389 basechar 0
AnchorPoint: "l;o" 5 215 basechar 0
AnchorPoint: "l;lo" 0 -204 basechar 0
AnchorPoint: "r;bl" 425 10 basechar 0
AnchorPoint: "r;x" 435 389 basechar 0
AnchorPoint: "r;o" 425 215 basechar 0
AnchorPoint: "r;lo" 395 -204 basechar 0
LayerCount: 3
Fore
SplineSet
287 280 m 0xe9c0
 287 368 245 403 202 403 c 0
 148 403 118 361 118 294 c 0
 118 199 154 155 202 155 c 0
 257 155 287 215 287 280 c 0xe9c0
169 -22 m 2
 117 -22 42 -71 42 -140 c 0xe4c0
 42 -215 132 -228 174 -228 c 0
 261 -228 359 -176 359 -90 c 0
 359 -27 279 -22 203 -22 c 2
 169 -22 l 2
155 -260 m 0
 61 -260 -15 -228 -15 -155 c 0xf4c0
 -15 -104 27 -63 71 -39 c 0
 93 -27 105 -22 105 -16 c 0
 105 -12 100 -9 90 -2 c 0
 63 16 27 54 27 92 c 0xf2c0
 27 102 33 108 55 115 c 0
 88 126 113 131 113 141 c 0
 113 146 107 154 96 165 c 0
 66 195 49 223 49 283 c 0
 49 360 108 430 202 430 c 0xe9c0
 253 430 299 407 308 407 c 2
 404 409 l 2
 426 409 435 396 435 371 c 0
 435 360 427 349 419 349 c 2
 360 349 l 2
 352 349 349 348 349 342 c 0
 349 334 354 320 354 291 c 0
 354 209 303 131 210 131 c 2
 145 131 l 2
 131 131 88 96 88 78 c 0xf2c0
 88 56 131 35 163 35 c 0
 187 35 267 41 274 41 c 0
 347 41 411 22 411 -79 c 0
 411 -183 270 -260 155 -260 c 0
EndSplineSet
Layer: 2
SplineSet
287 280 m 4xe9c0
 287 368 245 403 202 403 c 4
 148 403 118 361 118 294 c 4
 118 199 154 155 202 155 c 4
 257 155 287 215 287 280 c 4xe9c0
169 -22 m 6
 117 -22 42 -71 42 -140 c 4xe4c0
 42 -215 132 -228 174 -228 c 4
 269 -228 359 -176 359 -90 c 4
 359 -27 279 -22 203 -22 c 6
 169 -22 l 6
155 -260 m 4
 61 -260 -15 -228 -15 -155 c 4xf4c0
 -15 -104 27 -63 71 -39 c 4
 93 -27 105 -22 105 -16 c 4
 105 -12 100 -9 90 -2 c 4
 63 16 27 54 27 92 c 4xf2c0
 27 102 33 108 55 115 c 4
 88 126 113 131 113 141 c 4
 113 146 107 154 96 165 c 4
 66 195 49 223 49 283 c 4
 49 360 108 430 202 430 c 4xe9c0
 253 430 299 407 308 407 c 6
 404 409 l 6
 426 409 435 396 435 371 c 4
 435 360 427 349 419 349 c 6
 360 349 l 6
 352 349 349 348 349 342 c 4
 349 334 354 320 354 291 c 4
 354 209 303 131 210 131 c 6
 145 131 l 6
 131 131 88 96 88 78 c 4xf2c0
 88 56 131 35 163 35 c 4
 187 35 267 41 274 41 c 4
 347 41 411 22 411 -79 c 4
 411 -183 270 -260 155 -260 c 4
EndSplineSet
EndChar

StartChar: h
Encoding: 104 104 7
Width: 526
VWidth: 0
Flags: W
HStem: -3 29<13.5576 79.0278 285.094 348.473 429.162 508.785> -3 15<211.438 223.16> 379 46<224.073 333.633> 618 21<28.0841 67.4146> 658 20G<147 154>
VStem: 90 65<29.761 345.602 361.017 617.078> 285 142<5 161.479> 356 71<28.9605 262.959> 363 70<69.6511 350.587>
AnchorPoint: "top" 251 685 basechar 0
AnchorPoint: "l;bl" 0 10 basechar 0
AnchorPoint: "l;x" 10 389 basechar 0
AnchorPoint: "l;k;hi" 10 675 basechar 0
AnchorPoint: "l;o" 10 215 basechar 0
AnchorPoint: "r;bl" 526 10 basechar 0
AnchorPoint: "r;x" 516 389 basechar 0
AnchorPoint: "r;o" 516 215 basechar 0
LayerCount: 3
Fore
SplineSet
433 266 m 0x7c80
 433 201 427 144 427 60 c 0
 427 40 431 26 448 26 c 2
 482 26 l 2xbe
 497 26 509 23 509 9 c 0
 509 -4 498 -5 490 -5 c 0
 479 -5 435 -3 391 -3 c 0
 348 -3 320 -5 305 -5 c 0
 293 -5 285 0 285 10 c 0x7e
 285 19 293 24 308 25 c 0
 340 27 353 30 356 72 c 0x7d
 361 144 363 229 363 303 c 0
 363 349 315 379 266 379 c 0
 220 379 153 338 153 316 c 2
 149 50 l 2
 149 21 221 25 225 12 c 0
 229 1 217 -3 207 -3 c 0
 197 -3 150 0 121 0 c 0
 83 0 25 -2 21 -2 c 0
 14 -2 13 6 13 9 c 0
 13 14 19 19 31 20 c 0
 50 21 84 26 84 59 c 0
 84 220 90 459 90 593 c 0
 90 609 76 618 64 618 c 2
 41 618 l 2
 32 618 28 621 28 626 c 0
 28 632 28.9287109375 637.229492188 35 639 c 0
 83 653 143 678 151 678 c 0
 157 678 162 676 162 668 c 0
 162 652 155 469 155 405 c 0
 155 385 155 361 157 361 c 0
 167 361 226 425 308 425 c 0
 333 425 351 421 367 414 c 0
 417 392 433 366 433 266 c 0x7c80
EndSplineSet
EndChar

StartChar: i
Encoding: 105 105 8
Width: 268
VWidth: 0
Flags: W
HStem: -1 27<23.0109 89.1013 176.25 246.683> 350 29<43.0334 92.4129> 594 82<109.139 183.767>
VStem: 99 68<31.647 312.733> 104 84<599.39 671.115> 104 73<188.605 343.806>
AnchorPoint: "l;bl" 0 10 basechar 0
AnchorPoint: "l;x" 0 389 basechar 0
AnchorPoint: "l;o" 0 215 basechar 0
AnchorPoint: "r;bl" 268 10 basechar 0
AnchorPoint: "r;x" 258 389 basechar 0
AnchorPoint: "r;o" 258 215 basechar 0
LayerCount: 3
Fore
SplineSet
104 636 m 0xe8
 104 660 123 676 147 676 c 0
 171 676 188 658 188 636 c 0
 188 606 171 594 147 594 c 0
 123 594 104 612 104 636 c 0xe8
177 426 m 0xe4
 177 417 167 133 167 79 c 0
 167 40 177 29 211 29 c 2
 227 29 l 2
 239 29 247 25 247 17 c 0
 247 7 244 0 228 0 c 2
 42 -1 l 2
 31 -1 23 0 23 13 c 0
 23 25 38 26 42 26 c 2
 65 26 l 2
 83 26 97 39 99 78 c 0xf0
 102 144 104 227 104 294 c 0xe4
 104 325 100 343 62 350 c 0
 51 352 43 357 43 364 c 0
 43 369 48 377 62 379 c 0
 102 385 127 406 147 430 c 0
 153 438 163 444 167 444 c 0xf0
 171 444 177 440 177 426 c 0xe4
EndSplineSet
AlternateSubs2: "'aalt' Access All Alternates in Latin lookup 0 subtable" i.TRK
Substitution2: "turkish subtable" i.TRK
EndChar

StartChar: j
Encoding: 106 106 9
Width: 222
VWidth: 0
Flags: W
HStem: 580 84<40.4863 111.619>
VStem: 34 84<585.718 658.077> 83 71<-95.2264 428>
AnchorPoint: "l;bl" 0 10 basechar 0
AnchorPoint: "l;x" 0 389 basechar 0
AnchorPoint: "l;o" 0 215 basechar 0
AnchorPoint: "l;k;lo" 0 -204 basechar 0
AnchorPoint: "r;bl" 222 10 basechar 0
AnchorPoint: "r;x" 222 389 basechar 0
AnchorPoint: "r;o" 222 215 basechar 0
AnchorPoint: "r;lo" 122 -204 basechar 0
LayerCount: 3
Fore
SplineSet
77 664 m 0xc0
 102 664 118 645 118 627 c 0
 118 603 103 580 74 580 c 0
 49 580 34 600 34 619 c 0
 34 641 50 664 77 664 c 0xc0
154 428 m 4xa0
 154 301 151 60 149 -1 c 4
 144 -126 83 -204 41 -231 c 4
 34 -235 27 -239 21 -239 c 4
 10 -239 6 -231 6 -227 c 4
 6 -222 9 -217 13 -214 c 4
 29 -199 49 -181 59 -153 c 4
 69 -125 80 -98 81 -24 c 4
 82 54 83 283 83 296 c 4
 83 336 82 353 54 361 c 4
 42 365 26 369 26 380 c 4
 26 383 27 389 39 394 c 4
 51 399 71 406 83 413 c 4
 101 423 115 435 124 442 c 4
 130 446 135 449 140 449 c 4
 147 449 154 442 154 428 c 4xa0
EndSplineSet
EndChar

StartChar: k
Encoding: 107 107 10
Width: 517
VWidth: 0
Flags: W
HStem: 0 31<21.5866 85.9636 165.823 217.828 264.029 313.994 429.932 511.971> 192 25<163.544 189.017> 377 25<298.026 344.974> 382 32<423.788 501.873> 633 26<37.4548 78.9565> 668 20G<160 167>
VStem: 91 71<31.6094 191.99 217.006 469.914> 95 75<312.328 632.326>
DStem2: 366 104 182 188 0.697355 -0.716726<-174.555 8.00502>
AnchorPoint: "l;bl" 0 10 basechar 0
AnchorPoint: "l;x" 20 389 basechar 0
AnchorPoint: "l;k;hi" 20 675 basechar 0
AnchorPoint: "l;o" 20 215 basechar 0
AnchorPoint: "r;bl" 517 10 basechar 0
AnchorPoint: "r;x" 517 389 basechar 0
AnchorPoint: "r;o" 477 215 basechar 0
LayerCount: 3
Fore
SplineSet
54 27 m 4xde
 85 29 91 48 91 79 c 4xde
 91 192 95 551 95 587 c 4
 95 627 81 633 66 633 c 6
 54 633 l 6
 41 633 37 638 37 643 c 4
 37 649 42 656 54 659 c 6
 136 682 l 6
 147 685 157 688 163 688 c 4
 171 688 176 683 176 668 c 4
 176 656 172 612 170 550 c 4xdd
 167 457 162 251 162 237 c 4
 162 225 164 217 169 217 c 4
 172 217 177 220 184 225 c 4
 238 264 276 296 331 344 c 4
 339 351 345 358 345 364 c 4
 345 371 336 376 315 377 c 4
 306 377 298 382 298 390 c 4
 298 397 307 402 313 402 c 4xee
 413 407 473 414 486 414 c 4
 496 414 502 410 502 401 c 4
 502 386 495 384 484 382 c 4
 431 374 412 362 388 344 c 6
 257 246 l 6
 251 241 247 237 247 232 c 4
 247 227 252 221 258 215 c 6
 366 104 l 6
 400 69 436 31 472 31 c 6
 488 31 l 6
 502 31 512 24 512 15 c 4
 512 4 508 0 490 0 c 4
 479 0 407 2 385 2 c 4
 341 2 319 0 277 0 c 4
 267 0 264 6 264 15 c 4
 264 25 274 29 288 29 c 6
 292 29 l 6
 306 29 314 34 314 42 c 4
 314 47 312 53 306 59 c 4
 260 112 204 168 182 188 c 4
 179 191 177 192 175 192 c 4
 167 192 162 178 162 172 c 6
 163 82 l 6
 163 43 165 35 189 30 c 4
 203 27 218 23 218 14 c 4
 218 1 209 0 197 0 c 4
 173 0 137 2 119 2 c 4
 80 2 63 0 38 0 c 4
 26 0 21 4 21 12 c 4
 21 25 38 26 54 27 c 4xde
EndSplineSet
EndChar

StartChar: l
Encoding: 108 108 11
Width: 262
VWidth: 0
Flags: W
HStem: -5 35<7.11618 89.7673> 0 37<172.813 247.643> 674 20G<162 168.5>
VStem: 98 80<37.8814 676>
AnchorPoint: "right" 235 468 basechar 0
AnchorPoint: "top" 128 684 basechar 0
AnchorPoint: "l;bl" 0 9 basechar 0
AnchorPoint: "l;x" 20 388 basechar 0
AnchorPoint: "l;k;hi" 20 674 basechar 0
AnchorPoint: "l;o" 20 214 basechar 0
AnchorPoint: "r;bl" 262 10 basechar 0
AnchorPoint: "r;x" 257 388 basechar 0
AnchorPoint: "r;hi" 257 674 basechar 0
AnchorPoint: "r;o" 257 214 basechar 0
LayerCount: 3
Fore
SplineSet
98 596 m 0xb0
 98 624 90 627 61 637 c 0
 49 641 42 646 42 652 c 0
 42 657 47 664 58 667 c 0
 73 671 95 676 112 681 c 0
 138 688 160 694 164 694 c 0
 173 694 178 686 178 676 c 0
 175 478 172 457 172 65 c 0
 172 39 183 40 207 37 c 0
 228 34 248 33 248 15 c 0
 248 3 238 0 227 0 c 0x70
 203 0 200 2 141 2 c 4
 115 2 42 -5 32 -5 c 0
 15 -5 7 0 7 11 c 0
 7 27 25 29 37 30 c 0
 92 33 96 50 96 76 c 0
 98 189 98 194 98 596 c 0xb0
EndSplineSet
EndChar

StartChar: m
Encoding: 109 109 12
Width: 763
VWidth: 0
Flags: W
HStem: -1 25<16.0124 83.7896 283.038 337.222 427.769 489.991 530.082 592.375 683.309 743.849> 387 48<231.436 330.605 474.689 579.666>
VStem: 97 68<30.723 346.281> 352 67<31.6742 357.485> 607 71<31.1719 357.484>
AnchorPoint: "l;bl" 0 10 basechar 0
AnchorPoint: "l;x" 5 389 basechar 0
AnchorPoint: "l;o" 5 215 basechar 0
AnchorPoint: "r;bl" 763 10 basechar 0
AnchorPoint: "r;x" 748 389 basechar 0
AnchorPoint: "r;o" 763 215 basechar 0
LayerCount: 3
Fore
SplineSet
168 1 m 0
 123 1 77 -2 45 -2 c 0
 20 -2 16 4 16 12 c 0
 16 21 33 23 49 24 c 0
 63 25 92 30 93 56 c 0
 95 91 97 130 97 176 c 2
 97 262 l 2
 97 291 97 318 96 340 c 0
 94 388 31 363 31 387 c 0
 31 396 43 399 70 402 c 0
 102 406 126 424 142 445 c 0
 148 453 157 464 167 464 c 0
 172 464 175 460 175 449 c 0
 175 441 172 405 172 400 c 0
 172 386 174 380 178 380 c 0
 183 380 190 386 197 392 c 0
 222 411 267 435 320 435 c 0
 359 435 395 418 415 383 c 0
 420 375 417 370 427 379 c 0
 454 403 490 433 559 433 c 0
 637 433 676 388 678 299 c 0
 678 289 678 278 678 268 c 0
 678 201 674 130 674 61 c 0
 674 31 697 28 712 26 c 0
 731 24 744 21 744 10 c 0
 744 -1 727 -3 718 -3 c 0
 711 -3 672 -1 635 -1 c 2
 550 -1 l 2
 537 -1 530 3 530 13 c 0
 530 21 540 23 548 24 c 0
 595 27 601 35 603 80 c 0
 606 127 607 204 607 223 c 2
 607 234 l 2
 607 312 605 388 519 388 c 0
 473 388 422 361 422 313 c 2
 422 281 l 2
 422 191 419 98 419 64 c 0
 419 30 435 32 462 27 c 0
 477 24 490 23 490 12 c 0
 490 -1 478 -1 470 -1 c 0
 455 -1 412 2 376 2 c 0
 343 2 339 1 306 1 c 0
 296 1 283 2 283 12 c 0
 283 19 291 24 304 25 c 0
 343 29 352 46 352 83 c 0
 352 104 351 146 351 174 c 0
 351 215 350 262 348 301 c 0
 345 349 338 387 271 387 c 0
 221 387 169 352 168 294 c 0
 167 218 165 145 165 67 c 0
 165 3 240 40 240 11 c 0
 240 5 231 0 213 0 c 0
 199 0 184 1 168 1 c 0
EndSplineSet
EndChar

StartChar: n
Encoding: 110 110 13
Width: 507
VWidth: 0
Flags: W
HStem: -2 29<27.2925 84.0997 156.533 238.632 288.098 358.926 431.169 491.83> 376 51<218.506 345.312> 418 20G<143.5 151>
VStem: 90 68<29.02 333.385> 364 72<55.7718 357.437> 364 65<29.7724 325.844>
AnchorPoint: "top" 276 469 basechar 0
AnchorPoint: "l;bl" 0 10 basechar 0
AnchorPoint: "l;x" 20 389 basechar 0
AnchorPoint: "l;o" 0 215 basechar 0
AnchorPoint: "r;bl" 507 10 basechar 0
AnchorPoint: "r;x" 497 389 basechar 0
AnchorPoint: "r;o" 497 215 basechar 0
LayerCount: 3
Fore
SplineSet
321 28 m 0xd4
 355 28 364 32 364 77 c 2
 364 207 l 2
 364 239 364 270 362 314 c 0
 360 363 320 376 277 376 c 0xd8
 242 376 209 370 184 356 c 0
 170 348 158 335 158 320 c 0
 157 240 156 162 154 84 c 0
 154 74 153 65 153 55 c 0
 153 30 176 29 202 26 c 0
 229 23 239 19 239 10 c 0
 239 2 235 -2 220 -2 c 0
 183 -2 152 1 115 1 c 0
 78 1 55 -2 47 -2 c 0
 36 -2 27 1 27 10 c 0
 27 21 38 23 63 27 c 0
 74 29 86 34 87 54 c 0
 89 105 89 168 90 221 c 2
 91 311 l 2
 91 328 75 332 63 335 c 0
 48 338 39 345 39 351 c 0
 39 356 46 362 61 365 c 0
 96 372 115 396 130 421 c 0
 134 427 140 438 147 438 c 0xb8
 155 438 158 434 158 424 c 0
 158 420 157 407 157 381 c 0
 157 372 160 369 163 369 c 0
 168 369 179 377 185 382 c 0
 215 406 246 427 305 427 c 4
 358 427 436 412 436 330 c 0xd8
 436 242 429 111 429 53 c 0
 429 41 434 32 449 30 c 0
 468 27 492 29 492 15 c 0
 492 0 477 -1 470 -1 c 0
 425 -1 408 0 393 0 c 0
 359 0 331 -2 311 -2 c 0
 295 -2 288 5 288 11 c 0
 288 26 303 28 321 28 c 0xd4
EndSplineSet
EndChar

StartChar: o
Encoding: 111 111 14
Width: 506
VWidth: 0
Flags: W
HStem: -21 30<194.92 313.432> 409 29<190.784 297.659>
VStem: 31 76<104.167 310.397> 392 84<106.443 309.999>
AnchorPoint: "top" 251 469 basechar 0
AnchorPoint: "l;bl" 20 10 basechar 0
AnchorPoint: "l;x" 20 389 basechar 0
AnchorPoint: "l;o" 0 215 basechar 0
AnchorPoint: "r;bl" 486 10 basechar 0
AnchorPoint: "r;x" 486 389 basechar 0
AnchorPoint: "r;o" 506 215 basechar 0
LayerCount: 3
Fore
SplineSet
245 -21 m 0
 140 -21 31 48 31 206 c 0
 31 342 119 438 258 438 c 0
 373 438 476 367 476 217 c 0
 476 47 356 -21 245 -21 c 0
252 9 m 0
 374 9 392 135 392 208 c 0
 392 315 327 409 247 409 c 0
 165 409 107 337 107 229 c 0
 107 104 160 9 252 9 c 0
EndSplineSet
EndChar

StartChar: p
Encoding: 112 112 15
Width: 517
VWidth: 0
Flags: HMW
HStem: -271 31<160.887 252.979> -2 33<189.799 344.943> 376 28<4.00803 68.8037> 378 55<202.109 327.752>
VStem: 80 73<-232.404 12.328 57.2791 363.598> 127 31<438.093 483.33> 421 65<115.545 273.454>
AnchorPoint: "l;bl" 0 10 basechar 0
AnchorPoint: "l;k;x" -5 389 basechar 0
AnchorPoint: "l;o" 0 215 basechar 0
AnchorPoint: "l;lo" 0 -204 basechar 0
AnchorPoint: "r;bl" 477 10 basechar 0
AnchorPoint: "r;x" 497 389 basechar 0
AnchorPoint: "r;o" 517 215 basechar 0
LayerCount: 3
Fore
SplineSet
271 -2 m 0xea
 222 -2 186 7 171 14 c 0
 160 19 155 15 155 10 c 2
 156 -211 l 2
 156 -229 173 -238 222 -240 c 0
 240 -241 253 -245 253 -256 c 0
 253 -262 246 -271 228 -271 c 0
 194 -270 164 -267 131 -267 c 0
 99 -267 75 -272 41 -272 c 0
 24 -272 14 -269 14 -258 c 0
 14 -236 84 -266 84 -186 c 0
 84 -77 81 190 80 327 c 0xea
 80 370 56 375 30 376 c 0
 15 377 4 383 4 390 c 0
 4 396 11 403 25 404 c 0
 80 409 116 430 127 463 c 0
 130 472 137 484 146 484 c 0
 153 484 158 477 158 464 c 0xe6
 158 451 153 427 153 412 c 0
 153 393 161 391 167 391 c 0
 170 391 174 393 179 397 c 0
 217 425 252 433 292 433 c 0
 389 433 486 370 486 222 c 0
 486 99 413 -2 271 -2 c 0xea
245 378 m 0
 182 378 156 364 153 319 c 0
 152 299 151 267 151 235 c 0
 151 173 154 80 170 62 c 0
 189 41 224 31 278 31 c 0
 379 31 421 114 421 178 c 0
 421 279 356 378 245 378 c 0
EndSplineSet
EndChar

StartChar: q
Encoding: 113 113 16
Width: 501
VWidth: 0
Flags: W
HStem: -261 33<281.056 352.688 431.043 523.977> -8 54<194.153 316.955> 382 37<183.923 305.825> 409 20G<413.5 431.5>
VStem: 31 74<131.393 294.6> 354 78<-225.496 19.4074 47.2848 341.585>
AnchorPoint: "l;bl" 30 10 basechar 0
AnchorPoint: "l;x" 30 389 basechar 0
AnchorPoint: "l;o" 0 215 basechar 0
AnchorPoint: "r;bl" 501 10 basechar 0
AnchorPoint: "r;x" 501 389 basechar 0
AnchorPoint: "r;o" 501 215 basechar 0
AnchorPoint: "r;k;lo" 516 -204 basechar 0
LayerCount: 3
Fore
SplineSet
257 419 m 0xec
 331 419 382 378 391 378 c 0
 407 378 400 429 427 429 c 0xdc
 436 429 439 419 439 412 c 0
 439 403 434 343 434 321 c 2
 430 50 l 2
 430 8 432 -59 432 -75 c 0
 432 -116 428 -154 428 -194 c 0
 428 -216 436 -225 465 -227 c 2
 488 -228 l 2
 510 -229 524 -233 524 -245 c 0
 524 -259 516 -265 506 -265 c 0
 481 -265 397 -259 364 -259 c 4
 335 -259 308 -261 300 -261 c 0
 284 -261 281 -252 281 -243 c 0
 282 -229 295 -228 309 -228 c 2
 324 -228 l 2
 342 -228 355 -223 355 -195 c 2
 354 9 l 2
 354 23 339 22 331 19 c 0
 298 7 264 -8 230 -8 c 0
 117 -8 31 82 31 191 c 0
 31 364 169 419 257 419 c 0xec
105 221 m 0
 105 117 175 46 297 46 c 0
 351 46 354 47 354 88 c 2
 354 196 l 1
 353 239 356 291 344 322 c 0
 330 357 287 382 245 382 c 0xec
 179 382 105 320 105 221 c 0
EndSplineSet
EndChar

StartChar: r
Encoding: 114 114 17
Width: 371
VWidth: 0
Flags: W
HStem: 0 31<28.1696 66 213 263.906> 361 66<232.839 327.049>
VStem: 99 68<37.0186 330.666>
AnchorPoint: "top" 210 469 basechar 0
AnchorPoint: "l;bl" 0 10 basechar 0
AnchorPoint: "l;x" 0 389 basechar 0
AnchorPoint: "l;o" 0 215 basechar 0
AnchorPoint: "r;bl" 351 10 basechar 0
AnchorPoint: "r;x" 371 389 basechar 0
AnchorPoint: "r;o" 351 215 basechar 0
LayerCount: 3
Fore
SplineSet
311 331 m 0
 303 331 293 333 286 336 c 0
 268 344 253 361 241 361 c 0
 221 361 206 352 193 340 c 0
 175 323 169 318 168 293 c 0
 167 269 167 245 167 218 c 0
 167 166 168 108 168 61 c 0
 168 37 181 37 213 34 c 2
 243 31 l 2
 256 30 264 25 264 17 c 0
 264 7 256 0 237 0 c 0
 233 0 185 3 142 3 c 0
 110 3 63 -1 43 -1 c 0
 30 -1 27 4 27 10 c 0
 27 23 41 27 55 28 c 2
 66 29 l 2
 91 31 96 41 96 63 c 0
 97 160 99 228 99 294 c 0
 99 309 98 324 93 331 c 0
 78 348 32 339 32 355 c 0
 32 365 40 367 53 372 c 0
 101 388 127 420 145 445 c 0
 148 450 153 452 157 452 c 0
 163 452 169 447 169 436 c 0
 169 423 165 406 165 378 c 0
 165 360 171 360 182 368 c 2
 213 392 l 2
 235 409 269 427 302 427 c 0
 342 427 362 402 362 376 c 0
 362 354 345 331 311 331 c 0
EndSplineSet
EndChar

StartChar: s
Encoding: 115 115 18
Width: 343
VWidth: 0
Flags: W
HStem: -15 33<115.254 218.584> 394 30<115.32 217.655>
VStem: 41 54<289.214 377.265> 41 28<70.9241 127.692> 253 63<49.6161 133.195> 259 26<312.35 352.427>
AnchorPoint: "cedilla" 158 -81 mark 0
AnchorPoint: "top" 179 469 basechar 0
AnchorPoint: "l;bl" 0 10 basechar 0
AnchorPoint: "l;x" 5 389 basechar 0
AnchorPoint: "l;o" 0 215 basechar 0
AnchorPoint: "r;bl" 343 10 basechar 0
AnchorPoint: "r;x" 338 389 basechar 0
AnchorPoint: "r;o" 343 215 basechar 0
LayerCount: 3
Fore
SplineSet
153 -15 m 0xe8
 122 -15 41 -7 41 24 c 2
 41 102 l 2
 41 116 47 128 53 128 c 0
 62 128 66 115 69 105 c 0
 86 41 126 18 173 18 c 0
 212 18 253 53 253 94 c 0xd8
 253 135 189 162 134 192 c 0
 84 219 41 252 41 309 c 0
 41 375 86 424 173 424 c 0
 204 424 236 418 259 410 c 0
 279 403 284 391 284 376 c 2
 285 337 l 2
 285 321 280 312 274 312 c 0
 269 312 263 318 259 328 c 0xe4
 245 365 212 394 162 394 c 0
 120 394 95 370 95 337 c 0
 95 294 136 270 186 244 c 0
 245 213 316 188 316 117 c 0
 316 48 257 -15 153 -15 c 0xe8
EndSplineSet
AlternateSubs2: "'aalt' Access All Alternates lookup 0 subtable" longs
AlternateSubs2: "'aalt' Access All Alternates in Latin lookup 0 subtable" longs
Substitution2: "'hist' Historical Forms in Latin lookup 2 subtable" longs
EndChar

StartChar: t
Encoding: 116 116 19
Width: 324
VWidth: 0
Flags: W
HStem: -11 54<169.689 262.888> 363 55<171.53 308.973> 363 47<161.255 288.286>
VStem: 83 74<53.8674 335.197> 93 65<110.909 359.957>
AnchorPoint: "right" 235 469 basechar 0
AnchorPoint: "cedilla" 185 -81 basechar 0
AnchorPoint: "l;bl" 5 10 basechar 0
AnchorPoint: "l;x" 5 389 basechar 0
AnchorPoint: "l;o" 0 215 basechar 0
AnchorPoint: "r;bl" 324 10 basechar 0
AnchorPoint: "r;x" 319 389 basechar 0
AnchorPoint: "r;o" 324 215 basechar 0
LayerCount: 3
Fore
SplineSet
78 360 m 0xc8
 69 360 54 358 49 358 c 0
 38 358 32 362 32 369 c 0
 32 382 48 388 58 393 c 0
 96 411 115 425 136 462 c 2
 143 474 l 2
 147 482 154 490 160 490 c 0
 165 490 169 484 169 473 c 0
 169 459 161 426 161 419 c 0
 161 413 162 410 171 410 c 0xa8
 181 410 275 418 289 418 c 0
 304 418 310 407 310 398 c 0
 310 370 300 363 286 363 c 2
 180 363 l 2
 167 363 158 359 158 349 c 0xc8
 157 278 157 200 157 133 c 0
 157 74 168 43 215 43 c 0
 261 43 291 77 302 77 c 0
 308 77 310 72 310 66 c 0
 310 35 250 -11 185 -11 c 0
 102 -11 83 33 83 105 c 0xd0
 83 232 93 299 93 337 c 0
 93 355 90 360 78 360 c 0xc8
EndSplineSet
EndChar

StartChar: u
Encoding: 117 117 20
Width: 511
VWidth: 0
Flags: W
HStem: -22 21G<347 355> -13 54<177.22 277.393> 374 29<13.1503 50>
VStem: 77 72<68.5089 353.133> 79 80<158.57 387.5> 340 72<63.7616 365.147> 341 78<77.5253 365.147>
AnchorPoint: "top" 230 469 basechar 0
AnchorPoint: "l;bl" 30 10 basechar 0
AnchorPoint: "l;x" 0 389 basechar 0
AnchorPoint: "l;o" 10 215 basechar 0
AnchorPoint: "r;bl" 511 10 basechar 0
AnchorPoint: "r;x" 491 389 basechar 0
AnchorPoint: "r;o" 491 215 basechar 0
LayerCount: 3
Fore
SplineSet
50 371 m 2x68
 29 374 l 2
 18 376 13 382 13 387 c 0
 13 395 21 403 45 403 c 2
 136 404 l 2
 156 404 159 391 159 384 c 0x68
 159 379 158 370 156 354 c 0
 153 328 149 278 149 173 c 0
 149 107 154 41 237 41 c 0
 278 41 340 63 340 93 c 0x74
 340 164 341 252 341 327 c 0
 341 397 248 353 248 389 c 0
 248 399 261 405 274 405 c 2
 335 405 l 2
 375 405 390 406 402 406 c 0
 413 406 419 395 419 383 c 0x62
 419 363 412 294 412 67 c 0
 412 43 426 40 442 40 c 2
 481 40 l 2
 487 40 496 40 496 30 c 0
 496 15 471 10 406 -7 c 0
 396 -10 359 -22 351 -22 c 0xa4
 343 -22 341 -17 341 -9 c 2
 341 31 l 2
 341 48 330 40 324 36 c 0
 288 11 242 -13 197 -13 c 0
 92 -13 77 60 77 136 c 0x72
 77 205 79 308 79 338 c 0
 79 362 69 368 50 371 c 2x68
EndSplineSet
Layer: 2
SplineSet
232 41 m 0x74
 286 41 340 62 340 93 c 0x78
 340 164 341 172 341 327 c 0
 341 397 248 353 248 389 c 0
 248 399 261 404 274 404 c 0
 375 404 385 406 402 406 c 0
 413 406 418 394 418 382 c 0x74
 418 362 411 294 411 67 c 0
 411 43 426 39 442 39 c 2
 481 39 l 2
 487 39 495 38 495 29 c 0
 495 14 471 11 406 -6 c 0
 372 -15 359 -22 351 -22 c 0xb8
 343 -22 341 -17 341 -9 c 2
 341 31 l 2
 341 53 330 41 324 37 c 0
 288 12 242 -13 197 -13 c 0
 92 -13 77 60 77 136 c 0
 77 205 79 319 79 349 c 0
 79 388.579101562 12 356.254882812 12 387 c 0
 12 395 22 404 46 404 c 2
 138 404 l 2
 152 404 153 397 153 388 c 0
 153 352 150 304 150 173 c 0
 150 108 156 41 232 41 c 0x74
51 371 m 6x74
 30 374 l 6
 19 376 14 382 14 387 c 4
 14 395 22 403 46 403 c 6
 138 404 l 6
 158 404 162 391 162 384 c 4
 162 372 151 344 151 173 c 4
 151 107 154 43 237 43 c 4
 278 43 339 63 339 93 c 4x78
 339 164 340 252 340 327 c 4
 340 397 248 353 248 389 c 4
 248 399 261 405 274 405 c 6
 335 405 l 6
 375 405 390 406 402 406 c 4
 413 406 420 395 420 383 c 4x74
 420 363 412 294 412 67 c 4
 412 43 426 40 442 40 c 6
 481 40 l 6
 487 40 496 40 496 30 c 4
 496 15 471 10 406 -7 c 4
 396 -10 359 -22 351 -22 c 4xb8
 343 -22 340 -17 340 -9 c 6
 340 31 l 6
 340 46 330 40 324 36 c 4
 288 11 242 -13 197 -13 c 4
 92 -13 77 60 77 136 c 4
 77 205 80 308 80 338 c 4
 80 362 70 368 51 371 c 6x74
EndSplineSet
EndChar

StartChar: v
Encoding: 118 118 21
Width: 492
VWidth: 0
Flags: W
HStem: -17 21G<242.5 255> 372 34<415.97 482.948>
VStem: 353 130<335 394.5>
AnchorPoint: "l;bl" 85 10 basechar 0
AnchorPoint: "l;x" 0 389 basechar 0
AnchorPoint: "l;o" 40 215 basechar 0
AnchorPoint: "r;bl" 407 10 basechar 0
AnchorPoint: "r;x" 492 389 basechar 0
AnchorPoint: "r;o" 452 215 basechar 0
LayerCount: 3
Fore
SplineSet
353 345 m 0
 353 383 289 352 289 387 c 0
 289 401 308 405 321 405 c 0
 359 405 372 403 396 403 c 0
 421 403 441 406 465 406 c 0
 475 406 483 399 483 390 c 0
 483 377 470 374 453 372 c 0
 416 367 402 342 391 312 c 2
 367 246 l 1
 339 172 298 77 277 24 c 0
 266 -5 261 -17 249 -17 c 0
 236 -17 222 25 214 43 c 2
 87 326 l 2
 63 378 9 371 9 393 c 0
 9 401 16 406 30 406 c 2
 34 406 l 1
 77 404 82 403 118 403 c 2
 206 403 l 2
 218 403 231 400 231 390 c 0
 231 357 166 381 166 350 c 0
 166 338 206 236 254 132 c 0
 260 119 265 106 271 106 c 0
 274 106 278 111 281 120 c 0
 309 195 353 325 353 345 c 0
EndSplineSet
EndChar

StartChar: w
Encoding: 119 119 22
Width: 783
VWidth: 0
Flags: W
HStem: -10 21G<235 246 529 541> 375 31<168.043 236.379 453.456 520.945 583.379 645.996 708.258 773.641> 383 28<10.4518 65.488 297.229 347.338>
VStem: 356 97<301.143 373.669> 647 127<338 398.5>
DStem2: 175 306 80 345 0.382846 -0.923812<-42.1475 221.935>
AnchorPoint: "top" 396 469 basechar 0
AnchorPoint: "l;bl" 85 10 basechar 0
AnchorPoint: "l;x" 0 389 basechar 0
AnchorPoint: "l;o" 40 215 basechar 0
AnchorPoint: "r;bl" 698 10 basechar 0
AnchorPoint: "r;x" 783 389 basechar 0
AnchorPoint: "r;o" 743 215 basechar 0
LayerCount: 3
Fore
SplineSet
521 391 m 0xd8
 521 381 502 377 484 375 c 0
 466 373 453 371 453 355 c 0
 453 344 515 185 546 123 c 0
 552 110 558 108 565 123 c 0
 599 192 647 323 647 353 c 0
 647 362 642 375 618 378 c 0
 603 380 583 380 583 393 c 0
 583 408 598 408 608 408 c 0
 635 408 660 405 688 405 c 0
 713 405 746 406 757 406 c 0xd8
 766 406 774 403 774 394 c 0
 774 381 764 376 744 373 c 0
 703 367 695 353 673 296 c 0
 634 197 603 119 564 32 c 0
 551 2 548 -10 534 -10 c 0
 524 -10 516 -5 505 25 c 0
 477 99 440 185 402 267 c 0
 393 287 388 299 383 299 c 0
 379 299 376 291 369 273 c 2
 274 35 l 2
 259 -3 251 -13 241 -13 c 0
 229 -13 226 -2 213 27 c 0
 165 135 125 239 80 345 c 0
 67 376 52 380 41 383 c 0
 21 389 9 392 9 402 c 0
 9 410 18 411 26 411 c 0xb8
 35 411 95 407 112 407 c 0
 155 407 199 408 212 408 c 0
 220 408 237 407 237 394 c 0
 237 381 219 379 202 377 c 0
 173 374 165 359 165 348 c 0
 165 337 170 321 175 306 c 0
 191 259 222 179 255 110 c 0
 261 98 266 94 271 106 c 0
 299 175 356 323 356 351 c 0
 356 362 351 374 319 380 c 0
 306 383 297 384 297 395 c 0
 297 406 310 407 317 407 c 0
 321 407 362 404 396 404 c 0
 424 404 460 406 489 406 c 0
 502 406 521 402 521 391 c 0xd8
EndSplineSet
EndChar

StartChar: x
Encoding: 120 120 23
Width: 494
VWidth: 0
Flags: W
HStem: -1 29<16.3191 57 166.336 217.992 418.781 475.222> 380 30<27.0066 61 416.558 484.918>
VStem: 218 73<184.781 229.625>
DStem2: 256 267 133 319 0.580877 -0.813992<-111.869 12.3142 84.06 219.41> 206 164 230 145 0.609711 0.792624<-117.694 13.2912 111.218 250.084>
AnchorPoint: "l;bl" 0 10 basechar 0
AnchorPoint: "l;x" 15 389 basechar 0
AnchorPoint: "l;o" 20 215 basechar 0
AnchorPoint: "r;bl" 494 10 basechar 0
AnchorPoint: "r;x" 494 389 basechar 0
AnchorPoint: "r;o" 484 215 basechar 0
LayerCount: 3
Fore
SplineSet
272 14 m 0
 272 35 317 22 317 40 c 0
 317 60 277 113 253 146 c 0
 245 158 240 156 230 145 c 0
 206 117 189 91 173 65 c 0
 168 58 166 52 166 46 c 0
 166 36 173 29 191 28 c 0
 207 27 218 24 218 14 c 0
 218 3 209 -1 191 -1 c 0
 167 -1 141 1 117 1 c 0
 92 1 56 -1 32 -1 c 0
 22 -1 16 4 16 10 c 0
 16 23 25 25 40 28 c 2
 57 31 l 2
 94 37 108 48 130 74 c 2
 206 164 l 2
 214 173 218 181 218 189 c 0
 218 195 216 202 211 209 c 2
 133 319 l 2
 115 346 93 373 61 378 c 2
 48 380 l 2
 31 383 27 388 27 395 c 0
 27 406 36 410 48 410 c 2
 206 409 l 2
 233 409 239 402 239 396 c 0
 239 374 198 393 198 364 c 0
 198 344 222 315 256 267 c 0
 263 257 271 258 280 269 c 0
 335 338 349 360 349 370 c 0
 349 384 304 372 304 396 c 0
 304 404 312 412 331 412 c 0
 342 412 373 410 397 410 c 0
 408 410 446 412 461 412 c 0
 475 412 485 405 485 396 c 0
 485 389 478 381 464 378 c 0
 440 374 427 375 405 357 c 0
 372 329 334 283 299 239 c 0
 294 233 291 227 291 222 c 0
 291 211 300 201 309 189 c 2
 408 54 l 2
 423 34 434 32 459 26 c 0
 472 23 476 17 476 8 c 0
 476 -3 462 -3 453 -3 c 0
 431 -3 410 0 372 0 c 2
 296 0 l 2
 287 0 272 1 272 14 c 0
EndSplineSet
EndChar

StartChar: y
Encoding: 121 121 24
Width: 502
VWidth: 0
Flags: W
HStem: -254 81<31.6719 120.142> 377 29<9.11577 73.6519 170.752 225.816 294.029 359.364 428.203 492.99>
AnchorPoint: "top" 254 469 basechar 0
AnchorPoint: "l;bl" 85 10 basechar 0
AnchorPoint: "l;x" 0 389 basechar 0
AnchorPoint: "l;o" 40 215 basechar 0
AnchorPoint: "l;lo" 20 -204 basechar 0
AnchorPoint: "r;bl" 377 10 basechar 0
AnchorPoint: "r;x" 502 389 basechar 0
AnchorPoint: "r;o" 442 215 basechar 0
LayerCount: 3
Fore
SplineSet
72 -254 m 4
 40 -254 26 -231 26 -212 c 0
 26 -192 42 -173 74 -173 c 0
 87 -173 97 -175 105 -175 c 0
 113 -175 120 -173 126 -163 c 0
 165 -102 213 -8 213 -2 c 0
 213 1 184 72 177 91 c 2
 90 331 l 2
 78 366 67 373 43 376 c 0
 25 378 9 381 9 393 c 0
 9 406 27 407 35 407 c 0
 69 407 121 405 130 405 c 0
 155 405 181 406 206 406 c 0
 219 406 226 400 226 393 c 0
 226 386 217 379 202 377 c 0
 183 374 170 374 170 356 c 0
 170 335 211 227 249 123 c 0
 251 117 255 115 258 115 c 0
 262 115 266 121 270 129 c 0
 297 183 333 267 350 319 c 0
 355 333 360 348 360 358 c 0
 360 368 353 375 336 375 c 2
 323 375 l 2
 313 375 294 378 294 392 c 0
 294 402 304 409 322 409 c 0
 336 409 366 406 398 406 c 0
 426 406 454 407 466 407 c 0
 483 407 493 401 493 392 c 0
 493 377 479 374 459 372 c 0
 426 369 409 351 400 331 c 0
 323 162 266 20 175 -147 c 0
 154 -187 124 -254 72 -254 c 4
EndSplineSet
EndChar

StartChar: z
Encoding: 122 122 25
Width: 407
VWidth: 0
Flags: W
HStem: 0 43<153 316.17> 0 36<134.005 278> 370 40<102.145 253.998> 397 20G<342.5 367.5>
DStem2: 65 77 137 53 0.568815 0.822466<13.0074 344.883>
AnchorPoint: "top" 223 469 basechar 0
AnchorPoint: "l;bl" 0 10 basechar 0
AnchorPoint: "l;x" 0 389 basechar 0
AnchorPoint: "l;o" 0 215 basechar 0
AnchorPoint: "r;bl" 407 10 basechar 0
AnchorPoint: "r;x" 407 389 basechar 0
AnchorPoint: "r;o" 407 215 basechar 0
LayerCount: 3
Fore
SplineSet
103 460 m 0x60
 103 449 102 438 102 431 c 0
 102 417 107 410 136 410 c 0x60
 167 410 323 417 362 417 c 0
 373 417 380 411 380 402 c 0
 380 395 367 376 355 362 c 0
 314 311 191 131 137 53 c 0
 135 50 134 47 134 45 c 0
 134 39 141 36 153 36 c 2x50
 278 43 l 2x80
 311 44 317 63 331 98 c 0
 339 118 348 148 362 148 c 0
 368 148 374 140 374 125 c 0
 374 111 368 73 368 57 c 0
 368 48 369 35 369 25 c 0
 369 13 369 0 356 0 c 2
 71 0 l 2
 27 0 27 8 27 15 c 0
 27 26 50 51 65 77 c 0
 108 147 204 283 241 338 c 0
 245 344 254 358 254 366 c 0
 254 370 251 373 244 373 c 2
 163 370 l 2
 104 368 82 366 60 309 c 0
 56 301 50 298 45 298 c 0
 38 298 31 305 31 318 c 0
 31 339 61 407 74 454 c 0
 77 466 87 473 94 473 c 0
 99 473 103 469 103 460 c 0x60
EndSplineSet
EndChar

StartChar: A
Encoding: 65 65 26
Width: 715
VWidth: 0
Flags: W
HStem: -2 40<21.4707 73 185 253.782 402.012 491.791 591.963 693.508> 301 45<273.994 403.999> 667 20G<366.5 382>
VStem: 21 141<6.5 60>
DStem2: 97 60 221 231 0.385952 0.922519<22.5811 290.206> 463 441 429 276 0.30752 -0.951542<113.64 370.206>
AnchorPoint: "top" 373 685 basechar 0
AnchorPoint: "l;bl" 0 10 basechar 0
AnchorPoint: "l;x" 75 389 basechar 0
AnchorPoint: "l;hi" 160 675 basechar 0
AnchorPoint: "l;o" 35 215 basechar 0
AnchorPoint: "r;bl" 715 10 basechar 0
AnchorPoint: "r;x" 640 389 basechar 0
AnchorPoint: "r;hi" 575 675 basechar 0
AnchorPoint: "r;o" 680 215 basechar 0
LayerCount: 3
Fore
SplineSet
274 365 m 0
 274 363 266 346 281 346 c 2
 394 346 l 2
 402 346 404 354 404 355 c 0
 404 362 346 539 344 539 c 0
 340 539 274 372 274 365 c 0
438 38 m 2
 449 38 l 2
 471 38 493 41 493 61 c 0
 493 74 477 119 461 172 c 0
 449 211 438 250 429 276 c 0
 421 298 419 301 406 301 c 2
 264 301 l 2
 250 301 247 299 240 282 c 2
 221 231 l 2
 208 194 177 121 166 82 c 0
 163 72 162 63 162 57 c 0
 162 45 168 40 185 39 c 2
 216 37 l 2
 235 36 254 30 254 16 c 0
 254 6 246 -3 228 -3 c 0
 207 -3 173 0 142 0 c 0
 101 0 60 -8 46 -8 c 0
 28 -8 21 -1 21 14 c 0
 21 27 31 32 52 36 c 2
 73 39 l 2
 83 40 92 49 97 60 c 2
 343 648 l 2
 352 669 359 687 374 687 c 0
 390 687 394 666 397 656 c 0
 418 579 439 517 463 441 c 0
 501 323 550 170 588 65 c 0
 598 37 632 38 653 35 c 0
 666 33 694 31 694 15 c 0
 694 6 687 0 660 0 c 0
 629 0 565 2 544 2 c 0
 484 2 445 -2 429 -2 c 0
 409 -2 402 6 402 18 c 0
 402 35 419 38 438 38 c 2
EndSplineSet
EndChar

StartChar: B
Encoding: 66 66 27
Width: 598
VWidth: 0
Flags: W
HStem: -2 36<10.0322 111.873> 0 45<218.293 400.783> 354 31<212.046 348.821> 625 48<24.2812 118.833> 632 41<211.209 352.764>
VStem: 121 91<56.4484 353.765 385.009 622.196> 427 2<383 513> 463 94<126.317 277.474>
AnchorPoint: "l;bl" 0 10 basechar 0
AnchorPoint: "l;x" 0 389 basechar 0
AnchorPoint: "l;hi" 0 675 basechar 0
AnchorPoint: "l;o" 0 215 basechar 0
AnchorPoint: "r;bl" 598 10 basechar 0
AnchorPoint: "r;x" 598 389 basechar 0
AnchorPoint: "r;hi" 598 675 basechar 0
AnchorPoint: "r;o" 598 215 basechar 0
LayerCount: 3
Fore
SplineSet
427 513 m 0x2f
 427 593 338 632 258 632 c 2
 233 632 l 2
 219 632 211 627 211 607 c 2
 210 410 l 2
 210 397 211 385 221 385 c 0
 328 385 427 398 427 513 c 0x2f
121 588 m 2
 121 625 95 625 70 625 c 2
 38 625 l 2xb7
 25 625 17 626 17 636 c 0
 17 662 56 664 132 668 c 0
 188 671 249 673 279 673 c 0
 418 673 519 626 519 520 c 0
 519 420 429 386 429 383 c 0
 429 381 557 370 557 220 c 0
 557 100 470 27 369 8 c 0
 332 2 290 0 246 0 c 0x6f
 221 0 182 2 157 2 c 4
 112 2 85 -1 41 -2 c 0
 21 -2 10 3 10 17 c 0
 10 30 21 34 36 34 c 2
 57 34 l 2xa7
 107 34 121 54 121 82 c 2
 121 588 l 2
213 81 m 0
 213 52 268 45 301 45 c 0x67
 426 45 463 111 463 197 c 0
 463 258 431 316 374 336 c 0
 339 348 267 354 245 354 c 0
 213 354 212 350 212 343 c 0
 212 263 213 165 213 81 c 0
EndSplineSet
Layer: 2
SplineSet
121 588 m 6
 121 625 95 625 70 625 c 6
 38 625 l 6
 25 625 17 626 17 636 c 4
 17 648 25 660 72 664 c 4xb7
 136 669 238 673 279 673 c 4
 418 673 519 626 519 520 c 4
 519 420 429 386 429 383 c 4
 429 381 557 370 557 220 c 4
 557 100 470 27 369 8 c 4
 332 2 290 0 246 0 c 4x6f
 221 0 182 2 157 2 c 4
 112 2 85 -1 41 -2 c 4
 21 -2 10 3 10 17 c 4
 10 30 21 34 36 34 c 6
 57 34 l 6xa7
 107 34 121 54 121 82 c 6
 121 588 l 6
EndSplineSet
EndChar

StartChar: C
Encoding: 67 67 28
Width: 693
VWidth: 0
Flags: W
HStem: -13 49<290.798 501.103> 640 43<302.512 494.488>
VStem: 41 102<200.593 446.046> 544 35<563.397 596.417>
AnchorPoint: "top" 394 685 basechar 0
AnchorPoint: "cedilla" 369 -81 basechar 0
AnchorPoint: "l;bl" 40 10 basechar 0
AnchorPoint: "l;x" 0 389 basechar 0
AnchorPoint: "l;hi" 20 675 basechar 0
AnchorPoint: "l;o" 0 215 basechar 0
AnchorPoint: "r;bl" 673 10 basechar 0
AnchorPoint: "r;x" 673 389 basechar 0
AnchorPoint: "r;hi" 693 675 basechar 0
AnchorPoint: "r;o" 693 215 basechar 0
LayerCount: 3
Fore
SplineSet
608 178 m 0
 616 178 622 172 622 160 c 0
 622 142 612 105 609 63 c 0
 607 41 590 35 558 21 c 0
 483 -13 400 -13 364 -13 c 0
 158 -13 41 144 41 317 c 0
 41 483 148 683 405 683 c 0
 475 683 517 673 554 658 c 0
 570 652 576 644 579 625 c 0
 582 610 590 571 590 563 c 0
 590 552 582 548 575 548 c 0
 564 548 550 570 544 578 c 0
 525 605 479 640 403 640 c 0
 240 640 143 502 143 353 c 0
 143 111 267 36 395 36 c 0
 456 36 483 47 510 63 c 0
 539 80 558 93 579 137 c 2
 588 155 l 2
 594 165 599 178 608 178 c 0
EndSplineSet
EndChar

StartChar: D
Encoding: 68 68 29
Width: 786
VWidth: 0
Flags: W
HStem: -4 42<31.9682 124.031 211.022 470.117> 628 42<35.008 127.685 216 392.758>
VStem: 125 89<67.7144 625.962> 626 104<214.701 436.326>
AnchorPoint: "l;bl" 0 10 basechar 0
AnchorPoint: "l;x" 0 389 basechar 0
AnchorPoint: "l;hi" 0 675 basechar 0
AnchorPoint: "l;o" 0 215 basechar 0
AnchorPoint: "r;bl" 746 10 basechar 0
AnchorPoint: "r;x" 786 389 basechar 0
AnchorPoint: "r;hi" 766 675 basechar 0
AnchorPoint: "r;o" 786 215 basechar 0
LayerCount: 3
Fore
SplineSet
31 12 m 0
 31 29 56 30 86 35 c 0
 120 40 125 44 125 76 c 0
 125 91 121 121 121 155 c 0
 121 282 123 486 128 594 c 1
 128 601 l 2
 128 627 117 624 65 631 c 0
 46 634 35 636 35 649 c 0
 35 664 43 668 62 668 c 0
 94 668 146 666 166 666 c 0
 221 666 234 670 288 670 c 0
 386 670 473 664 542 631 c 0
 657 576 730 483 730 322 c 0
 730 248 680 60 505 15 c 0
 450 1 426 -4 332 -4 c 0
 286 -4 213 2 170 2 c 0
 127 2 82 -5 67 -5 c 0
 35 -5 31 2 31 12 c 0
381 38 m 0
 441 38 494 65 536 101 c 0
 600 156 626 237 626 317 c 0
 626 539 439 628 240 628 c 0
 218 628 216 619 216 607 c 0
 214 477 214 346 214 216 c 0
 214 172 214 113 224 84 c 0
 237 48 311 38 381 38 c 0
EndSplineSet
EndChar

StartChar: E
Encoding: 69 69 30
Width: 633
VWidth: 0
Flags: W
HStem: -2 39<5.24824 102.536> 0 46<204.056 516.235> 334 35<208.466 433.171> 633 41<212.79 460.928> 643 37<29.1145 126.47>
VStem: 122 84<369.219 629.169> 443 36<217.908 325.691> 525 33<519.104 594.221>
AnchorPoint: "top" 327 685 basechar 0
AnchorPoint: "l;bl" 0 10 basechar 0
AnchorPoint: "l;x" 0 389 basechar 0
AnchorPoint: "l;hi" 0 675 basechar 0
AnchorPoint: "l;o" 0 215 basechar 0
AnchorPoint: "r;bl" 613 10 basechar 0
AnchorPoint: "r;x" 633 389 basechar 0
AnchorPoint: "r;hi" 633 675 basechar 0
AnchorPoint: "r;o" 633 215 basechar 0
LayerCount: 3
Fore
SplineSet
537 670 m 0x37
 553 670 558 653 558 641 c 2
 558 538 l 2
 558 528 550 519 540 519 c 0
 529 519 526 530 525 534 c 0
 514 625 481 619 441 625 c 0
 412 629 291 633 254 633 c 0
 235 633 212 630 212 606 c 0
 212 537 206 486 206 414 c 0
 206 374 214 369 234 369 c 2
 359 369 l 2
 434 369 434 370 441 400 c 0
 446 419 449 463 466 463 c 0
 477 463 481 455 481 448 c 0
 481 434 475 390 475 352 c 0
 475 268 479 246 479 233 c 0
 479 225 474 217 466 217 c 0
 445 217 445 253 443 275 c 0
 440 305 437 331 404 332 c 2
 231 334 l 2
 207 334 203 322 203 309 c 2
 203 110 l 2
 203 92 203 76 204 66 c 0
 205 52 219 46 232 46 c 2
 426 46 l 2
 500 46 524 60 552 119 c 2
 558 132 l 2
 563 143 571 158 578 158 c 0
 588 158 592 150 592 136 c 0
 592 112 583 81 580 63 c 0
 576 39 573 17 572 8 c 0
 571 -1 560 -3 552 -3 c 0
 507 -3 462 0 418 0 c 2
 148 0 l 6x77
 98 0 55 -2 30 -2 c 0
 19 -2 5 0 5 11 c 0
 5 33 10 37 24 37 c 0
 28 37 54 36 65 36 c 0
 90 36 103 42 110 84 c 0
 115 115 120 269 122 406 c 0
 123 508 128 604 128 618 c 0
 128 640 106 643 79 643 c 2
 65 643 l 2
 46 643 29 645 29 664 c 0
 29 672 33 680 52 680 c 0xaf
 60 680 71 678 84 677 c 0
 106 675 135 674 157 674 c 0
 255 674 437 670 537 670 c 0x37
EndSplineSet
EndChar

StartChar: F
Encoding: 70 70 31
Width: 587
VWidth: 0
Flags: W
HStem: -4 37<31.7638 123.452> 3 36<215.602 314.557> 321 37<214.456 434.764> 628 42<211.977 501.6> 639 28<33.0102 119.901>
VStem: 130 80<42.056 320.965 358.062 621.537> 453 26<232.18 269 406 451.82> 532 25<522.574 589.066>
AnchorPoint: "l;bl" 0 10 basechar 0
AnchorPoint: "l;x" 0 389 basechar 0
AnchorPoint: "l;hi" 0 675 basechar 0
AnchorPoint: "l;o" 0 215 basechar 0
AnchorPoint: "r;bl" 502 10 basechar 0
AnchorPoint: "r;x" 587 389 basechar 0
AnchorPoint: "r;hi" 587 675 basechar 0
AnchorPoint: "r;o" 547 215 basechar 0
LayerCount: 3
Fore
SplineSet
214 67 m 0x37
 214 45 230 40 249 39 c 2
 270 38 l 2
 290 37 315 34 315 18 c 0
 315 4 304 1 286 1 c 0
 279 1 224 3 172 3 c 4x77
 119 3 76 -4 49 -4 c 0
 38 -4 31 2 31 11 c 0
 31 27 61 26 88 33 c 0
 121 41 129 52 129 72 c 0
 129 212 130 459 130 576 c 2
 130 595 l 2
 130 640 96 636 53 639 c 0
 40 639 33 643 33 653 c 0
 33 665 47 667 67 667 c 2
 91 667 l 2xaf
 236 667 383 669 529 670 c 0
 545 670 553 661 553 649 c 2
 557 541 l 2
 557 528 552 522 547 522 c 0
 541 522 533 532 532 545 c 0
 528 586 515 607 481 615 c 0
 429 627 389 628 348 628 c 0
 319 628 295 627 257 625 c 0
 217 622 211 616 211 597 c 2
 212 506 l 2
 212 461 210 416 210 377 c 0
 210 362 216 358 227 358 c 2
 372 360 l 2
 437 361 445 382 448 406 c 2
 452 436 l 2
 453 445 456 452 464 452 c 0
 472 452 475 446 475 434 c 0
 475 420 471 377 471 339 c 0
 471 304 479 258 479 245 c 0
 479 237 474 232 468 232 c 0
 457 232 454 242 453 256 c 2
 452 269 l 2
 448 314 431 320 381 320 c 2
 241 321 l 2
 213 321 208 321 208 303 c 0
 208 289 208 274 209 258 c 0
 211 186 214 99 214 67 c 0x37
EndSplineSet
EndChar

StartChar: G
Encoding: 71 71 32
Width: 768
VWidth: 0
Flags: W
HStem: -18 39<314.802 517.608> 274 38<426.084 551.253 644 757.922> 652 42<304.824 521.734>
VStem: 41 93<213.736 457.241> 557 81<50.832 266.308> 606 35<507.074 572.167>
AnchorPoint: "top" 414 685 basechar 0
AnchorPoint: "l;bl" 40 10 basechar 0
AnchorPoint: "l;x" 0 389 basechar 0
AnchorPoint: "l;hi" 20 675 basechar 0
AnchorPoint: "l;o" 0 215 basechar 0
AnchorPoint: "r;bl" 748 10 basechar 0
AnchorPoint: "r;x" 768 389 basechar 0
AnchorPoint: "r;hi" 748 675 basechar 0
AnchorPoint: "r;o" 768 215 basechar 0
LayerCount: 3
Fore
SplineSet
134 352 m 0xf4
 134 142 255 21 413 21 c 0
 496 21 550 49 552 74 c 0
 555 115 557 183 557 235 c 0
 557 272 519 271 483 274 c 0
 455 276 426 276 426 294 c 0
 426 306 435 312 445 312 c 2
 738 312 l 2
 755 312 758 300 758 294 c 0
 758 279 731 278 703 277 c 0
 673 276 645 275 644 256 c 2
 638 58 l 2xf8
 637 37 629 32 601 21 c 0
 555 3 478 -18 390 -18 c 4
 143 -18 41 149 41 332 c 0
 41 513 172 694 440 694 c 0
 507 694 580 675 622 648 c 0
 634 641 637 631 637 622 c 2
 637 579 l 2
 637 559 641 522 641 520 c 0
 641 511 637 507 625 507 c 0
 616 507 611 512 606 534 c 0
 588 600 523 652 428 652 c 0
 194 652 134 476 134 352 c 0xf4
EndSplineSet
EndChar

StartChar: H
Encoding: 72 72 33
Width: 779
VWidth: 0
Flags: HMW
HStem: -2 34<31.4837 106.212 452.417 501> 310 50<205.108 554.723> 627 38<41.0524 117.121 214.118 302.813 645.436 717.981>
VStem: 115 90<38.8872 309.958 360.009 626.005> 121 92<359.984 625.276> 557 86<46.2812 309.516 359.281 630.199>
AnchorPoint: "top" 387 685 basechar 0
AnchorPoint: "l;bl" 0 10 basechar 0
AnchorPoint: "l;x" 0 389 basechar 0
AnchorPoint: "l;hi" 0 675 basechar 0
AnchorPoint: "l;o" 0 215 basechar 0
AnchorPoint: "r;bl" 779 10 basechar 0
AnchorPoint: "r;x" 779 389 basechar 0
AnchorPoint: "r;hi" 759 675 basechar 0
AnchorPoint: "r;o" 779 215 basechar 0
LayerCount: 3
Fore
SplineSet
205 63 m 0xea
 205 16 301 48 301 15 c 0
 301 -1 288 -3 270 -3 c 0
 263 -3 218 0 166 0 c 0
 113 0 81 -2 54 -2 c 0
 36 -2 31 2 31 11 c 0
 31 30 55 27 76 32 c 0
 94 36 115 49 115 71 c 0xea
 115 87 115 224 117 356 c 0
 119 444 121 522 121 559 c 2
 121 579 l 2
 121 607 115 625 94 626 c 2
 61 627 l 2
 49 627 41 632 41 645 c 0
 41 661 59 665 84 665 c 0
 111 665 138 664 165 664 c 0
 209 664 269 668 279 668 c 0
 288 668 303 666 303 648 c 0
 303 631 274 630 256 629 c 2
 236 628 l 2
 217 627 215 624 213 597 c 0xe6
 208 526 208 469 205 384 c 0
 205 382 205 380 205 378 c 0
 205 363 208 360 228 360 c 2
 528 359 l 2
 552 359 555 366 556 403 c 0
 557 436 557 466 557 493 c 0
 557 546 556 584 556 593 c 0
 556 620 553 628 531 631 c 2
 505 634 l 2
 487 636 474 640 474 651 c 0
 474 665 488 670 503 670 c 0xda
 514 670 577 665 599 665 c 0
 611 665 661 664 688 664 c 0
 713 664 718 655 718 646 c 0
 718 632 692 632 673 631 c 0
 649 630 645 624 645 595 c 0
 645 520 643 444 643 355 c 0
 643 242 642 134 642 82 c 0
 642 21 748 43 748 13 c 0
 748 0 734 0 716 0 c 0
 709 0 653 2 601 2 c 4
 548 2 494 -6 467 -6 c 0
 456 -6 451 -1 451 8 c 0
 451 23 465 26 484 27 c 2
 501 28 l 2
 517 29 551 32 553 67 c 0
 555 109 557 177 557 247 c 2
 557 292 l 2
 557 308 547 310 519 310 c 2
 232 310 l 2
 207 310 203 308 203 293 c 0
 203 260 207 227 207 195 c 0
 207 138 205 88 205 63 c 0xea
EndSplineSet
EndChar

StartChar: I
Encoding: 73 73 34
Width: 337
VWidth: 0
Flags: W
HStem: -6 35<10.0847 67 250.75 311.665> 630 39<15.7634 117.538 218.598 310.989>
VStem: 111 92<42.6895 316.403> 121 88<339.6 621.494>
AnchorPoint: "top" 164 685 basechar 0
AnchorPoint: "l;bl" 0 10 basechar 0
AnchorPoint: "l;x" 0 389 basechar 0
AnchorPoint: "l;hi" 0 675 basechar 0
AnchorPoint: "l;o" 0 215 basechar 0
AnchorPoint: "r;bl" 337 10 basechar 0
AnchorPoint: "r;x" 337 389 basechar 0
AnchorPoint: "r;hi" 337 675 basechar 0
AnchorPoint: "r;o" 337 215 basechar 0
LayerCount: 3
Fore
SplineSet
281 630 m 0xd0
 231 628 209 624 209 564 c 0xd0
 209 424 203 223 203 70 c 0
 203 48 223 41 248 37 c 2
 270 34 l 2
 290 31 312 26 312 14 c 0
 312 3 299 0 282 0 c 0
 275 0 222 2 170 2 c 4
 117 2 56 -6 29 -6 c 0
 18 -6 10 1 10 10 c 0
 10 25 23 28 39 29 c 2
 67 31 l 2
 99 33 109 34 111 66 c 0xe0
 113 96 121 559 121 593 c 0
 121 628 91 632 61 633 c 0
 37 634 15 637 15 654 c 0
 15 668 26 672 40 672 c 0
 70 672 80 667 168 667 c 0
 239 667 259 669 274 669 c 0
 296 669 311 664 311 649 c 0
 311 633 297 631 281 630 c 0xd0
EndSplineSet
EndChar

StartChar: J
Encoding: 74 74 35
Width: 333
VWidth: 0
Flags: W
HStem: -248 39<-16.4478 76.6248> 630 43<5.50977 118.327> 637 40<218.458 302.703>
VStem: -102 81<-204.337 -144.581> 121 95<335.133 626.677> 130 91<-104.028 379.636>
AnchorPoint: "top" 153 685 basechar 0
AnchorPoint: "l;bl" 0 10 basechar 0
AnchorPoint: "l;x" 0 389 basechar 0
AnchorPoint: "l;hi" 0 675 basechar 0
AnchorPoint: "l;o" 0 215 basechar 0
AnchorPoint: "l;k;lo" -102 -204 basechar 0
AnchorPoint: "r;bl" 333 10 basechar 0
AnchorPoint: "r;x" 333 389 basechar 0
AnchorPoint: "r;hi" 333 675 basechar 0
AnchorPoint: "r;o" 333 215 basechar 0
LayerCount: 3
Fore
SplineSet
-33 -66 m 0xb4
 -6 -66 17 -85 17 -115 c 0
 17 -147 -21 -148 -21 -175 c 0
 -21 -199 1 -209 28 -209 c 0
 97 -209 123 -122 126 -55 c 0
 129 2 130 62 130 124 c 0xb4
 130 275 123 439 121 593 c 0
 121 620 104 630 80 630 c 2
 32 630 l 2
 16 630 5 635 5 647 c 0
 5 660 16 673 35 673 c 2
 125 673 l 2xd8
 180 673 263 677 285 677 c 0
 297 677 303 668 303 660 c 0
 303 641 277 639 258 637 c 0
 234 634 216 636 216 597 c 0xb8
 216 439 221 224 221 84 c 0
 221 -56 201 -121 168 -168 c 0
 133 -218 73 -248 14 -248 c 0
 -51 -248 -102 -202 -102 -151 c 0
 -102 -104 -72 -66 -33 -66 c 0xb4
EndSplineSet
EndChar

StartChar: K
Encoding: 75 75 36
Width: 700
VWidth: 0
Flags: HMW
HStem: 0 40<15.3046 118.817 214.888 318.989 362.017 456.99 603.432 694.803> 319 37<212.023 244.094> 624 42<223.787 300.872 379.157 457.34> 655 20G<631.5 646.5>
VStem: 118 93<46.5852 318.996 356.004 465.084> 129 94<373.62 614.5>
DStem2: 330 343 241 305 0.667287 -0.7448<-36.6554 299.744> 262 389 326 397 0.716325 0.697767<19.1262 292.58>
AnchorPoint: "l;bl" 0 10 basechar 0
AnchorPoint: "l;x" 0 389 basechar 0
AnchorPoint: "l;hi" 0 675 basechar 0
AnchorPoint: "l;o" 0 215 basechar 0
AnchorPoint: "r;bl" 700 10 basechar 0
AnchorPoint: "r;x" 620 389 basechar 0
AnchorPoint: "r;hi" 690 675 basechar 0
AnchorPoint: "r;o" 660 215 basechar 0
LayerCount: 3
Fore
SplineSet
362 20 m 0xd8
 362 36 386 39 413 40 c 0
 444 41 457 44 457 54 c 0
 457 61 451 71 439 84 c 2
 241 305 l 2
 235 311 226 319 220 319 c 0
 215 319 212 314 212 301 c 2
 211 85 l 2
 211 49 220 45 279 40 c 0
 304 38 319 36 319 20 c 0
 319 0 310 0 292 0 c 2
 174 0 l 2
 119 0 81 -2 52 -2 c 0
 40 -2 15 1 15 16 c 0
 15 37 32 40 52 40 c 2
 89 40 l 2
 103 40 119 46 119 63 c 0
 119 73 118 129 118 206 c 0xd8
 118 331 129 582 129 598 c 0
 129 613 100 617 79 619 c 0
 50 621 26 621 26 636 c 0
 26 653 35 658 60 658 c 0
 99 658 136 660 173 661 c 0
 206 662 263 666 272 666 c 0
 290 666 301 656 301 647 c 0
 301 632 287 627 269 624 c 0
 240 620 223 611 223 599 c 0xe4
 221 539 211 384 211 373 c 0
 211 361 214 356 219 356 c 0
 230 356 250 377 262 389 c 0
 291 417 351 482 433 565 c 0
 439 571 458 589 458 608 c 0
 458 616 453 622 438 623 c 0
 403 625 379 623 379 648 c 0
 379 654 381 666 415 667 c 0
 435 668 496 668 509 669 c 0
 544 671 625 675 638 675 c 0
 655 675 660 666 660 656 c 0
 660 637 641 637 624 635 c 0
 568 630 546 611 519 585 c 2
 439 508 l 1
 326 397 l 2
 312 383 306 376 306 371 c 0
 306 365 315 359 330 343 c 0
 390 280 567 84 603 54 c 0
 612 47 635 42 652 42 c 0
 678 42 695 42 695 25 c 0
 695 0 686 -2 665 -2 c 0
 627 -2 614 0 540 0 c 6
 388 0 l 2
 385 0 362 0 362 20 c 0xd8
EndSplineSet
EndChar

StartChar: L
Encoding: 76 76 37
Width: 602
VWidth: 0
Flags: W
HStem: -5 28<2.14553 90.1946> 0 39<216.097 439.125> 634 31<16.0131 88> 639 33<267 338.242>
VStem: 125 86<43.175 628.573>
AnchorPoint: "right" 368 469 basechar 0
AnchorPoint: "top" 174 685 basechar 0
AnchorPoint: "l;bl" 0 10 basechar 0
AnchorPoint: "l;x" 0 389 basechar 0
AnchorPoint: "l;hi" 0 675 basechar 0
AnchorPoint: "l;o" 0 215 basechar 0
AnchorPoint: "r;bl" 602 10 basechar 0
AnchorPoint: "r;x" 562 389 basechar 0
AnchorPoint: "r;o" 602 215 basechar 0
LayerCount: 3
Fore
SplineSet
214 71 m 0x18
 214 62 219 39 237 39 c 0
 261 39 432 45 475 59 c 0
 541 80 551 175 569 175 c 0
 578 175 582 165 582 151 c 0
 582 135 579 113 577 93 c 0
 575 64 574 43 574 21 c 0
 574 5 558 0 540 0 c 2
 170 0 l 6x58
 117 0 52 -5 25 -5 c 0
 14 -5 2 -3 2 7 c 0
 2 18 10 20 24 23 c 0
 60 31 122 31 122 75 c 0
 122 105 125 557 125 591 c 0
 125 623 123 630 88 632 c 2
 57 634 l 2
 34 635 16 634 16 649 c 0
 16 663 25 665 31 665 c 0xa8
 52 665 62 663 139 663 c 0
 252 663 300 672 316 672 c 0
 332 672 339 667 339 660 c 0
 339 640 309 641 289 639 c 2
 267 637 l 2
 222 633 212 625 212 542 c 2
 211 365 l 2
 211 245 211 119 214 71 c 0x18
EndSplineSet
EndChar

StartChar: M
Encoding: 77 77 38
Width: 938
VWidth: -2
Flags: W
HStem: 0 34<22.0648 113.076 182.727 303.82 610.447 710.188 817.479 926.442> 626 38<801.291 915.759> 633 35<34.1755 139.673>
VStem: 119 52<44.5016 300.396> 140 38<502 612> 715 81<341.444 532.995> 718 90<44.5165 320.801>
DStem2: 230 660 203 502 0.45624 -0.889857<95.2947 567.361> 513 200 483 28 0.395525 0.918455<-52.411 382.873>
AnchorPoint: "l;bl" 0 10 basechar 0
AnchorPoint: "l;x" 0 389 basechar 0
AnchorPoint: "l;hi" 0 675 basechar 0
AnchorPoint: "l;o" 0 215 basechar 0
AnchorPoint: "r;bl" 938 10 basechar 0
AnchorPoint: "r;x" 938 389 basechar 0
AnchorPoint: "r;hi" 938 675 basechar 0
AnchorPoint: "r;o" 938 215 basechar 0
LayerCount: 3
Fore
SplineSet
445 30 m 2xc4
 203 502 l 2
 200 507 191 530 185 530 c 0
 181 530 179 521 178 502 c 0xcc
 173 414 171 187 171 112 c 0
 171 47 179 42 234 36 c 0
 271 32 305 33 305 11 c 0
 305 -1 296 -2 283 -2 c 0
 249 -2 199 2 152 2 c 0
 119 2 63 0 41 0 c 0
 32 0 22 0 22 15 c 0
 22 25 24 30 33 32 c 0
 40 33 52 34 61 34 c 0
 115 37 117 45 119 87 c 0xd0
 124 227 140 599 140 612 c 0
 140 626 128 626 91 633 c 0
 61 639 34 638 34 652 c 0
 34 664 44 668 62 668 c 2
 208 668 l 2xa8
 214 668 226 667 230 660 c 0
 308 509 379 374 459 202 c 0
 473 170 480 154 487 154 c 0
 493 154 500 169 513 200 c 2
 684 596 l 2
 690 610 699 632 707 649 c 0
 713 661 714 664 723 664 c 0
 754 663 772 663 798 663 c 2
 832 663 l 2
 876 663 889 664 895 664 c 0
 908 664 917 657 917 650 c 0
 917 632 881 630 848 626 c 0
 827 623 807 618 801 610 c 0
 797 604 796 594 796 583 c 0xcc
 796 518 808 146 808 74 c 0
 808 43 836 41 881 34 c 0
 907 30 927 26 927 14 c 0
 927 2 920 0 894 0 c 0
 883 0 824 2 767 2 c 4
 714 2 672 -5 645 -5 c 0
 615 -5 610 3 610 14 c 0
 610 30 635 31 662 33 c 0
 697 35 718 43 718 82 c 2xc2
 718 82 717 392 715 509 c 0
 715 526 712 533 708 533 c 0
 703 533 696 523 691 511 c 2
 483 28 l 2
 477 14 471 7 465 7 c 0
 459 7 452 16 445 30 c 2xc4
EndSplineSet
EndChar

StartChar: N
Encoding: 78 78 39
Width: 768
VWidth: 0
Flags: W
HStem: -28 21G<631 642> -1 35<24.049 122.906 175.121 291.716> 636 37<15.0204 108.658> 647 34<480.157 591.861 688 741.945>
VStem: 118 39<356.009 517.996> 127 45<38.0693 272.551> 614 40<132.008 385.794>
DStem2: 181 643 186 497 0.635984 -0.771702<85.1706 665.78>
AnchorPoint: "top" 389 685 basechar 0
AnchorPoint: "l;bl" 0 10 basechar 0
AnchorPoint: "l;x" 0 389 basechar 0
AnchorPoint: "l;hi" 0 675 basechar 0
AnchorPoint: "l;o" 0 215 basechar 0
AnchorPoint: "r;bl" 768 10 basechar 0
AnchorPoint: "r;x" 768 389 basechar 0
AnchorPoint: "r;hi" 768 675 basechar 0
AnchorPoint: "r;o" 768 215 basechar 0
LayerCount: 3
Fore
SplineSet
181 643 m 0xea
 314 491 433 347 554 192 c 1
 584 154 l 2
 596 139 604 132 608 132 c 0
 613 132 614 143 614 162 c 2
 614 183 l 2
 614 386 607 484 601 587 c 0
 598 642 593 641 519 647 c 0
 498 649 480 651 480 666 c 0
 480 672 484 681 502 681 c 0
 509 681 568 678 610 678 c 0
 662 678 690 680 714 680 c 0
 723 680 742 679 742 663 c 0
 742 651 732 646 719 645 c 2
 688 643 l 2
 677 642 665 642 657 635 c 0
 650 629 650 614 650 585 c 0
 650 510 649 439 649 366 c 0
 649 244 651 123 654 -3 c 0
 654 -28 644 -28 640 -28 c 0
 622 -28 616 -15 520 100 c 2
 186 497 l 2
 176 509 168 518 163 518 c 0
 159 518 157 513 157 500 c 2
 157 493 l 1xda
 161 388 168 132 172 63 c 0
 174 34 208 35 232 34 c 0
 268 32 292 33 292 13 c 0
 292 0 281 -1 266 -1 c 0
 235 -1 193 1 149 1 c 0
 116 1 72 -1 50 -1 c 0
 41 -1 24 0 24 15 c 0
 24 28 27 30 39 31 c 0
 45 31 56 32 63 32 c 0
 126 36 127 45 127 87 c 0xd6
 127 222 121 467 118 560 c 0
 116 623 108 633 69 636 c 0
 43 638 15 634 15 654 c 0
 15 671 21 673 31 673 c 0
 107 673 115 675 128 675 c 0
 152 675 157 670 181 643 c 0xea
EndSplineSet
Layer: 2
SplineSet
181 643 m 4xea
 314 491 433 347 554 192 c 5
 584 154 l 6
 596 139 604 132 608 132 c 4
 613 132 614 143 614 162 c 6
 614 183 l 6
 614 386 607 484 601 587 c 4
 598 642 593 641 519 647 c 4
 498 649 480 651 480 666 c 4
 480 672 484 681 502 681 c 4
 509 681 568 678 610 678 c 4
 662 678 690 680 714 680 c 4
 723 680 742 679 742 663 c 4
 742 651 732 646 719 645 c 6
 688 643 l 6
 677 642 665 642 657 635 c 4
 650 629 650 614 650 585 c 4
 650 510 649 439 649 366 c 4
 649 244 651 123 654 -3 c 4
 654 -28 644 -28 640 -28 c 4
 622 -28 616 -15 520 100 c 6
 186 497 l 6
 176 509 168 518 163 518 c 4
 159 518 157 513 157 500 c 6
 157 493 l 5xda
 161 388 168 132 172 63 c 4
 174 34 208 35 232 34 c 4
 268 32 292 33 292 13 c 4
 292 0 281 -1 266 -1 c 4
 235 -1 193 1 149 1 c 4
 116 1 72 -1 50 -1 c 4
 41 -1 24 0 24 15 c 4
 24 28 27 30 39 31 c 4
 45 31 56 32 63 32 c 4
 126 36 127 45 127 87 c 4xd6
 127 222 121 467 118 560 c 4
 116 623 108 633 69 636 c 4
 43 638 15 634 15 654 c 4
 15 671 21 673 31 673 c 6
 72 673 l 6
 90 673 110 675 128 675 c 4
 152 675 157 670 181 643 c 4xea
EndSplineSet
EndChar

StartChar: O
Encoding: 79 79 40
Width: 808
VWidth: 0
Flags: W
HStem: -21 39<316.858 493.358> 634 45<291.797 474.864>
VStem: 41 107<206.526 456.025> 639 107<191.535 439.714>
AnchorPoint: "top" 389 685 basechar 0
AnchorPoint: "l;bl" 20 10 basechar 0
AnchorPoint: "l;x" 0 389 basechar 0
AnchorPoint: "l;hi" 0 675 basechar 0
AnchorPoint: "l;o" 0 215 basechar 0
AnchorPoint: "r;bl" 768 10 basechar 0
AnchorPoint: "r;x" 808 389 basechar 0
AnchorPoint: "r;hi" 788 675 basechar 0
AnchorPoint: "r;o" 808 215 basechar 0
LayerCount: 3
Fore
SplineSet
746 327 m 0
 746 94 587 -21 387 -21 c 0
 203 -21 41 82 41 331 c 0
 41 558 213 679 393 679 c 0
 587 679 746 547 746 327 c 0
148 348 m 0
 148 136 273 18 404 18 c 0
 539 18 639 130 639 303 c 0
 639 501 520 634 388 634 c 0
 231 634 148 498 148 348 c 0
EndSplineSet
EndChar

StartChar: P
Encoding: 80 80 41
Width: 571
VWidth: 0
Flags: W
HStem: -7 46<216.888 328.574> -6 35<21.0461 107.744> 272 48<248.211 385.701> 632 43<218.53 361.869>
VStem: 113 102<43.2031 297.325> 127 86<357.666 629.266> 445 95<390.47 554.021>
AnchorPoint: "l;bl" 0 10 basechar 0
AnchorPoint: "l;x" 0 389 basechar 0
AnchorPoint: "l;hi" 0 675 basechar 0
AnchorPoint: "l;o" 0 215 basechar 0
AnchorPoint: "r;bl" 487 10 basechar 0
AnchorPoint: "r;x" 571 389 basechar 0
AnchorPoint: "r;hi" 571 675 basechar 0
AnchorPoint: "r;o" 531 215 basechar 0
LayerCount: 3
Fore
SplineSet
217 571 m 0x36
 216 553 213 452 213 383 c 0
 213 348 215 337 226 331 c 0
 242 323 284 320 303 320 c 0
 394 320 445 375 445 473 c 0
 445 566 376 632 272 632 c 0
 211 632 219 626 217 571 c 0x36
21 10 m 0
 21 21 27 26 39 29 c 0
 66 34 113 29 113 61 c 0x7a
 113 91 127 575 127 609 c 0x76
 127 652 25 619 25 655 c 0
 25 672 37 676 52 676 c 0
 74 676 138 672 171 672 c 0
 223 672 262 675 325 675 c 0
 407 675 540 652 540 495 c 0
 540 396 483 272 335 272 c 0
 300 272 268 285 248 294 c 0
 234 301 226 307 221 307 c 0
 216 307 215 299 215 283 c 2
 215 67 l 2
 215 40 238 43 264 39 c 0
 295 35 329 32 329 14 c 0
 329 -2 322 -7 304 -7 c 0xba
 297 -7 248 2 170 2 c 4
 115 2 69 -6 42 -6 c 0x7a
 28 -6 21 0 21 10 c 0
EndSplineSet
EndChar

StartChar: Q
Encoding: 81 81 42
Width: 802
VWidth: 0
Flags: W
HStem: -241 55.9648<658.12 764.96> 643 41<277.851 471.282>
VStem: 41 93<216.16 459.341> 638 95<193.181 449.745>
AnchorPoint: "l;bl" 20 10 basechar 0
AnchorPoint: "l;x" 0 389 basechar 0
AnchorPoint: "l;hi" 0 675 basechar 0
AnchorPoint: "l;o" 0 215 basechar 0
AnchorPoint: "r;bl" 782 10 basechar 0
AnchorPoint: "r;x" 802 389 basechar 0
AnchorPoint: "r;hi" 782 675 basechar 0
AnchorPoint: "r;o" 802 215 basechar 0
AnchorPoint: "r;k;lo" 802 -204 basechar 0
LayerCount: 3
Fore
SplineSet
384 18 m 0
 520 18 638 127 638 303 c 0
 638 505 542 643 369 643 c 0
 209 643 134 494 134 343 c 0
 134 163 260 18 384 18 c 0
740.2421875 -185.03515625 m 0
 779.918945312 -185.03515625 792.263671875 -171.969726562 800.850585938 -171.969726562 c 0
 808.200195312 -171.969726562 811.248046875 -180.9921875 811.248046875 -188.1328125 c 0
 811.248046875 -200 804.940429688 -200.443359375 798 -204.547851562 c 0
 767.462890625 -217.922851562 726.671875 -241 677 -241 c 0
 534 -241 458 -122 315 -20 c 0
 303 -12 292 -1 276 4 c 0
 145 46 41 149 41 317 c 0
 41 558 191 684 382 684 c 0
 608 684 733 546 733 328 c 0
 733 72 551 17 464 2 c 0
 440 -2 433 -7 433 -13 c 0
 433 -22 450 -34 469 -47 c 0
 549.05078125 -102.34375 662.309570312 -185.03515625 740.2421875 -185.03515625 c 0
EndSplineSet
AlternateSubs2: "'aalt' Access All Alternates lookup 0 subtable" Q.001 Q.002
AlternateSubs2: "'aalt' Access All Alternates in Latin lookup 0 subtable" Q.001 Q.002
AlternateSubs2: "'salt' Stylistic Alternatives in Latin lookup 3 subtable" Q.001 Q.002
EndChar

StartChar: R
Encoding: 82 82 43
Width: 676
VWidth: 0
Flags: W
HStem: -3 35<21.0145 116.773 264 323.948 625 670.968> 332 25<214.898 288.062> 635 36<37.2986 127.004 216.671 323.596>
VStem: 120 93<43.0625 316.367> 131 82<358.645 632.175> 410 92<419.304 567.616>
AnchorPoint: "top" 281 685 basechar 0
AnchorPoint: "l;bl" 0 10 basechar 0
AnchorPoint: "l;x" 0 389 basechar 0
AnchorPoint: "l;hi" 0 675 basechar 0
AnchorPoint: "l;o" 0 215 basechar 0
AnchorPoint: "r;bl" 676 10 basechar 0
AnchorPoint: "r;x" 596 389 basechar 0
AnchorPoint: "r;hi" 551 675 basechar 0
AnchorPoint: "r;o" 636 215 basechar 0
LayerCount: 3
Fore
SplineSet
213 299 m 2xf4
 213 72 l 2
 213 44 233 42 264 36 c 2
 286 32 l 2
 306 28 324 24 324 14 c 0
 324 -2 315 -3 303 -3 c 0
 296 -3 224 4 172 4 c 4
 84 4 56 -1 36 -1 c 0
 22 -1 21 6 21 15 c 0
 21 29 41 28 55 29 c 0
 88 33 117 29 120 61 c 0xf4
 123 87 131 460 131 577 c 0xec
 131 626 128 635 78 635 c 2
 64 635 l 2
 49 635 36 636 36 647 c 0
 36 668 73 671 112 671 c 2
 168 671 l 2
 194 671 236 674 252 674 c 0
 388 674 502 640 502 507 c 0
 502 422 461 379 397 354 c 0
 375 346 366 344 366 340 c 0
 366 337 371 332 379 320 c 0
 427 251 474 172 519 98 c 0
 543 58 555 50 606 40 c 2
 644 33 l 2
 660 30 671 24 671 14 c 0
 671 -1 661 -2 645 -2 c 0
 598 -2 560 0 513 0 c 0
 463 0 450 22 440 42 c 2
 305 299 l 2
 297 313 282 332 258 332 c 2
 234 332 l 2
 216 332 213 323 213 299 c 2xf4
216 607 m 0
 216 589 214 453 214 384 c 0
 214 358 216 357 247 357 c 0
 338 357 410 394 410 496 c 0
 410 587 335 633 235 633 c 0
 216 633 216 615 216 607 c 0
EndSplineSet
EndChar

StartChar: S
Encoding: 83 83 44
Width: 524
VWidth: 0
Flags: W
HStem: -19 46<171.346 349.655> 643 45<180.148 324.378>
VStem: 63 31<110.418 197.981> 73 60<473.969 593.721> 370 35<515.165 590.06> 407 55<88.1624 207.171>
AnchorPoint: "top" 256 685 basechar 0
AnchorPoint: "cedilla" 262 -81 basechar 0
AnchorPoint: "l;bl" 0 10 basechar 0
AnchorPoint: "l;x" 0 389 basechar 0
AnchorPoint: "l;hi" 0 675 basechar 0
AnchorPoint: "l;o" 0 215 basechar 0
AnchorPoint: "r;bl" 524 10 basechar 0
AnchorPoint: "r;x" 524 389 basechar 0
AnchorPoint: "r;hi" 524 675 basechar 0
AnchorPoint: "r;o" 524 215 basechar 0
LayerCount: 3
Fore
SplineSet
405 539 m 0xdc
 405 520 403 514 393 514 c 0
 378 514 373 535 370 548 c 0
 354 618 303 643 253 643 c 0
 196 643 133 610 133 526 c 0xdc
 133 463 212 429 294 387 c 0
 378 344 462 290 462 178 c 0
 462 80 389 -19 256 -19 c 0
 198 -19 127 -4 95 6 c 0
 68 14 61 16 61 26 c 0
 61 53 63 76 63 98 c 2
 63 164 l 2
 63 172 65 198 78 198 c 0
 90 198 92 176 94 162 c 0xec
 99 126 108 109 126 85 c 0
 156 47 211 27 272 27 c 0
 359 27 407 88 407 145 c 0
 407 235 303 270 213 317 c 0
 136 357 73 418 73 511 c 0
 73 607 151 688 269 688 c 0
 319 688 356 678 395 663 c 0
 404 659 405 649 405 638 c 0
 405 627 404 614 404 603 c 0
 404 577 405 546 405 539 c 0xdc
EndSplineSet
EndChar

StartChar: T
Encoding: 84 84 45
Width: 643
VWidth: 0
Flags: HMW
HStem: -8 36<163.173 223> -1 37<394 479.988> 618 49<87.3283 270.022> 681 20G<53.5 68.5 581 599>
VStem: 8 40<512.184 577.799> 163 191<1 320.52> 266 88<40.6905 332.979> 274 84<341.843 617.8>
AnchorPoint: "top" 317 689 basechar 0
AnchorPoint: "cedilla" 313 -77 basechar 0
AnchorPoint: "l;bl" 125 14 basechar 0
AnchorPoint: "l;x" 70 393 basechar 0
AnchorPoint: "l;hi" 0 679 basechar 0
AnchorPoint: "l;o" 90 219 basechar 0
AnchorPoint: "r;bl" 518 14 basechar 0
AnchorPoint: "r;x" 578 393 basechar 0
AnchorPoint: "r;hi" 643 679 basechar 0
AnchorPoint: "r;o" 553 219 basechar 0
LayerCount: 3
Fore
SplineSet
354 70 m 0xbc
 354 41 359 41 394 39 c 2
 443 36 l 2
 463 35 480 32 480 17 c 0
 480 3 467 -1 450 -1 c 0x7c
 443 -1 363 0 311 0 c 0
 258 0 198 -8 184 -8 c 0
 173 -8 163 -6 163 8 c 0xbc
 163 22 178 25 195 28 c 2
 223 33 l 2
 248 37 264 41 266 80 c 0xba
 272 196 274 447 274 584 c 0
 274 618 268 618 257 618 c 0
 201 618 141 617 98 602 c 0
 74 593 58 567 48 546 c 0
 39 528 34 511 24 511 c 0
 10 511 8 521 8 528 c 0
 8 562 21 600 35 654 c 0
 37 661 46 701 61 701 c 0
 76 701 83 671 96 671 c 0
 249 670 554 663 554 663 c 2
 579 663 571 699 591 699 c 0
 607 699 609 674 609 650 c 2
 609 617 l 2
 609 600 616 551 616 539 c 0
 616 532 613 515 601 515 c 0
 568 515 591 579 543 598 c 0
 512 610 397 618 386 618 c 0
 359 618 358 611 358 578 c 0xb9
 358 431 354 187 354 70 c 0xbc
EndSplineSet
Layer: 2
SplineSet
359 70 m 4x1e
 359 41 359 41 396 39 c 6x5e
 445 36 l 6x8e
 465 35 482 32 482 17 c 4
 482 3 469 -1 452 -1 c 4
 445 -1 365 0 313 0 c 4x4e
 260 0 213 -8 186 -8 c 4
 175 -8 166 -2 166 7 c 4
 166 27 200 31 225 36 c 4
 249 41 266 41 268 80 c 4x8e
 274 196 276 447 276 584 c 4
 276 618 270 618 259 618 c 4
 203 618 143 617 100 602 c 4
 76 593 60 567 50 546 c 4
 41 528 36 511 26 511 c 4
 12 511 10 521 10 528 c 4
 10 562 23 600 37 654 c 4
 39 661 45 701 63 701 c 4
 84 701 85 671 98 671 c 4xad
 251 670 556 663 556 663 c 6
 583 663 574 699 593 699 c 4
 609 699 614 678 614 662 c 4
 614 651 611 625 611 617 c 4
 611 600 618 551 618 539 c 4
 618 532 615 515 603 515 c 4
 570 515 593 579 545 598 c 4
 514 610 399 618 388 618 c 4
 361 618 360 611 360 578 c 4x1d
 360 431 359 187 359 70 c 4x1e
EndSplineSet
EndChar

StartChar: U
Encoding: 85 85 46
Width: 746
VWidth: 0
Flags: W
HStem: -26 54<274.474 501.599> 634 45<202.052 310.545 459.055 516 644.238 724.855>
VStem: 106 93<111.956 628.422> 590 45<125.611 617.481>
AnchorPoint: "top" 383 685 basechar 0
AnchorPoint: "l;bl" 60 10 basechar 0
AnchorPoint: "l;x" 20 389 basechar 0
AnchorPoint: "l;hi" 0 675 basechar 0
AnchorPoint: "l;o" 20 215 basechar 0
AnchorPoint: "r;bl" 686 10 basechar 0
AnchorPoint: "r;x" 726 389 basechar 0
AnchorPoint: "r;hi" 746 675 basechar 0
AnchorPoint: "r;o" 726 215 basechar 0
LayerCount: 3
Fore
SplineSet
495 679 m 0
 509 679 541 674 596 674 c 0
 627 674 695 681 699 681 c 0
 718 681 726 674 726 663 c 0
 726 643 706 638 681 634 c 0
 643 628 643 623 641 575 c 0
 638 497 639 396 635 320 c 0
 632 257 630 195 621 148 c 0
 596 24 512 -26 369 -26 c 4
 265 -26 106 -5 106 192 c 0
 106 329 107 465 108 602 c 0
 108 650 20 617 20 654 c 0
 20 664 32 675 51 675 c 0
 71 675 100 672 134 672 c 0
 181 672 256 678 274 678 c 0
 299 678 311 671 311 651 c 0
 311 631 286 630 241 630 c 0
 204 630 198 629 198 581 c 2
 199 248 l 2
 199 117 224 28 377 28 c 0
 476 28 541 44 571 133 c 0
 585 175 590 233 590 313 c 2
 590 429 l 2
 590 468 588 508 587 543 c 0
 585 616 575 627 516 633 c 2
 506 634 l 2
 478 636 459 636 459 657 c 0
 459 673 476 679 495 679 c 0
EndSplineSet
EndChar

StartChar: V
Encoding: 86 86 47
Width: 734
VWidth: 0
Flags: W
HStem: -12 21G<349.5 360.5> 636 42<10.4761 96.9173 211.049 318.339 621.549 723.211>
VStem: 567 157<601.5 669.5>
DStem2: 227 557 106 597 0.364462 -0.931218<-60.4568 439.838>
AnchorPoint: "l;bl" 165 10 basechar 0
AnchorPoint: "l;x" 40 389 basechar 0
AnchorPoint: "l;hi" 0 675 basechar 0
AnchorPoint: "l;o" 80 215 basechar 0
AnchorPoint: "r;bl" 569 10 basechar 0
AnchorPoint: "r;x" 694 389 basechar 0
AnchorPoint: "r;hi" 734 675 basechar 0
AnchorPoint: "r;o" 649 215 basechar 0
LayerCount: 3
Fore
SplineSet
319 663 m 0
 319 652 314 644 299 642 c 0
 279 639 211 648 211 616 c 0
 211 609 216 588 227 557 c 0
 264 457 338 257 376 163 c 0
 380 154 385 148 389 148 c 0
 393 148 397 153 401 163 c 0
 437 247 567 585 567 618 c 0
 567 657 460 629 460 660 c 0
 460 679 477 684 496 684 c 0
 526 684 552 680 587 680 c 0
 667 680 681 681 694 681 c 0
 712 681 724 677 724 662 c 0
 724 643 701 642 683 640 c 0
 644 636 626 639 605 580 c 0
 571 484 408 94 379 13 c 0
 372 -7 364 -12 357 -12 c 0
 342 -12 334 12 324 40 c 0
 311 78 297 115 283 151 c 2
 106 597 l 2
 96 624 83 631 70 636 c 0
 52 643 10 639 10 660 c 0
 10 677 51 678 61 678 c 2
 158 678 l 2
 185 678 270 683 297 683 c 0
 310 683 319 676 319 663 c 0
EndSplineSet
EndChar

StartChar: W
Encoding: 87 87 48
Width: 931
VWidth: 0
Flags: W
HStem: -10 21G<311.5 323 598 609.5> 639 38<14.1615 78.4531 705.557 797.982 860.723 921.196>
VStem: 798 124<605.5 669.5>
AnchorPoint: "top" 465 685 basechar 0
AnchorPoint: "l;bl" 160 10 basechar 0
AnchorPoint: "l;x" 40 389 basechar 0
AnchorPoint: "l;hi" 0 675 basechar 0
AnchorPoint: "l;o" 90 215 basechar 0
AnchorPoint: "r;bl" 766 10 basechar 0
AnchorPoint: "r;x" 886 389 basechar 0
AnchorPoint: "r;hi" 931 675 basechar 0
AnchorPoint: "r;o" 836 215 basechar 0
LayerCount: 3
Fore
SplineSet
563 664 m 0
 563 629 488 661 488 618 c 0
 488 587 576 313 619 189 c 0
 625 172 630 164 635 164 c 0
 641 164 646 174 654 192 c 0
 680 246 729 386 763 493 c 0
 782 555 798 588 798 623 c 0
 798 639 773 641 748 645 c 0
 726 648 704 649 704 664 c 0
 704 674 711 683 729 683 c 0
 759 683 780 680 815 680 c 2
 891 680 l 2
 916 680 922 676 922 663 c 0
 922 653 914 646 904 644 c 0
 864 636 863 630 850 593 c 0
 795 440 671 120 634 24 c 0
 623 -5 614 -10 605 -10 c 0
 591 -10 572 58 569 67 c 2
 496 290 l 2
 485 324 478 340 472 340 c 0
 466 340 460 324 447 292 c 0
 400 176 356 58 343 19 c 0
 335 -6 327 -7 319 -7 c 0
 304 -7 295 16 286 50 c 0
 276 85 264 116 260 127 c 2
 89 601 l 2
 78 633 53 636 35 639 c 0
 19 641 14 649 14 661 c 0
 14 670 20 677 36 677 c 2
 139 677 l 2
 166 677 204 681 231 681 c 0
 244 681 257 678 257 665 c 0
 257 627 183 661 183 620 c 0
 183 610 281 322 331 199 c 0
 339 181 346 169 353 169 c 0
 358 169 363 176 370 193 c 0
 384 227 415 298 444 374 c 0
 451 392 455 401 455 409 c 0
 455 416 452 426 445 444 c 2
 389 603 l 2
 370 659 305 632 305 665 c 0
 305 679 316 682 326 682 c 0
 357 682 392 677 443 677 c 0
 506 677 518 680 537 680 c 0
 550 680 563 677 563 664 c 0
EndSplineSet
EndChar

StartChar: X
Encoding: 88 88 49
Width: 746
VWidth: 0
Flags: W
HStem: 1 37<10.1044 112.118 188.007 284.907 639.045 735.421> 637 40<43.0102 94 598.426 708.948>
DStem2: 356 457 306 362 0.558993 -0.829173<-189.471 43.6529 139.155 410.949> 151 102 207 91 0.59674 0.802435<-14.4888 231.596 447.429 600.818>
AnchorPoint: "l;bl" 0 10 basechar 0
AnchorPoint: "l;x" 80 389 basechar 0
AnchorPoint: "l;hi" 10 675 basechar 0
AnchorPoint: "l;o" 40 215 basechar 0
AnchorPoint: "r;bl" 746 10 basechar 0
AnchorPoint: "r;x" 666 389 basechar 0
AnchorPoint: "r;hi" 746 675 basechar 0
AnchorPoint: "r;o" 706 215 basechar 0
LayerCount: 3
Fore
SplineSet
518 615 m 0
 518 655 437 619 437 655 c 0
 437 668 450 674 471 674 c 2
 575 674 l 2
 611 674 663 677 677 677 c 0
 691 677 709 672 709 656 c 0
 709 634 676 639 652 637 c 0
 607 633 612 634 587 604 c 0
 542 549 449 432 418 397 c 0
 414 392 412 385 412 380 c 0
 412 371 417 362 423 353 c 2
 592 113 l 2
 629 61 642 43 687 39 c 0
 716 36 736 38 736 14 c 0
 736 -3 703 -4 690 -4 c 0
 661 -4 590 -1 545 -1 c 4
 527 -1 474 -3 443 -3 c 0
 422 -3 415 4 415 18 c 0
 415 54 499 16 499 57 c 0
 499 71 407 209 373 264 c 0
 364 279 357 286 351 286 c 0
 344 286 336 279 326 264 c 0
 292 215 234 125 207 91 c 0
 196 77 188 65 188 56 c 0
 188 44 197 39 228 38 c 0
 253 37 285 36 285 18 c 0
 285 4 254 1 227 1 c 0
 215 1 191 2 157 2 c 0
 121 2 82 0 48 0 c 0
 26 0 10 7 10 18 c 0
 10 38 37 39 67 42 c 0
 113 46 119 61 151 102 c 2
 313 310 l 2
 321 319 324 325 324 330 c 0
 324 337 318 345 306 362 c 2
 133 620 l 2
 125 632 106 633 94 634 c 2
 80 635 l 2
 45 637 43 645 43 658 c 0
 43 673 57 679 74 679 c 0
 107 679 154 676 213 676 c 0
 244.514648438 676.334960938 276.038085938 677.002929688 307.55859375 677.002929688 c 0
 323.284179688 677.002929688 334 669.883789062 334 660 c 0
 334 623 258 650 258 620 c 0
 258 608 263 602 356 457 c 0
 370 435 377 423 384 423 c 0
 391 423 399 435 415 457 c 2
 507 586 l 2
 513 595 518 606 518 615 c 0
EndSplineSet
EndChar

StartChar: Y
Encoding: 89 89 50
Width: 706
VWidth: 0
Flags: W
HStem: -2 46<174.832 255 398.094 516.964> 634 44<10.0117 94.5709 219.02 315.939 415.038 514.988 590.085 694.928>
VStem: 305 91<47.3672 344.328>
AnchorPoint: "top" 368 685 basechar 0
AnchorPoint: "l;bl" 110 10 basechar 0
AnchorPoint: "l;x" 90 389 basechar 0
AnchorPoint: "l;hi" 0 675 basechar 0
AnchorPoint: "l;o" 95 215 basechar 0
AnchorPoint: "r;bl" 591 10 basechar 0
AnchorPoint: "r;x" 601 389 basechar 0
AnchorPoint: "r;hi" 706 675 basechar 0
AnchorPoint: "r;o" 601 215 basechar 0
LayerCount: 3
Fore
SplineSet
316 657 m 0
 316 639 295 637 271 635 c 0
 247 633 219 635 219 619 c 0
 219 603 306 481 346 407 c 0
 361 378 373 363 380 363 c 0
 386 363 393 376 406 402 c 0
 440 465 515 607 515 615 c 0
 515 628 499 633 484 634 c 0
 463 636 415 630 415 655 c 0
 415 668 428 679 449 679 c 0
 499 679 539 676 564 676 c 0
 598 676 627 680 654 680 c 0
 674 680 695 674 695 657 c 0
 695 637 670 635 648 632 c 0
 604 626 605 631 580 601 c 0
 543 556 437 379 401 324 c 0
 397 318 396 307 396 297 c 2
 396 89 l 2
 396 44 410 48 446 44 c 0
 476 41 517 46 517 21 c 0
 517 11 512 -2 475 -2 c 0
 449 -2 437 1 350 1 c 0
 270 1 208 -5 195 -5 c 0
 185 -5 173 -4 173 13 c 0
 173 30 188 39 215 41 c 2
 255 44 l 2
 283 46 305 44 305 74 c 2
 307 289 l 2
 307 318 300 324 289 340 c 2
 95 617 l 2
 86 629 67 633 55 634 c 0
 14 638 10 645 10 656 c 0
 10 672 26 678 43 678 c 0
 76 678 102 677 161 677 c 0
 197 677 237 678 273 678 c 0
 299 678 316 671 316 657 c 0
EndSplineSet
EndChar

StartChar: Z
Encoding: 90 90 51
Width: 713
VWidth: 0
Flags: W
HStem: 0 44<177.003 397.669> 627 46<140.642 515.906>
DStem2: 41 33 189 67 0.6382 0.769871<100.031 750.322>
AnchorPoint: "top" 368 685 basechar 0
AnchorPoint: "l;bl" 0 10 basechar 0
AnchorPoint: "l;x" 40 389 basechar 0
AnchorPoint: "l;hi" 0 675 basechar 0
AnchorPoint: "l;o" 20 215 basechar 0
AnchorPoint: "r;bl" 693 10 basechar 0
AnchorPoint: "r;x" 693 389 basechar 0
AnchorPoint: "r;hi" 703 675 basechar 0
AnchorPoint: "r;o" 713 215 basechar 0
LayerCount: 3
Fore
SplineSet
668 179 m 0
 676 179 683 174 683 163 c 0
 683 143 667 107 664 57 c 2
 662 25 l 2
 661 15 655 0 643 0 c 2
 63 0 l 2
 41 0 31 4 31 12 c 0
 31 17 34 25 41 33 c 2
 511 601 l 2
 514 604 517 610 516 614 c 0
 514 621 512 627 503 627 c 0
 490 627 291 624 282 624 c 0
 176 623 114 617 77 571 c 0
 64 555 57 542 47 542 c 0
 35 542 35 551 35 553 c 0
 36 584 55 609 74 656 c 0
 81 672 92 698 103 698 c 0
 122 698 108 666 140 666 c 0
 153 666 211 668 242 668 c 2
 639 673 l 2
 660 673 670 665 670 655 c 0
 670 650 668 645 664 640 c 2
 189 67 l 2
 183 60 177 54 177 50 c 0
 177 46 181 44 190 44 c 0
 231 44 426 55 544 64 c 0
 596 68 621 95 642 150 c 0
 652 175 661 179 668 179 c 0
EndSplineSet
EndChar

StartChar: comma
Encoding: 44 44 53
Width: 272
VWidth: 0
Flags: W
HStem: -170 22<54.0713 81.6306> 0 85<65.9325 143.66>
VStem: 147 58<-91.0371 1.61554>
AnchorPoint: "l;o" 20 215 basechar 0
AnchorPoint: "l;bl" 0 10 basechar 0
AnchorPoint: "r;bl" 272 10 basechar 0
AnchorPoint: "r;o" 272 215 basechar 0
AnchorPoint: "l;lo" 0 -204 basechar 0
AnchorPoint: "r;lo" 272 -204 basechar 0
LayerCount: 3
Fore
SplineSet
92 0 m 0
 68 0 56 20 56 38 c 0
 56 60 79 85 115 85 c 0
 159 85 205 62 205 -20 c 0
 205 -108 111 -170 65 -170 c 0
 59 -170 54 -165 54 -160 c 0
 54 -155 58 -150 62 -148 c 0
 103 -131 147 -93 147 -34 c 0
 147 -25 140 2 122 2 c 0
 116 2 109 0 92 0 c 0
EndSplineSet
EndChar

StartChar: period
Encoding: 46 46 54
Width: 220
VWidth: 0
Flags: W
HStem: -13 96<64.4403 145.56>
VStem: 57 96<-5.55973 75.5597>
AnchorPoint: "l;bl" 0 10 basechar 0
AnchorPoint: "l;o" 20 215 basechar 0
AnchorPoint: "r;bl" 220 10 basechar 0
AnchorPoint: "r;o" 220 215 basechar 0
LayerCount: 3
Fore
SplineSet
57 35 m 0
 57 62 78 83 105 83 c 0
 132 83 153 62 153 35 c 0
 153 8 132 -13 105 -13 c 0
 78 -13 57 8 57 35 c 0
EndSplineSet
EndChar

StartChar: hyphen
Encoding: 45 45 55
Width: 342
VWidth: 250
Flags: W
HStem: 191 55<37.3082 304.626>
VStem: 37 268<191 246>
AnchorPoint: "l;bl" 20 10 basechar 0
AnchorPoint: "l;x" 20 389 basechar 0
AnchorPoint: "l;o" 0 215 basechar 0
AnchorPoint: "r;bl" 322 10 basechar 0
AnchorPoint: "r;x" 322 389 basechar 0
AnchorPoint: "r;o" 342 215 basechar 0
LayerCount: 3
Fore
SplineSet
53 246 m 2
 288 246 l 2
 300 246 305 232 305 218 c 0
 305 204 300 191 288 191 c 2
 53 191 l 2
 40 191 37 205 37 220 c 0
 37 234 41 246 53 246 c 2
EndSplineSet
EndChar

StartChar: endash
Encoding: 8211 8211 56
Width: 481
VWidth: 250
Flags: W
HStem: 193 51<5.06836 474.918>
AnchorPoint: "r;o" 481 215 basechar 0
AnchorPoint: "r;x" 461 389 basechar 0
AnchorPoint: "r;bl" 461 10 basechar 0
AnchorPoint: "l;o" 0 215 basechar 0
AnchorPoint: "l;x" 20 389 basechar 0
AnchorPoint: "l;bl" 20 10 basechar 0
LayerCount: 3
Fore
SplineSet
19 244 m 2
 461 244 l 2
 473 244 475 232 475 218 c 0
 475 204 473 193 461 193 c 2
 19 193 l 2
 6 193 5 205 5 220 c 0
 5 234 7 244 19 244 c 2
EndSplineSet
EndChar

StartChar: emdash
Encoding: 8212 8212 57
Width: 787
VWidth: 250
Flags: W
HStem: 193 51<5.06836 781.918>
AnchorPoint: "l;bl" 20 10 basechar 0
AnchorPoint: "l;x" 20 389 basechar 0
AnchorPoint: "l;o" 0 215 basechar 0
AnchorPoint: "r;bl" 767 10 basechar 0
AnchorPoint: "r;x" 767 389 basechar 0
AnchorPoint: "r;o" 787 215 basechar 0
LayerCount: 3
Fore
SplineSet
19 244 m 2
 768 244 l 2
 780 244 782 232 782 218 c 0
 782 204 780 193 768 193 c 2
 19 193 l 2
 6 193 5 205 5 220 c 0
 5 234 7 244 19 244 c 2
EndSplineSet
EndChar

StartChar: semicolon
Encoding: 59 59 58
Width: 272
VWidth: 250
Flags: W
HStem: -170 22<54.0713 81.6306> 0 85<65.9325 143.66> 312 96<105.44 186.56>
VStem: 98 96<319.44 400.56> 147 58<-91.0371 1.61554>
AnchorPoint: "l;bl" 0 10 basechar 0
AnchorPoint: "l;x" 0 389 basechar 0
AnchorPoint: "l;o" 0 215 basechar 0
AnchorPoint: "l;lo" 0 -204 basechar 0
AnchorPoint: "r;bl" 272 10 basechar 0
AnchorPoint: "r;x" 272 389 basechar 0
AnchorPoint: "r;o" 272 215 basechar 0
AnchorPoint: "r;lo" 272 -204 basechar 0
LayerCount: 3
Fore
SplineSet
92 0 m 0xe8
 68 0 56 20 56 38 c 0
 56 60 79 85 115 85 c 0
 159 85 205 62 205 -20 c 0
 205 -108 111 -170 65 -170 c 0
 59 -170 54 -165 54 -160 c 0
 54 -155 58 -150 62 -148 c 0
 103 -131 147 -93 147 -34 c 0
 147 -25 140 2 122 2 c 0
 116 2 109 0 92 0 c 0xe8
98 360 m 0xf0
 98 387 119 408 146 408 c 0
 173 408 194 387 194 360 c 0
 194 333 173 312 146 312 c 0
 119 312 98 333 98 360 c 0xf0
EndSplineSet
EndChar

StartChar: colon
Encoding: 58 58 59
Width: 220
VWidth: 250
Flags: W
HStem: -13 96<64.4403 145.56> 312 96<64.4403 145.56>
VStem: 57 96<-5.55973 75.5597 319.44 400.56>
AnchorPoint: "l;bl" 0 10 basechar 0
AnchorPoint: "l;x" 0 389 basechar 0
AnchorPoint: "l;o" 0 215 basechar 0
AnchorPoint: "r;bl" 220 10 basechar 0
AnchorPoint: "r;x" 220 389 basechar 0
AnchorPoint: "r;o" 220 215 basechar 0
LayerCount: 3
Fore
SplineSet
57 360 m 0
 57 387 78 408 105 408 c 0
 132 408 153 387 153 360 c 0
 153 333 132 312 105 312 c 0
 78 312 57 333 57 360 c 0
57 35 m 0
 57 62 78 83 105 83 c 0
 132 83 153 62 153 35 c 0
 153 8 132 -13 105 -13 c 0
 78 -13 57 8 57 35 c 0
EndSplineSet
EndChar

StartChar: question
Encoding: 63 63 60
Width: 392
VWidth: 250
Flags: W
HStem: -13 96<150.44 231.56> 577 39<128 227.407>
VStem: 105 44<158.089 281> 143 96<-5.55973 75.5597> 291 59<343.746 484.697>
AnchorPoint: "l;bl" 0 10 basechar 0
AnchorPoint: "l;x" 0 389 basechar 0
AnchorPoint: "l;hi" 0 675 basechar 0
AnchorPoint: "l;o" 0 215 basechar 0
AnchorPoint: "l;lo" 0 -204 basechar 0
AnchorPoint: "r;bl" 392 10 basechar 0
AnchorPoint: "r;x" 392 389 basechar 0
AnchorPoint: "r;hi" 392 675 basechar 0
AnchorPoint: "r;o" 392 215 basechar 0
AnchorPoint: "r;lo" 392 -204 basechar 0
LayerCount: 3
Fore
SplineSet
82 567 m 0xe8
 82 598 111 616 145 616 c 0
 274 616 350 496 350 374 c 0
 350 280 272 245 164 245 c 0
 154 245 149 226 149 216 c 0
 149 181 161 155 167 140 c 0
 171 131 169 123 158 123 c 0
 154 123 150 124 147 127 c 0
 113 163 105 231 105 264 c 0
 105 298 133 299 172 303 c 0
 273 314 291 358 291 419 c 0
 291 501 238 577 195 577 c 0
 158 577 143 533 116 533 c 0
 99 533 82 547 82 567 c 0xe8
143 35 m 0xd8
 143 62 164 83 191 83 c 0
 218 83 239 62 239 35 c 0
 239 8 218 -13 191 -13 c 0
 164 -13 143 8 143 35 c 0xd8
EndSplineSet
EndChar

StartChar: exclam
Encoding: 33 33 61
Width: 264
VWidth: 0
Flags: W
HStem: -13 96<109.44 190.56> 643 20G<139 174>
VStem: 102 96<-5.55973 75.5597 386.587 646.656>
AnchorPoint: "l;bl" 0 10 basechar 0
AnchorPoint: "l;x" 0 389 basechar 0
AnchorPoint: "l;hi" 0 675 basechar 0
AnchorPoint: "l;o" 0 215 basechar 0
AnchorPoint: "l;lo" 0 -204 basechar 0
AnchorPoint: "r;bl" 264 10 basechar 0
AnchorPoint: "r;x" 264 389 basechar 0
AnchorPoint: "r;hi" 264 675 basechar 0
AnchorPoint: "r;o" 264 215 basechar 0
AnchorPoint: "r;lo" 264 -204 basechar 0
LayerCount: 3
Fore
SplineSet
108 576 m 2
 108 623 115 663 163 663 c 0
 185 663 202 648 202 628 c 0
 202 615 194 578 193 566 c 0
 178 438 173 371 168 181 c 0
 168 165 166 150 151 150 c 0
 135 150 132 164 131 181 c 0
 122 327 108 474 108 558 c 2
 108 576 l 2
102 35 m 0
 102 62 123 83 150 83 c 0
 177 83 198 62 198 35 c 0
 198 8 177 -13 150 -13 c 0
 123 -13 102 8 102 35 c 0
EndSplineSet
EndChar

StartChar: parenleft
Encoding: 40 40 62
Width: 430
VWidth: 250
Flags: W
HStem: -225 48<352.095 411.998>
VStem: 41 48<120.42 380.863>
AnchorPoint: "l;bl" 0 10 basechar 0
AnchorPoint: "l;x" 0 389 basechar 0
AnchorPoint: "l;hi" 0 675 basechar 0
AnchorPoint: "l;o" 0 215 basechar 0
AnchorPoint: "l;lo" 0 -204 basechar 0
AnchorPoint: "r;bl" 430 10 basechar 0
AnchorPoint: "r;x" 430 389 basechar 0
AnchorPoint: "r;hi" 430 675 basechar 0
AnchorPoint: "r;o" 430 215 basechar 0
AnchorPoint: "r;lo" 430 -204 basechar 0
LayerCount: 3
Fore
SplineSet
89 257 m 0
 89 50 213 -108 404 -177 c 0
 411 -179 413 -186 413 -194 c 0
 413 -207 406 -225 395 -225 c 0
 385 -225 336 -199 317 -189 c 0
 132 -95 41 63 41 262 c 0
 41 483 203 646 352 709 c 0
 377 719 392 727 406 727 c 0
 415 727 420 711 420 697 c 0
 420 680 406 676 391 671 c 0
 267 628 89 476 89 257 c 0
EndSplineSet
EndChar

StartChar: parenright
Encoding: 41 41 63
Width: 430
VWidth: 250
Flags: W
HStem: -225 48<18.1041 78.4997>
VStem: 342 48<120.42 380.863>
AnchorPoint: "l;bl" 0 10 basechar 0
AnchorPoint: "l;x" 0 389 basechar 0
AnchorPoint: "l;hi" 0 675 basechar 0
AnchorPoint: "l;o" 0 215 basechar 0
AnchorPoint: "l;lo" 0 -204 basechar 0
AnchorPoint: "r;bl" 430 10 basechar 0
AnchorPoint: "r;x" 430 389 basechar 0
AnchorPoint: "r;hi" 430 675 basechar 0
AnchorPoint: "r;o" 430 215 basechar 0
AnchorPoint: "r;lo" 430 -204 basechar 0
LayerCount: 3
Fore
SplineSet
342 257 m 0
 342 476 164 628 40 671 c 0
 25 676 10 680 10 697 c 0
 10 711 16 727 25 727 c 0
 39 727 54 719 79 709 c 0
 228 646 390 483 390 262 c 0
 390 63 298 -95 113 -189 c 0
 94 -199 46 -225 36 -225 c 0
 25 -225 17 -207 17 -194 c 0
 17 -186 20 -179 27 -177 c 0
 218 -108 342 50 342 257 c 0
EndSplineSet
EndChar

StartChar: numbersign
Encoding: 35 35 65
Width: 487
VWidth: 488
Flags: W
HStem: 124 43<31.0008 124.999 176.019 283.913 334.028 455.995> 312 43<31.0205 150.998 204.001 310 362.001 455.89>
VStem: 101 42<-66.9761 85.2285> 151 25<217.591 263.701> 161 43<355 514.895> 187 43<395.424 561.992> 261 66<-41.9377 107.501> 348 40<431.424 561.995>
DStem2: 132 169 194 305 0.141062 0.990001<9.46684 139.008>
AnchorPoint: "l;bl" 0 10 basechar 0
AnchorPoint: "l;x" 0 389 basechar 0
AnchorPoint: "l;hi" 0 675 basechar 0
AnchorPoint: "l;o" 0 215 basechar 0
AnchorPoint: "l;lo" 0 -204 basechar 0
AnchorPoint: "r;bl" 487 10 basechar 0
AnchorPoint: "r;x" 487 389 basechar 0
AnchorPoint: "r;hi" 487 675 basechar 0
AnchorPoint: "r;o" 487 215 basechar 0
AnchorPoint: "r;lo" 487 -204 basechar 0
LayerCount: 3
Fore
SplineSet
31 142 m 0xeb
 31 143 31 144 31 145 c 0
 31 159 31 167 45 167 c 2
 129 167 l 2
 131 167 132 167 132 169 c 0
 138 215 151 302 151 307 c 0
 151 311 148 312 144 312 c 2
 47 312 l 2
 37 312 31 314 31 332 c 0
 31 346 34 355 47 355 c 2
 151 355 l 2xf3
 157 355 161 357 161 362 c 0xeb
 188 552 184 550 187 555 c 0
 191 561 196 562 210 562 c 0
 217 562 230 561 230 550 c 0xe7
 230 544 204 366 204 360 c 0
 204 356 205 355 210 355 c 2
 310 355 l 2
 314 355 318 356 319 362 c 0
 346 552 345 552 348 556 c 0
 352 562 359 562 371 562 c 0
 379 562 388 562 388 552 c 0
 388 543 362 369 362 360 c 0
 362 357 363 355 367 355 c 2
 438 355 l 2
 452 355 456 346 456 329 c 0
 456 314 450 312 441 312 c 2
 358 312 l 2
 354 312 354 309 353 306 c 0
 347 262 334 177 334 173 c 0
 334 169 337 167 342 167 c 2
 439 167 l 2
 449 167 456 164 456 146 c 0
 456 131 452 124 439 124 c 2
 338 124 l 2
 329 124 328 119 327 113 c 0
 301 -66 309 -67 281 -67 c 0
 267 -67 261 -61 261 -54 c 0
 261 -48 284 113 284 118 c 0
 284 123 281 124 277 124 c 2
 210 124 l 2
 170 124 169 122 168 116 c 0
 144 -59 144 -56 143 -59 c 0
 139 -65 134 -67 120 -67 c 0
 111 -67 101 -64 101 -54 c 0
 101 -48 125 112 125 117 c 0
 125 122 123 124 117 124 c 2
 45 124 l 2
 32 124 31 132 31 142 c 0xeb
176 172 m 0
 176 168 179 167 184 167 c 2
 281 167 l 2
 285 167 290 167 291 174 c 0
 304 271 310 299 310 307 c 0
 310 310 310 312 304 312 c 2
 204 312 l 2xeb
 198 312 195 309 194 305 c 0
 188 261 176 177 176 172 c 0
EndSplineSet
EndChar

StartChar: dollar
Encoding: 36 36 66
Width: 536
VWidth: 250
Flags: W
HStem: 3 34<172.855 242.922>
VStem: 31 95<73.1792 175.62> 69 66<461.429 586.041> 238 44<681.111 718.96> 246 34<-147.96 2.04275 41.204 284.241 410.002 624> 246 34<-121 2.04275 41.204 284.241 410.002 641.998> 416 58<104.861 218.643>
AnchorPoint: "l;bl" 0 10 basechar 0
AnchorPoint: "l;x" 0 389 basechar 0
AnchorPoint: "l;hi" 0 675 basechar 0
AnchorPoint: "l;o" 0 215 basechar 0
AnchorPoint: "l;lo" 0 -204 basechar 0
AnchorPoint: "r;bl" 536 10 basechar 0
AnchorPoint: "r;x" 536 389 basechar 0
AnchorPoint: "r;hi" 536 675 basechar 0
AnchorPoint: "r;o" 536 215 basechar 0
AnchorPoint: "r;lo" 536 -204 basechar 0
LayerCount: 3
Fore
SplineSet
310 681 m 0xb2
 363 680 466 650 466 577 c 0
 466 556 443 539 422 539 c 0
 369 539 361 606 322 633 c 0
 315 638 303 641 294 643 c 0
 279 646 276 638 276 624 c 6
 278 406 l 6
 278 393 281 393 308 382 c 0
 363 358 474 329 474 192 c 0
 474 68 368 23 314 9 c 0
 285 2 279 7 279 -6 c 2
 283 -121 l 2
 283 -142 276 -148 264 -148 c 0
 252 -148 243 -140 243 -119 c 2
 243 -15 l 2
 243 8 241 0 201 3 c 0
 140 8 31 41 31 137 c 0
 31 164 51 184 77 184 c 0
 111 184 125 156 126 124 c 0
 126 115 127 102 130 95 c 0
 142 61 195 38 232 37 c 0
 243 37 246 41 246 50 c 2
 246 283 l 2xca
 246 310 242 303 198 323 c 0
 144 349 69 393 69 492 c 0
 69 613 155 664 202 675 c 0
 223 680 236 679 238 699 c 0
 239 712 250 719 261 719 c 0
 272 719 282 713 282 701 c 0
 282 682 285 681 310 681 c 0xb2
280 274 m 2
 280 59 l 2
 280 46 282 41 291 41 c 0
 295 41 302 43 310 45 c 0
 350 57 416 84 416 168 c 0
 416 222 356 257 316 275 c 0
 300 283 290 285 286 285 c 0
 282 285 280 283 280 274 c 2
218 639 m 0
 187 630 135 600 135 521 c 0xa2
 135 464 180 436 211 420 c 0
 225 413 232 410 236 410 c 0
 239 410 241 413 241 419 c 6
 240 634 l 6
 240 640 238 642 235 642 c 0
 232 642 227 642 218 639 c 0
EndSplineSet
EndChar

StartChar: percent
Encoding: 37 37 67
Width: 841
VWidth: 250
Flags: W
HStem: -171 24<534.82 600.466> 154 27<174.787 249.555> 204 28<579.134 656.933> 447 28<398.012 510.686> 520 30<219.38 301.413>
VStem: 68 72<214.064 389.045> 329 60<292.705 464.645> 422 74<-102.703 70.5088> 686 66<-17.5448 180.513>
AnchorPoint: "l;bl" 0 10 basechar 0
AnchorPoint: "l;x" 0 389 basechar 0
AnchorPoint: "l;hi" 0 675 basechar 0
AnchorPoint: "l;o" 0 215 basechar 0
AnchorPoint: "l;lo" 0 -204 basechar 0
AnchorPoint: "r;bl" 841 10 basechar 0
AnchorPoint: "r;x" 841 389 basechar 0
AnchorPoint: "r;hi" 841 675 basechar 0
AnchorPoint: "r;o" 841 215 basechar 0
AnchorPoint: "r;lo" 841 -204 basechar 0
LayerCount: 3
Fore
SplineSet
621 204 m 0
 541 204 496 74 496 -29 c 0
 496 -80 517 -147 568 -147 c 0
 641 -147 686 10 686 116 c 0
 686 175 653 204 621 204 c 0
637 232 m 0
 711 232 752 176 752 87 c 0
 752 -35 659 -171 552 -171 c 0
 475 -171 422 -100 422 -19 c 0
 422 63 504 232 637 232 c 0
262 520 m 0
 182 520 140 394 140 291 c 0
 140 247 158 181 209 181 c 0
 295 181 329 329 329 435 c 0
 329 494 294 520 262 520 c 0
391 439 m 0
 393 429 393 416 393 405 c 0
 393 283 299 154 192 154 c 0
 115 154 68 218 68 299 c 0
 68 381 146 550 279 550 c 0
 311 550 335 536 356 519 c 0
 386 493 414 475 453 475 c 0
 533 475 617 561 667 609 c 0
 670 612 682 627 693 627 c 0
 703 627 707 622 707 615 c 0
 707 612 706 609 701 601 c 0
 691 585 654 540 636 509 c 0
 631 500 292 -27 238 -114 c 0
 193 -185 186 -188 173 -188 c 0
 158 -188 144 -175 144 -159 c 0
 144 -141 163 -121 190 -81 c 0
 283 57 492 342 572 474 c 0
 575 480 581 490 572 490 c 0
 565 490 504 447 456 447 c 0
 438 447 424 449 411 454 c 0
 401 457 397 459 393 459 c 0
 390 459 389 458 389 454 c 0
 389 450 390 448 391 439 c 0
EndSplineSet
EndChar

StartChar: ampersand
Encoding: 38 38 68
Width: 700
VWidth: 250
Flags: W
HStem: -9 49<158.569 286.105> -1 41<601.336 691.828> 125 92<403.625 437.875> 375 36<563.587 648.974> 561 31<217.336 307.49>
VStem: 31 74<92.7562 228.251> 128 63<429.412 539.64> 338 61<428.025 538.887>
DStem2: 257 377 225 298 0.727491 -0.686117<6.98245 13.388 33.2993 236.223 282.164 386.705>
AnchorPoint: "l;bl" 0 10 basechar 0
AnchorPoint: "l;x" 0 389 basechar 0
AnchorPoint: "l;hi" 0 675 basechar 0
AnchorPoint: "l;o" 0 215 basechar 0
AnchorPoint: "r;bl" 700 10 basechar 0
AnchorPoint: "r;x" 700 389 basechar 0
AnchorPoint: "r;hi" 700 675 basechar 0
AnchorPoint: "r;o" 700 215 basechar 0
LayerCount: 3
Fore
SplineSet
269 592 m 0xbf
 346 592 399 553 399 489 c 0
 399 425 332 381 297 364 c 0
 286 358 280 356 280 353 c 0
 280 350 285 345 293 338 c 2
 413 230 l 2
 422 222 427 217 431 217 c 0
 435 217 440 222 447 232 c 0
 460 251 482 288 494 318 c 0
 500 333 504 345 504 353 c 0
 504 363 499 371 484 379 c 0
 479 382 474 386 474 393 c 0
 474 405 495 407 509 407 c 2
 549 407 l 2
 573 407 604 411 624 411 c 0
 641 411 649 410 649 394 c 0
 649 381 640 376 626 375 c 0
 604 373 584 370 570 362 c 0
 545 349 488 249 467 215 c 0
 461 205 457 199 457 194 c 0
 457 189 461 185 468 178 c 0
 498 150 574 79 628 40 c 0
 649 24 693 37 693 14 c 0
 693 6 687 -1 672 -1 c 0x7f
 639 -1 600 1 563 1 c 0
 514 1 475 0 447 0 c 0
 434 0 423 3 423 16 c 0
 423 37 479 27 479 48 c 0
 479 64 456 87 438 103 c 2
 424 115 l 2
 416 122 411 125 407 125 c 0
 401 125 396 117 383 101 c 0
 351 60 299 -9 196 -9 c 0
 90 -9 31 51 31 156 c 0
 31 248 121 301 166 321 c 0
 184 329 191 329 191 332 c 0
 191 335 183 341 172 357 c 0
 154 385 128 418 128 469 c 0
 128 557 200 592 269 592 c 0xbf
183 302 m 0
 152 282 105 239 105 167 c 0
 105 93 156 40 233 40 c 0xbf
 292 40 349 98 374 128 c 0
 382 138 385 142 385 145 c 0
 385 149 380 152 372 160 c 2
 225 298 l 2
 215 307 211 313 206 313 c 0
 202 313 195 310 183 302 c 0
263 561 m 0
 216 561 191 527 191 486 c 0
 191 445 237 396 257 377 c 0
 263 372 265 369 268 369 c 0
 271 369 274 372 281 377 c 0
 301 392 338 424 338 485 c 0
 338 527 306 561 263 561 c 0
EndSplineSet
EndChar

StartChar: zero
Encoding: 48 48 70
Width: 470
VWidth: 250
Flags: W
HStem: -19 38<162.606 320.725> 370 36<154.153 310.839>
VStem: 19 48<105.533 286.564> 403 49<101.423 284.473>
AnchorPoint: "l;bl" 0 10 basechar 0
AnchorPoint: "l;x" 0 389 basechar 0
AnchorPoint: "l;hi" 0 675 basechar 0
AnchorPoint: "l;o" 0 215 basechar 0
AnchorPoint: "l;lo" 0 -204 basechar 0
AnchorPoint: "r;bl" 470 10 basechar 0
AnchorPoint: "r;x" 470 389 basechar 0
AnchorPoint: "r;hi" 470 675 basechar 0
AnchorPoint: "r;o" 470 215 basechar 0
AnchorPoint: "r;lo" 470 -204 basechar 0
LayerCount: 3
Fore
SplineSet
239 406 m 0
 365 406 452 321 452 203 c 0
 452 67 372 -19 233 -19 c 0
 110 -19 19 59 19 187 c 0
 19 321 111 406 239 406 c 0
241 19 m 0
 344 19 403 95 403 193 c 0
 403 290 343 370 226 370 c 0
 136 370 67 302 67 191 c 0
 67 88 147 19 241 19 c 0
EndSplineSet
Layer: 2
SplineSet
20 189 m 4
 20 323 112 405 246 405 c 4
 367 405 449 318 449 203 c 4
 449 68 371 -17 233 -17 c 4
 108 -17 20 61 20 189 c 4
247 15 m 4
 348 15 406 89 406 186 c 4
 406 286 348 372 227 372 c 4
 144 372 63 303 63 191 c 4
 63 90 141 15 247 15 c 4
EndSplineSet
EndChar

StartChar: one
Encoding: 49 49 71
Width: 470
VWidth: 250
Flags: W
HStem: 0 31<92.0175 192.308 271.996 373.919> 378 33<100.036 193.45 275.299 369.983>
VStem: 193 76<33.4101 373.668>
AnchorPoint: "l;bl" 0 10 basechar 0
AnchorPoint: "l;x" 0 389 basechar 0
AnchorPoint: "l;hi" 0 675 basechar 0
AnchorPoint: "l;o" 0 215 basechar 0
AnchorPoint: "l;lo" 0 -204 basechar 0
AnchorPoint: "r;bl" 470 10 basechar 0
AnchorPoint: "r;x" 470 389 basechar 0
AnchorPoint: "r;hi" 470 675 basechar 0
AnchorPoint: "r;o" 470 215 basechar 0
AnchorPoint: "r;lo" 470 -204 basechar 0
LayerCount: 3
Fore
SplineSet
357 411 m 0
 364 411 370 403 370 395 c 0
 370 382 359 378 349 378 c 2
 330 378 l 2
 303 378 274 377 274 354 c 0
 274 227 269 108 269 60 c 0
 269 41 282 32 304 32 c 0
 323 32 343 31 357 31 c 0
 367 31 374 24 374 14 c 0
 374 4 369 -2 359 -2 c 0
 304 -2 286 0 228 0 c 2
 106 0 l 2
 96 0 92 7 92 15 c 0
 92 22 98 31 106 31 c 2
 155 31 l 2
 175 31 192 32 193 51 c 0
 197 172 199 228 199 348 c 0
 199 379 141 378 111 382 c 0
 103 383 100 386 100 396 c 0
 100 406 110 409 116 409 c 0
 126 409 202 407 232 407 c 0
 264 407 349 411 357 411 c 0
EndSplineSet
EndChar

StartChar: two
Encoding: 50 50 72
Width: 470
VWidth: 250
Flags: W
HStem: 0 61<155.005 455.942> 365 60<94.5818 197.989>
VStem: 224 65<225.766 339.045>
AnchorPoint: "l;bl" 0 10 basechar 0
AnchorPoint: "l;x" 0 389 basechar 0
AnchorPoint: "l;hi" 0 675 basechar 0
AnchorPoint: "l;o" 0 215 basechar 0
AnchorPoint: "l;lo" 0 -204 basechar 0
AnchorPoint: "r;bl" 470 10 basechar 0
AnchorPoint: "r;x" 470 389 basechar 0
AnchorPoint: "r;hi" 470 675 basechar 0
AnchorPoint: "r;o" 470 215 basechar 0
AnchorPoint: "r;lo" 470 -204 basechar 0
LayerCount: 3
Fore
SplineSet
224 273 m 0
 224 335 186 365 143 365 c 0
 113 365 87 350 71 332 c 0
 65 325 57 312 48 312 c 0
 41 312 36 316 36 325 c 0
 36 377 108 425 171 425 c 0
 228 425 289 403 289 316 c 0
 289 213 196 116 166 85 c 0
 161 79 155 73 155 69 c 0
 155 64 162 61 173 61 c 0
 184 61 344 64 439 64 c 0
 455 64 456 55 456 40 c 2
 456 25 l 2
 456 10 453 1 441 1 c 0
 394 0 352 0 311 0 c 2
 71 0 l 2
 60 0 52 1 52 9 c 0
 52 17 56 23 63 29 c 0
 103 63 122 72 157 119 c 0
 193 168 224 221 224 273 c 0
EndSplineSet
EndChar

StartChar: three
Encoding: 51 51 73
Width: 470
VWidth: 250
Flags: W
HStem: -257 34<56.1938 178.406> 369 56<102.465 215.066>
VStem: 246 71<239.5 339.338> 294 76<-103.524 49.4452>
AnchorPoint: "l;bl" 0 10 basechar 0
AnchorPoint: "l;x" 0 389 basechar 0
AnchorPoint: "l;hi" 0 675 basechar 0
AnchorPoint: "l;o" 0 215 basechar 0
AnchorPoint: "l;lo" 0 -204 basechar 0
AnchorPoint: "r;bl" 470 10 basechar 0
AnchorPoint: "r;x" 470 389 basechar 0
AnchorPoint: "r;hi" 470 675 basechar 0
AnchorPoint: "r;o" 470 215 basechar 0
AnchorPoint: "r;lo" 470 -204 basechar 0
LayerCount: 3
Fore
SplineSet
56 -238 m 0xd0
 56 -226 67 -223 73 -223 c 0
 82 -223 93 -224 108 -224 c 0
 206 -224 294 -128 294 -21 c 0xd0
 294 80 222 82 144 82 c 0
 135 82 131 87 131 93 c 0
 131 98 134 104 140 108 c 0
 202 147 246 210 246 290 c 0
 246 336 200 369 152 369 c 0
 134 369 114 364 98 355 c 0
 93 352 84 345 76 345 c 0
 69 345 62 350 62 356 c 0
 62 378 89 395 100 402 c 0
 133 422 172 425 191 425 c 0
 255 425 317 390 317 324 c 0xe0
 317 237 260 190 230 160 c 0
 223 153 219 148 219 145 c 0
 219 141 225 139 240 136 c 0
 322 122 370 68 370 -12 c 0
 370 -141 247 -257 101 -257 c 0
 83 -257 56 -255 56 -238 c 0xd0
EndSplineSet
EndChar

StartChar: four
Encoding: 52 52 74
Width: 470
VWidth: 250
Flags: W
HStem: 9 50<85.0044 283.871 342.003 439>
VStem: 284 65<82.4447 328.996> 284 58<-241.26 8.96875 61.1996 301.336>
AnchorPoint: "l;bl" 0 10 basechar 0
AnchorPoint: "l;x" 0 389 basechar 0
AnchorPoint: "l;hi" 0 675 basechar 0
AnchorPoint: "l;o" 0 215 basechar 0
AnchorPoint: "l;lo" 0 -204 basechar 0
AnchorPoint: "r;bl" 470 10 basechar 0
AnchorPoint: "r;x" 470 389 basechar 0
AnchorPoint: "r;hi" 470 675 basechar 0
AnchorPoint: "r;o" 470 215 basechar 0
AnchorPoint: "r;lo" 470 -204 basechar 0
LayerCount: 3
Fore
SplineSet
261 316 m 0xc0
 199 238 147 165 92 87 c 0
 88 81 85 76 85 71 c 0
 85 64 91 59 105 59 c 2
 256 59 l 2
 283 59 284 63 284 85 c 2
 284 311 l 2
 284 324 281 329 277 329 c 0
 273 329 267 324 261 316 c 0xc0
342 77 m 0xa0
 342 63 346 61 362 61 c 2
 424 61 l 2
 436 61 439 56 439 45 c 2
 439 28 l 2
 439 16 436 9 419 9 c 2
 362 9 l 2
 345 9 342 9 342 -6 c 2xa0
 340 -219 l 2
 340 -235 334 -239 323 -241 c 0
 311 -243 300 -245 293 -245 c 0
 284 -245 280 -242 280 -228 c 2
 286 -8 l 2
 286 8 282 9 269 9 c 2
 45 7 l 2
 27 7 20 11 20 18 c 0
 20 28 33 45 43 60 c 0
 143 214 225 327 327 448 c 0
 332 453 334 454 338 454 c 0
 344 454 349 451 349 435 c 0xc0
 349 319 345 193 342 77 c 0xa0
EndSplineSet
EndChar

StartChar: five
Encoding: 53 53 75
Width: 470
VWidth: 250
Flags: W
HStem: -257 21<103.148 167.291> 400 20G<187 192>
VStem: 90 50<268.565 297.949> 305 67<-107.019 51.3984>
DStem2: 198 419 196 355 0.989262 -0.146151<-6.97742 149.105>
AnchorPoint: "l;bl" 0 10 basechar 0
AnchorPoint: "l;x" 0 389 basechar 0
AnchorPoint: "l;hi" 0 675 basechar 0
AnchorPoint: "l;o" 0 215 basechar 0
AnchorPoint: "l;lo" 0 -204 basechar 0
AnchorPoint: "r;bl" 470 10 basechar 0
AnchorPoint: "r;x" 470 389 basechar 0
AnchorPoint: "r;hi" 470 675 basechar 0
AnchorPoint: "r;o" 470 215 basechar 0
AnchorPoint: "r;lo" 470 -204 basechar 0
LayerCount: 3
Fore
SplineSet
123 -257 m 0
 116 -257 103 -255 103 -245 c 0
 103 -240 106 -236 112 -236 c 0
 214 -236 305 -135 305 -34 c 0
 305 66 205 179 102 234 c 0
 94 238 90 243 90 252 c 0
 90 258 95 267 98 272 c 0
 112 297 129 333 147 372 c 0
 155 388 162 399 168 409 c 0
 173 418 183 420 191 420 c 0
 193 420 196 419 198 419 c 0
 238 413 299 404 311 403 c 0
 319 402 319 403 327 403 c 0
 332 403 344 403 348 403 c 0
 359 403 361 394 356 385 c 2
 333 344 l 2
 330 339 325 336 319 337 c 0
 281 340 220 352 196 355 c 0
 183 357 177 358 171 350 c 0
 155 325 150 315 140 293 c 0
 137 286 142 279 148 276 c 0
 238 226 372 114 372 -13 c 0
 372 -156 240 -257 123 -257 c 0
EndSplineSet
EndChar

StartChar: six
Encoding: 54 54 76
Width: 470
VWidth: 250
Flags: W
HStem: -24 34<191.197 307.452> 278 55<163.903 297.706> 602 37<344.102 421.641>
VStem: 31 63<122.403 351.799> 370 44<73.7947 205.429>
AnchorPoint: "l;bl" 0 10 basechar 0
AnchorPoint: "l;x" 0 389 basechar 0
AnchorPoint: "l;hi" 0 675 basechar 0
AnchorPoint: "l;o" 0 215 basechar 0
AnchorPoint: "l;lo" 0 -204 basechar 0
AnchorPoint: "r;bl" 470 10 basechar 0
AnchorPoint: "r;x" 470 389 basechar 0
AnchorPoint: "r;hi" 470 675 basechar 0
AnchorPoint: "r;o" 470 215 basechar 0
AnchorPoint: "r;lo" 470 -204 basechar 0
LayerCount: 3
Fore
SplineSet
226 -24 m 0
 99 -24 31 88 31 240 c 0
 31 433 191 605 369 636 c 0
 376 637 387 639 397 639 c 0
 410 639 422 636 422 623 c 0
 422 612 408 606 392 602 c 0
 240 563 94 403 94 249 c 0
 94 132 141 10 257 10 c 0
 313 10 370 63 370 132 c 0
 370 218 297 278 217 278 c 0
 169 278 155 266 129 254 c 0
 124 252 121 261 124 269 c 0
 138 309 200 333 242 333 c 0
 329 333 414 286 414 174 c 0
 414 53 338 -24 226 -24 c 0
EndSplineSet
EndChar

StartChar: seven
Encoding: 55 55 77
Width: 470
VWidth: 250
Flags: W
HStem: 338 62<54.9519 382.995>
VStem: 95 56<-224.373 -170.19>
AnchorPoint: "l;bl" 0 10 basechar 0
AnchorPoint: "l;x" 0 389 basechar 0
AnchorPoint: "l;hi" 0 675 basechar 0
AnchorPoint: "l;o" 0 215 basechar 0
AnchorPoint: "l;lo" 0 -204 basechar 0
AnchorPoint: "r;bl" 470 10 basechar 0
AnchorPoint: "r;x" 470 389 basechar 0
AnchorPoint: "r;hi" 470 675 basechar 0
AnchorPoint: "r;o" 470 215 basechar 0
AnchorPoint: "r;lo" 470 -204 basechar 0
LayerCount: 3
Fore
SplineSet
439 384 m 0
 439 379 430 364 426 356 c 0
 316 139 227 -45 151 -209 c 0
 146 -220 134 -225 122 -225 c 0
 109 -225 95 -219 95 -209 c 0
 95 -207 95 -203 97 -200 c 2
 377 316 l 2
 381 323 383 328 383 331 c 0
 383 337 376 338 363 338 c 2
 75 333 l 2
 64 333 61 314 48 314 c 0
 40 314 38 320 38 327 c 0
 38 333 49 368 54 381 c 0
 59 393 65 399 83 399 c 0
 107 399 370 400 409 400 c 0
 433 400 439 398 439 384 c 0
EndSplineSet
Layer: 2
SplineSet
74 390 m 6
 408 392 l 6
 427 392 429 385 429 376 c 4
 429 371 421 356 417 348 c 4
 309 136 222 -44 148 -204 c 4
 143 -215 131 -220 119 -220 c 4
 106 -220 93 -214 93 -204 c 4
 93 -202 93 -199 95 -196 c 6
 369 309 l 6
 373 316 375 321 375 324 c 4
 375 330 368 331 355 331 c 6
 73 326 l 6
 62 326 60 307 47 307 c 4
 39 307 37 313 37 320 c 4
 37 325 43 344 45 351 c 6
 53 373 l 6
 57 386 68 390 74 390 c 6
EndSplineSet
EndChar

StartChar: eight
Encoding: 56 56 78
Width: 470
VWidth: 250
Flags: W
HStem: -19 33<182.554 302.429> 605 37<162.931 281.58>
VStem: 62 46<84.0542 224.336> 64 56<441.38 558.631> 335 52<422.233 556.767> 359 49<68.8461 191.877>
AnchorPoint: "l;bl" 0 10 basechar 0
AnchorPoint: "l;x" 0 389 basechar 0
AnchorPoint: "l;hi" 0 675 basechar 0
AnchorPoint: "l;o" 0 215 basechar 0
AnchorPoint: "l;lo" 0 -204 basechar 0
AnchorPoint: "r;bl" 470 10 basechar 0
AnchorPoint: "r;x" 470 389 basechar 0
AnchorPoint: "r;hi" 470 675 basechar 0
AnchorPoint: "r;o" 470 215 basechar 0
AnchorPoint: "r;lo" 470 -204 basechar 0
LayerCount: 3
Fore
SplineSet
408 157 m 0xc4
 408 58 338 -19 228 -19 c 0
 136 -19 62 52 62 145 c 0xe4
 62 227 126 278 157 300 c 0
 167 307 173 309 173 310 c 0
 173 311 169 313 160 319 c 0
 130 340 64 395 64 479 c 0
 64 571 140 642 232 642 c 0
 316 642 387 589 387 501 c 0xd8
 387 423 329 372 297 352 c 0
 286 345 280 340 280 338 c 0
 280 335 288 332 301 324 c 0
 339 303 408 257 408 157 c 0xc4
170 286 m 0
 146 267 108 217 108 160 c 0
 108 86 166 14 241 14 c 0
 312 14 359 69 359 131 c 0
 359 207 264 255 204 292 c 0
 196 297 192 300 189 300 c 0
 185 300 181 295 170 286 c 0
335 489 m 0xd8
 335 549 289 605 220 605 c 0
 157 605 120 556 120 499 c 0
 120 436 201 383 240 362 c 0
 252 355 257 351 261 351 c 0
 264 351 267 355 276 362 c 0
 296 378 335 419 335 489 c 0xd8
EndSplineSet
EndChar

StartChar: nine
Encoding: 57 57 79
Width: 470
VWidth: 250
Flags: W
HStem: -257 27<53.1294 104.41> 62 49<179.517 295.042> 398 27<165.974 267.486>
VStem: 51 49<194.5 331.374> 372 55<50.7583 282.405>
AnchorPoint: "l;bl" 0 10 basechar 0
AnchorPoint: "l;x" 0 389 basechar 0
AnchorPoint: "l;hi" 0 675 basechar 0
AnchorPoint: "l;o" 0 215 basechar 0
AnchorPoint: "l;lo" 0 -204 basechar 0
AnchorPoint: "r;bl" 470 10 basechar 0
AnchorPoint: "r;x" 470 389 basechar 0
AnchorPoint: "r;hi" 470 675 basechar 0
AnchorPoint: "r;o" 470 215 basechar 0
AnchorPoint: "r;lo" 470 -204 basechar 0
LayerCount: 3
Fore
SplineSet
225 425 m 0
 367 425 427 300 427 138 c 0
 427 6 356 -126 248 -199 c 0
 198 -234 117 -255 65 -257 c 0
 58 -257 53 -250 53 -245 c 0
 53 -236 64 -233 72 -230 c 0
 128 -212 194 -171 248 -115 c 0
 320 -41 372 69 372 167 c 0
 372 274 317 398 213 398 c 0
 149 398 100 335 100 271 c 0
 100 186 174 111 251 111 c 0
 291 111 316 125 330 142 c 0
 334 147 345 152 345 139 c 0
 345 131 338 117 328 108 c 0
 290 72 247 62 204 62 c 0
 118 62 51 132 51 239 c 0
 51 341 121 425 225 425 c 0
EndSplineSet
EndChar

StartChar: ae
Encoding: 230 230 80
Width: 663
VWidth: 0
Flags: W
HStem: -16 69<380.491 530.778> -11 55<75.5 180.439> 286 30<357.007 511.587> 396 42<151.895 247.18 401.881 533.067>
VStem: 27 80<19.5 99.7885 275.861 330.143> 263 94<316.001 361.883> 263 73<94.5039 192.994 219.001 286.172> 546 84<312 361.282>
AnchorPoint: "r;o" 663 215 basechar 0
AnchorPoint: "r;x" 653 389 basechar 0
AnchorPoint: "r;bl" 653 10 basechar 0
AnchorPoint: "l;o" 0 215 basechar 0
AnchorPoint: "l;x" 10 389 basechar 0
AnchorPoint: "l;bl" 0 10 basechar 0
LayerCount: 3
Fore
SplineSet
243 193 m 0x79
 229 193 107 145 107 78 c 0
 107 54 128 44 150 44 c 0
 176 44 191 54 209 65 c 0
 236 80 260 103 260 135 c 2
 260 174 l 2
 260 185 251 193 243 193 c 0x79
32 284 m 0
 32 344 135 438 238 438 c 0
 276 438 319 413 332 367 c 1
 376 413 428 433 472 433 c 0
 517 433 553 421 583 391 c 0
 611 363 630 330 630 317 c 0
 630 307 621 298 603 297 c 2
 353 286 l 2
 342 286 336 267 336 249 c 2
 336 151 l 2
 336 93 390 53 463 53 c 0
 532 53 584 92 603 101 c 0
 612 105 625 101 620 85 c 0
 612 60 542 -16 436 -16 c 0xbb
 352 -16 307 10 278 58 c 0
 270 71 266 78 261 78 c 0
 256 78 249 71 239 60 c 0
 206 22 165 -11 89 -11 c 0
 62 -11 27 1 27 38 c 0
 27 127 157 194 245 219 c 0
 258 223 263 221 263 240 c 2x7b
 263 326 l 2x7d
 263 367 240 396 199 396 c 0
 152 396 122 365 113 335 c 0
 103 303 102 271 65 271 c 0
 49 271 32 273 32 284 c 0
369 350 m 0
 362 340 357 329 357 324 c 0x3d
 357 317 367 316 374 316 c 0
 378 316 424 321 467 326 c 0
 508 331 546 331 546 349 c 0
 546 379 499 402 467 402 c 0
 428 402 386 376 369 350 c 0
EndSplineSet
Layer: 2
SplineSet
32 284 m 4
 32 344 135 438 238 438 c 4
 276 438 319 413 332 367 c 5
 376 413 428 433 472 433 c 4
 517 433 553 421 583 391 c 4
 611 363 630 330 630 317 c 4
 630 307 621 298 603 297 c 6
 353 286 l 6
 342 286 336 267 336 249 c 6
 336 151 l 6
 336 93 390 53 463 53 c 4
 532 53 584 92 603 101 c 4
 612 105 625 101 620 85 c 4
 612 60 542 -16 436 -16 c 4xbb
 352 -16 307 10 278 58 c 4
 270 71 266 78 261 78 c 4
 256 78 249 71 239 60 c 4
 206 22 165 -11 89 -11 c 4
 62 -11 27 1 27 38 c 4
 27 127 157 193 245 218 c 4
 258 222 263 221 263 240 c 6x7b
 263 326 l 6x7d
 263 367 240 396 199 396 c 4
 152 396 122 365 113 335 c 4
 103 303 102 271 65 271 c 4
 49 271 32 273 32 284 c 4
EndSplineSet
EndChar

StartChar: oe
Encoding: 339 339 81
Width: 785
VWidth: 0
Flags: W
HStem: -21 34<190.055 311.686> -19 70<531.087 664.348> 288 28<480.007 616.627> 403 33<175.162 303.751 534.155 641.217>
VStem: 29 82<108.477 309.358> 389 74<130.426 284.656> 669 84<315 365.377>
AnchorPoint: "l;bl" 20 10 basechar 0
AnchorPoint: "l;x" 20 389 basechar 0
AnchorPoint: "l;o" 0 215 basechar 0
AnchorPoint: "r;bl" 775 10 basechar 0
AnchorPoint: "r;x" 775 389 basechar 0
AnchorPoint: "r;o" 785 215 basechar 0
LayerCount: 3
Fore
SplineSet
492 350 m 0x3e
 485 340 480 329 480 324 c 0
 480 317 490 316 497 316 c 0
 518 316 669 330 669 349 c 0
 669 379 622 403 590 403 c 0
 551 403 509 376 492 350 c 0x3e
248 13 m 0xbe
 363 13 389 135 389 208 c 0
 389 316 319 407 243 407 c 0
 165 407 111 344 111 237 c 0
 111 114 156 13 248 13 c 0xbe
243 -21 m 0
 138 -21 29 48 29 206 c 0
 29 342 124 438 256 438 c 0
 330 438 396 409 436 349 c 1
 472 400 524 436 595 436 c 0
 644 436 679 420 709 391 c 0
 736 365 753 333 753 320 c 0
 753 310 744 300 726 299 c 2
 475 288 l 2
 464 288 463 267 463 249 c 0
 463 151 491 51 612 51 c 0
 678 51 707 90 726 99 c 0
 735 103 742 92 740 85 c 0
 730 56 681 -19 575 -19 c 0x7e
 504 -19 456 13 425 60 c 1
 380 3 310 -21 243 -21 c 0
EndSplineSet
EndChar

StartChar: OE
Encoding: 338 338 82
Width: 992
VWidth: 0
Flags: W
HStem: -12 41<280.193 472.522> 0 46<576.609 844.708> 337 33<572.134 774.837> 632 39<274.951 459.223 567.823 845.838>
VStem: 41 85<197.589 472.113> 485 87<46.6954 337> 485 82<370.005 617.404> 796 32<250.137 328.827 389.5 479.947> 866 39<528.459 611.716> 912 39<133 164.817>
AnchorPoint: "l;bl" 0 10 basechar 0
AnchorPoint: "l;x" 0 389 basechar 0
AnchorPoint: "l;hi" 0 675 basechar 0
AnchorPoint: "l;o" 0 215 basechar 0
AnchorPoint: "r;bl" 992 10 basechar 0
AnchorPoint: "r;x" 992 389 basechar 0
AnchorPoint: "r;hi" 992 675 basechar 0
AnchorPoint: "r;o" 992 215 basechar 0
LayerCount: 3
Fore
SplineSet
828 362 m 2xbbc0
 828 327 830 267 830 267 c 2
 830 259 828 249 820 249 c 0
 808 249 804 253 800 275 c 0
 794 306 796 336 752 336 c 2
 593 337 l 2
 573 337 572 329 572 318 c 0
 572 236 576 216 576 82 c 0
 576 62 578 46 597 46 c 2
 712 48 l 2
 793 49 878 61 906 120 c 2
 912 133 l 2
 918 146 922 165 933 165 c 0
 950 165 951 149 951 136 c 0
 951 112 942 81 939 63 c 0
 935 39 934 27 933 18 c 0
 932 9 921 2 913 2 c 0
 874 2 833 4 794 4 c 2
 535 0 l 2x7dc0
 481 -1 393 -12 372 -12 c 0
 188 -12 41 82 41 331 c 0
 41 558 175 671 406 671 c 0
 432 671 467 669 500 669 c 0
 576 669 756 677 861 677 c 0
 877 677 892 669 893 657 c 2
 905 552 l 2
 907 535 898 528 889 528 c 0
 870 528 870 554 866 570 c 0
 853 621 832 635 762 635 c 2
 610 633 l 2
 591 633 567 630 567 606 c 2
 567 414 l 2
 567 377 570 370 587 370 c 0
 630 370 673 373 716 375 c 0
 780 378 796 392 796 431 c 2
 796 455 l 2
 796 470 798 479 812 480 c 0
 820 480 828 478 828 465 c 2
 828 362 l 2xbbc0
483 62 m 0
 485 81 485 152 485 236 c 0
 485 370 484 537 481 584 c 0
 478 631 428 632 380 632 c 0
 189 632 126 494 126 329 c 0
 126 144 238 29 365 29 c 0xbdc0
 392 29 481 36 483 62 c 0
EndSplineSet
EndChar

StartChar: AE
Encoding: 198 198 83
Width: 1002
VWidth: 0
Flags: W
HStem: 0 46<574.922 725.875> 0 33<26.2005 92.4179 192 256.146 395.047 477.574> 272 41<328.991 483.024> 336 34<568.105 785.051> 631 44<386.029 461.992 567.149 851.829>
VStem: 26 140<6.5 66> 481 93<46.6475 277.531 313 315.608> 485 82<88.1299 277.625 313 335.873 370.005 564.995> 801 32<223.42 279 427 465.819> 875 41<511.318 606.261> 928 33<119.388 171.744>
AnchorPoint: "l;bl" 0 10 basechar 0
AnchorPoint: "l;x" 125 389 basechar 0
AnchorPoint: "l;hi" 205 675 basechar 0
AnchorPoint: "l;o" 75 215 basechar 0
AnchorPoint: "r;bl" 1002 10 basechar 0
AnchorPoint: "r;x" 1002 389 basechar 0
AnchorPoint: "r;hi" 1002 675 basechar 0
AnchorPoint: "r;o" 1002 215 basechar 0
LayerCount: 3
Fore
SplineSet
329 333 m 0x3de0
 329 331 316 313 331 313 c 2
 470 313 l 2
 478 313 483 325 483 326 c 0
 483 332 485 474 485 539 c 0
 485 558 483 565 480 565 c 0
 476 565 469 556 461 544 c 0
 419 481 329 338 329 333 c 0x3de0
481 59 m 0x7ee0
 483 75 485 179 485 254 c 0
 485 265 483 278 474 278 c 2
 304 272 l 2
 290 272 278 258 265 234 c 0
 232 172 166 75 166 57 c 0
 166 45 175 36 192 35 c 2
 219 33 l 2
 238 32 257 26 257 12 c 0
 257 2 249 -6 231 -6 c 0
 210 -6 178 0 147 0 c 0
 129 0 69 -5 55 -5 c 0
 37 -5 26 -1 26 14 c 0
 26 27 37 30 57 36 c 0
 97 47 101 50 136 105 c 2
 460 612 l 2
 461 614 462 616 462 618 c 0
 462 626 451 634 435 634 c 2
 409 634 l 2
 391 634 386 640 386 654 c 0
 386 669 396 675 422 675 c 0
 438 675 465 673 526 673 c 0
 602 673 775 675 880 675 c 0
 896 675 911 667 911 655 c 0
 913 616 916 579 916 540 c 0
 916 523 908 511 899 511 c 0
 878 511 879 539 875 555 c 0
 863 604 859 631 763 631 c 0
 707 631 649 631 594 629 c 0
 580 628 567 623 567 606 c 2
 567 414 l 2
 567 377 569 370 586 370 c 0
 629 370 685 373 728 375 c 0
 792 378 790 383 800 427 c 2
 805 450 l 2
 807 461 812 466 819 466 c 0
 827 466 834 460 834 448 c 0
 834 430 833 389 833 358 c 2
 833 240 l 2
 833 232 830 223 822 223 c 0
 811 223 802 227 801 248 c 2
 799 279 l 2
 797 307 791 336 752 336 c 2
 593 336 l 2
 573 336 567 329 567 318 c 0x7de0
 567 267 574 214 574 82 c 0
 574 62 578 46 597 46 c 2xbee0
 712 48 l 2
 788 49 867 50 903 104 c 0
 913 119 920 139 928 156 c 0
 932 165 939 172 947 172 c 0
 957 172 961 162 961 151 c 0
 961 137 952 84 949 63 c 0
 945 39 944 27 943 18 c 0
 942 9 932 2 924 2 c 0
 787 0 652 0 515 0 c 2
 407 0 l 2
 399 0 395 7 395 15 c 0
 395 23 399 32 408 33 c 0
 449 37 479 35 481 59 c 0x7ee0
EndSplineSet
EndChar

StartChar: quoteright
Encoding: 8217 8217 84
Width: 226
VWidth: 0
Flags: W
HStem: 518 174<72 109.683>
VStem: 93 61<565.543 643.5>
AnchorPoint: "l;o" 0 215 basechar 0
AnchorPoint: "l;hi" 0 675 basechar 0
AnchorPoint: "l;x" 0 389 basechar 0
AnchorPoint: "r;o" 226 215 basechar 0
AnchorPoint: "r;hi" 226 675 basechar 0
AnchorPoint: "r;x" 226 389 basechar 0
LayerCount: 3
Fore
SplineSet
93 692 m 0
 131 692 154 664 154 623 c 0
 154 573 93 518 77 518 c 0
 72 518 65 522 65 530 c 0
 65 541 79 553 87 566 c 0
 90 572 93 579 93 585 c 0
 93 600 81 609 70 617 c 0
 57 626 51 640 51 653 c 0
 51 673 65 692 93 692 c 0
EndSplineSet
EndChar

StartChar: quoteleft
Encoding: 8216 8216 85
Width: 226
VWidth: 0
Flags: W
HStem: 518 174<85.6302 124>
VStem: 41 61<567.5 644.789>
AnchorPoint: "l;x" 0 389 basechar 0
AnchorPoint: "l;hi" 0 675 basechar 0
AnchorPoint: "l;o" 0 215 basechar 0
AnchorPoint: "r;x" 226 389 basechar 0
AnchorPoint: "r;hi" 226 675 basechar 0
AnchorPoint: "r;o" 226 215 basechar 0
LayerCount: 3
Fore
SplineSet
102 518 m 0
 64 518 41 547 41 588 c 0
 41 638 103 692 119 692 c 0
 124 692 130 689 130 681 c 0
 130 670 116 657 108 644 c 0
 105 638 102 632 102 626 c 0
 102 611 115 602 126 594 c 0
 139 585 144 570 144 557 c 0
 144 537 130 518 102 518 c 0
EndSplineSet
EndChar

StartChar: quotedblleft
Encoding: 8220 8220 86
Width: 379
VWidth: 0
Flags: W
HStem: 518 174<85.6302 124 238.63 277>
VStem: 41 61<567.5 644.789> 194 61<567.5 644.789>
AnchorPoint: "l;x" 0 389 basechar 0
AnchorPoint: "l;hi" 0 675 basechar 0
AnchorPoint: "l;o" 0 215 basechar 0
AnchorPoint: "r;x" 379 389 basechar 0
AnchorPoint: "r;hi" 379 675 basechar 0
AnchorPoint: "r;o" 379 215 basechar 0
LayerCount: 3
Fore
SplineSet
255 518 m 0
 217 518 194 547 194 588 c 0
 194 638 256 692 272 692 c 0
 277 692 283 689 283 681 c 0
 283 670 270 657 262 644 c 0
 259 638 255 632 255 626 c 0
 255 611 268 602 279 594 c 0
 292 585 298 570 298 557 c 0
 298 537 283 518 255 518 c 0
102 518 m 0
 64 518 41 547 41 588 c 0
 41 638 103 692 119 692 c 0
 124 692 130 689 130 681 c 0
 130 670 116 657 108 644 c 0
 105 638 102 632 102 626 c 0
 102 611 115 602 126 594 c 0
 139 585 144 570 144 557 c 0
 144 537 130 518 102 518 c 0
EndSplineSet
EndChar

StartChar: quotedblright
Encoding: 8221 8221 87
Width: 379
VWidth: 0
Flags: W
HStem: 518 174<72 109.683 225 262.683>
VStem: 93 61<565.543 643.5> 246 61<565.543 643.5>
AnchorPoint: "l;x" 0 389 basechar 0
AnchorPoint: "l;hi" 0 675 basechar 0
AnchorPoint: "l;o" 0 215 basechar 0
AnchorPoint: "r;x" 379 389 basechar 0
AnchorPoint: "r;hi" 379 675 basechar 0
AnchorPoint: "r;o" 379 215 basechar 0
LayerCount: 3
Fore
SplineSet
93 692 m 0
 131 692 154 664 154 623 c 0
 154 573 93 518 77 518 c 0
 72 518 65 522 65 530 c 0
 65 541 79 553 87 566 c 0
 90 572 93 579 93 585 c 0
 93 600 81 609 70 617 c 0
 57 626 51 640 51 653 c 0
 51 673 65 692 93 692 c 0
246 692 m 0
 284 692 307 664 307 623 c 0
 307 573 246 518 230 518 c 0
 225 518 219 522 219 530 c 0
 219 541 232 553 240 566 c 0
 243 572 246 579 246 585 c 0
 246 600 234 609 223 617 c 0
 210 626 204 640 204 653 c 0
 204 673 218 692 246 692 c 0
EndSplineSet
EndChar

StartChar: bracketleft
Encoding: 91 91 88
Width: 340
VWidth: 0
Flags: W
HStem: -207 44<128.001 307.954> 672 43<136 319.996>
VStem: 74 54<-195 373.174> 80 56<442.872 671.938>
AnchorPoint: "l;bl" 0 10 basechar 0
AnchorPoint: "l;x" 0 389 basechar 0
AnchorPoint: "l;hi" 0 675 basechar 0
AnchorPoint: "l;o" 0 215 basechar 0
AnchorPoint: "l;lo" 0 -204 basechar 0
AnchorPoint: "r;bl" 340 10 basechar 0
AnchorPoint: "r;x" 340 389 basechar 0
AnchorPoint: "r;hi" 340 675 basechar 0
AnchorPoint: "r;o" 340 215 basechar 0
AnchorPoint: "r;lo" 340 -204 basechar 0
LayerCount: 3
Fore
SplineSet
80 698 m 0xd0
 80 709 85 715 103 715 c 2
 304 715 l 2
 316 715 320 711 320 693 c 0
 320 674 315 671 302 671 c 2
 148 672 l 2
 136 672 136 672 136 655 c 0xd0
 132 393 129 112 128 -152 c 0
 128 -159 129 -163 148 -163 c 2
 284 -163 l 2
 301 -163 308 -165 308 -182 c 0
 308 -199 306 -207 291 -207 c 2
 115 -207 l 2
 85 -207 74 -206 74 -184 c 0xe0
 74 65 75 423 80 698 c 0xd0
EndSplineSet
Layer: 2
SplineSet
86 703 m 6xe0
 86 713 88 718 105 718 c 6
 304 717 l 6
 315 717 318 715 318 698 c 4
 318 680 314 679 302 679 c 6
 146 680 l 6
 133 680 132 678 132 661 c 6
 132 513 l 6
 132 302 127 64 126 -147 c 4
 126 -155 128 -160 148 -160 c 4
 194 -160 278 -161 284 -161 c 4
 301 -161 306 -162 306 -177 c 4
 306 -194 304 -199 291 -199 c 6
 115 -199 l 6
 85 -199 77 -199 77 -179 c 4xd0
 77 -35 86 277 86 449 c 6
 86 703 l 6xe0
92 703 m 2xd0
 92 713 94 718 111 718 c 2
 307 716 l 2
 318 716 320 714 320 698 c 0
 320 681 315 681 303 681 c 2
 147 683 l 2
 133 683 133 681 133 662 c 0xd0
 131 506 130 339 127 189 c 0
 124 79 125 0 122 -143 c 0
 122 -153 123 -158 148 -158 c 2
 288 -158 l 2
 304 -158 308 -160 308 -174 c 0
 308 -190 304 -193 291 -193 c 2
 119 -191 l 2
 90 -191 82 -190 82 -171 c 0xe0
 82 -162 86 10 88 102 c 0
 91 278 92 452 92 628 c 2
 92 703 l 2xd0
EndSplineSet
EndChar

StartChar: bracketright
Encoding: 93 93 89
Width: 337
VWidth: 0
Flags: W
HStem: -209 43<22.0095 202> 671 44<24.0528 207.999>
VStem: 202 52<-166 275.493> 208 56<167.27 700>
AnchorPoint: "l;bl" 0 10 basechar 0
AnchorPoint: "l;x" 0 389 basechar 0
AnchorPoint: "l;hi" 0 675 basechar 0
AnchorPoint: "l;o" 0 215 basechar 0
AnchorPoint: "l;lo" 0 -204 basechar 0
AnchorPoint: "r;bl" 337 10 basechar 0
AnchorPoint: "r;x" 337 389 basechar 0
AnchorPoint: "r;hi" 337 675 basechar 0
AnchorPoint: "r;o" 337 215 basechar 0
AnchorPoint: "r;lo" 337 -204 basechar 0
LayerCount: 3
Fore
SplineSet
254 -193 m 2xe0
 254 -204 251 -210 233 -210 c 2
 46 -209 l 2
 35 -209 22 -207 22 -188 c 0
 22 -168 33 -166 45 -166 c 2
 190 -166 l 2
 202 -166 202 -166 202 -150 c 0xe0
 203 109 206 413 208 659 c 0
 208 666 207 671 182 671 c 2
 49 671 l 2
 32 671 24 673 24 690 c 0
 24 707 27 715 42 715 c 2
 223 715 l 2
 253 715 264 711 264 689 c 0xd0
 264 545 254 233 254 61 c 2
 254 -193 l 2xe0
EndSplineSet
EndChar

StartChar: sterling
Encoding: 163 163 90
Width: 652
VWidth: 0
Flags: W
HStem: -268 55<471.403 555.314> -257 21G<29.5 57> 226 33<117.009 199.488 289.32 386.762> 657 35<414.62 495.046>
VStem: 505 96<561.388 648.622> 574 25<-205.462 -136.547>
AnchorPoint: "l;bl" 0 10 basechar 0
AnchorPoint: "l;x" 0 389 basechar 0
AnchorPoint: "l;hi" 0 675 basechar 0
AnchorPoint: "l;o" 0 215 basechar 0
AnchorPoint: "l;lo" 0 -204 basechar 0
AnchorPoint: "r;bl" 652 10 basechar 0
AnchorPoint: "r;x" 652 389 basechar 0
AnchorPoint: "r;hi" 652 675 basechar 0
AnchorPoint: "r;o" 652 215 basechar 0
AnchorPoint: "r;lo" 652 -204 basechar 0
LayerCount: 3
Fore
SplineSet
471 692 m 0x74
 535 692 601 664 601 590 c 0
 601 565 592 543 561 543 c 0
 520 543 518 586 505 622 c 0x78
 498 642 482 657 455 657 c 0
 447 657 438 655 431 652 c 0
 409 642 389 617 372 582 c 0
 351 539 336 480 324 424 c 0
 313 372 303 336 292 291 c 0
 290 284 289 276 289 270 c 0
 289 263 291 260 302 260 c 2
 366 261 l 2
 379 261 387 259 387 247 c 0
 387 233 382 229 370 229 c 2
 297 228 l 2
 280 228 276 226 272 207 c 0
 261 145 238 73 217 7 c 0
 204 -32 176 -93 176 -100 c 0
 176 -108 184 -107 208 -111 c 0
 221 -113 230 -115 254 -121 c 0
 351 -146 524 -213 539 -213 c 0
 573 -213 574 -183 574 -164 c 0
 574 -118 498 -117 498 -72 c 0
 498 -48 518 -36 538 -36 c 0
 552 -36 568 -42 577 -52 c 0
 589 -65 599 -88 599 -119 c 2
 599 -153 l 2
 599 -186 596 -212 576 -231 c 0
 550 -255 510 -268 484 -268 c 0xb4
 336 -268 260 -130 183 -130 c 0
 147 -130 146 -154 130 -180 c 0
 109 -215 74 -257 40 -257 c 0
 19 -257 10 -245 10 -233 c 0
 10 -225 13 -215 19 -207 c 0
 36 -181 72 -150 94 -137 c 0
 116 -124 138 -112 142 -100 c 0
 158 -51 169 15 178 74 c 0
 187 130 196 181 199 207 c 0
 199 211 200 214 200 217 c 0
 200 225 197 226 183 226 c 2
 146 226 l 2
 129 226 117 227 117 243 c 0
 117 256 128 259 142 259 c 2
 194 258 l 2
 209 258 209 262 212 281 c 0
 215 305 222 343 230 383 c 0
 255 512 313 692 471 692 c 0x74
EndSplineSet
EndChar

StartChar: c_t
Encoding: 65536 -1 91
Width: 705
VWidth: 250
Flags: HMW
HStem: -17 62<179.532 311.108 549.276 631.124> 349 89<287.636 347.21> 363 49<550.092 689.077> 609 40<317.951 479.36>
VStem: 32 73<128.887 298.792> 218 37<448.284 551.571> 463 74<53.8595 340.432> 473 65<136.149 359.957> 526 37<448.414 566.031>
AnchorPoint: "r;o" 705 215 basechar 0
AnchorPoint: "r;x" 700 389 basechar 0
AnchorPoint: "r;bl" 705 10 basechar 0
AnchorPoint: "l;o" 0 215 basechar 0
AnchorPoint: "l;x" 20 389 basechar 0
AnchorPoint: "l;bl" 20 10 basechar 0
LayerCount: 3
Fore
SplineSet
458 360 m 0xdd
 449 360 434 358 429 358 c 0
 418 358 412 362 412 369 c 0
 412 382 429 388 439 393 c 0
 493 420 526 452 526 518 c 0
 526 570 469 609 412 609 c 0
 301 609 255 552 255 496 c 0
 255 460 265 446 299 438 c 0
 341 428 364 409 364 382 c 0
 364 365 341 349 331 349 c 0xdc80
 278 349 289 401 238 401 c 0
 148 401 105 314 105 222 c 0
 105 125 164 45 255 45 c 0
 274 45 295 49 315 56 c 0
 346 68 364 88 372 101 c 0
 374 103 377 104 380 104 c 0
 387 104 391 100 391 91 c 0
 391 57 312 -17 232 -17 c 0
 127 -17 32 59 32 196 c 0
 32 307 105 417 218 439 c 0
 232 442 234 444 234 448 c 0
 234 452 229 458 225 469 c 0
 220 481 218 496 218 512 c 0
 218 593 298 649 408 649 c 0
 502 649 563 610 563 515 c 0
 563 489 559 463 554 441 c 0
 552 431 550 423 550 418 c 0
 550 411 564 412 574 412 c 0
 606 414 659 418 670 418 c 0
 685 418 690 407 690 398 c 0
 690 370 681 363 667 363 c 2
 560 363 l 2xbc80
 547 363 538 359 538 349 c 0xdd
 537 278 537 200 537 133 c 0
 537 74 548 43 595 43 c 0
 641 43 671 77 682 77 c 0
 688 77 690 72 690 66 c 0
 690 35 630 -11 565 -11 c 0
 482 -11 463 33 463 105 c 0xde
 463 232 473 299 473 337 c 0
 473 355 470 360 458 360 c 0xdd
EndSplineSet
Ligature2: "'dlig' Discretionary Ligatures in Latin lookup 5 subtable" c t
LCarets2: 1 0 
EndChar

StartChar: s_t
Encoding: 65537 -1 92
Width: 657
VWidth: 250
Flags: HMW
HStem: -12 36<110.622 218.083> -11 54<502.689 595.888> 363 49<503.092 642.077> 400 33<115.25 188.319> 609 40<267.794 434.45>
VStem: 27 32<78.6502 135.872> 41 54<295.654 386.551> 169 33<450.093 547.521> 246 61<48.3939 137.503> 259 25<315.636 356.036> 416 74<53.8595 340.432> 426 65<136.149 359.957> 484 37<455.379 563.357>
AnchorPoint: "r;bl" 657 10 basechar 0
AnchorPoint: "r;x" 652 389 basechar 0
AnchorPoint: "r;o" 657 215 basechar 0
AnchorPoint: "l;o" 0 215 basechar 0
AnchorPoint: "l;x" 5 389 basechar 0
AnchorPoint: "l;bl" 0 10 basechar 0
LayerCount: 3
Fore
SplineSet
169 512 m 0x9b80
 169 593 251 649 361 649 c 0
 450 649 521 610 521 515 c 0x9b88
 521 489 512 463 507 441 c 0
 505 431 503 423 503 418 c 0
 503 411 517 412 527 412 c 0
 559 414 612 418 623 418 c 0
 638 418 643 407 643 398 c 0
 643 370 634 363 620 363 c 2
 513 363 l 2
 500 363 491 359 491 349 c 0x2910
 490 278 490 200 490 133 c 0
 490 74 501 43 548 43 c 0
 594 43 624 77 635 77 c 0
 641 77 643 72 643 66 c 0
 643 35 583 -11 518 -11 c 0
 435 -11 416 33 416 105 c 0x6920
 416 232 426 299 426 337 c 0x6910
 426 355 423 360 411 360 c 0
 402 360 387 358 382 358 c 0
 371 358 365 362 365 369 c 0
 365 382 382 388 392 393 c 0
 446 420 484 460 484 518 c 0
 484 570 422 609 365 609 c 0
 254 609 202 552 202 496 c 0
 202 460 225 426 259 417 c 0
 279 412 284 407 284 392 c 0
 284 378 284 353 284 339 c 0
 284 322 279 315 274 315 c 0
 269 315 264 322 259 333 c 0
 245 370 212 400 162 400 c 0
 120 400 95 376 95 343 c 0x5b48
 95 300 136 275 186 249 c 0
 245 218 307 192 307 121 c 0
 307 52 257 -12 153 -12 c 0
 138 -12 93 -6 74 1 c 0
 52 9 35 24 34 36 c 0
 32 64 27 107 27 115 c 0x9d80
 27 129 33 136 41 136 c 0x9b
 49 136 54 132 59 115 c 0x9d
 76 51 126 24 173 24 c 0
 212 24 246 57 246 98 c 0
 246 139 189 163 134 193 c 0
 84 220 41 257 41 314 c 0
 41 388 84 433 174 433 c 0
 184 433 189 433 189 438 c 0
 189 442 186 449 181 459 c 0
 176 470 169 486 169 512 c 0x9b80
EndSplineSet
Ligature2: "'dlig' Discretionary Ligatures in Latin lookup 5 subtable" s t
LCarets2: 1 0 
EndChar

StartChar: Q.001
Encoding: 65538 -1 93
Width: 766
VWidth: 0
Flags: W
HStem: -234 68<1104.62 1310.1> 22 27<300.699 423.661> 665 35<275.729 430.915>
VStem: 41 90<258.389 486.587> 610 94<232.192 455.602>
DStem2: 605 27 527 -34 0.934673 -0.355509<-80.4569 547.684>
AnchorPoint: "l;bl" 0 10 basechar 0
AnchorPoint: "l;x" 0 389 basechar 0
AnchorPoint: "l;hi" 0 675 basechar 0
AnchorPoint: "l;o" 0 215 basechar 0
AnchorPoint: "r;bl" 766 10 basechar 0
AnchorPoint: "r;x" 766 389 basechar 0
AnchorPoint: "r;hi" 766 675 basechar 0
AnchorPoint: "r;o" 766 215 basechar 0
LayerCount: 3
Fore
SplineSet
527 -34 m 0
 487 -17 448 2 396 21 c 0
 394 22 392 22 390 22 c 0
 385 22 379 20 352 20 c 0
 149 20 41 184 41 353 c 0
 41 580 199 700 390 700 c 0
 602 700 704 534 704 359 c 0
 704 189 613 123 566 88 c 0
 542 71 531 65 531 59 c 0
 531 55 555 43 605 27 c 0
 716 -10 818 -47 931 -88 c 0
 1004 -114 1150 -166 1227 -166 c 0
 1283 -166 1354 -144 1381 -131 c 0
 1396 -123 1414 -111 1425 -104 c 0
 1428 -102 1433 -100 1437 -100 c 0
 1443 -100 1451 -104 1451 -113 c 0
 1451 -121 1441 -133 1435 -138 c 0
 1396 -171 1345 -200 1300 -216 c 0
 1270 -227 1229 -234 1208 -234 c 0
 1091 -234 1018 -216 956 -192 c 0
 793 -132 667 -95 527 -34 c 0
361 665 m 0
 211 665 131 539 131 409 c 0
 131 255 199 49 365 49 c 0
 511 49 610 128 610 334 c 0
 610 500 494 665 361 665 c 0
EndSplineSet
EndChar

StartChar: Q.002
Encoding: 65539 -1 94
Width: 827
VWidth: 0
Flags: W
HStem: -247 51<1181.28 1339.55> 22 27<300.699 423.661> 665 35<275.729 430.915>
VStem: 41 90<258.389 486.587> 610 94<232.192 455.602>
DStem2: 605 27 527 -34 0.944986 -0.327111<-80.3166 602.96>
AnchorPoint: "r;o" 827 215 basechar 0
AnchorPoint: "r;hi" 827 675 basechar 0
AnchorPoint: "r;x" 827 389 basechar 0
AnchorPoint: "r;bl" 827 10 basechar 0
AnchorPoint: "l;o" 0 215 basechar 0
AnchorPoint: "l;hi" 0 675 basechar 0
AnchorPoint: "l;x" 0 389 basechar 0
AnchorPoint: "l;bl" 0 10 basechar 0
LayerCount: 3
Fore
SplineSet
527 -34 m 0
 487 -17 448 2 396 21 c 0
 394 22 392 22 390 22 c 0
 385 22 379 20 352 20 c 0
 149 20 41 184 41 353 c 0
 41 580 199 700 390 700 c 0
 602 700 704 534 704 359 c 0
 704 189 613 123 566 88 c 0
 542 71 531 65 531 59 c 0
 531 55 555 43 605 27 c 0
 716 -10 818 -47 931 -88 c 0
 986 -107 1113 -158 1203 -180 c 0
 1245 -190 1270 -195 1308 -196 c 0
 1351 -197 1355 -200 1355 -212 c 0
 1355 -225 1321 -231 1289 -237 c 0
 1246 -244 1193 -247 1150 -247 c 0
 1113 -247 1018 -216 956 -192 c 0
 793 -132 667 -95 527 -34 c 0
361 665 m 0
 211 665 131 539 131 409 c 0
 131 255 199 49 365 49 c 0
 511 49 610 128 610 334 c 0
 610 500 494 665 361 665 c 0
EndSplineSet
EndChar

StartChar: section
Encoding: 167 167 95
Width: 439
VWidth: 0
Flags: W
HStem: -129 61<67.8098 205.594> 646 51<239.979 362.575>
VStem: 56 52<362.522 470.362> 353 52<88.4319 213.74>
AnchorPoint: "l;bl" 60 10 basechar 0
AnchorPoint: "l;x" 20 389 basechar 0
AnchorPoint: "l;o" 20 215 basechar 0
AnchorPoint: "l;lo" 0 -204 basechar 0
AnchorPoint: "r;bl" 419 10 basechar 0
AnchorPoint: "r;x" 399 389 basechar 0
AnchorPoint: "r;hi" 399 675 basechar 0
AnchorPoint: "r;o" 439 215 basechar 0
AnchorPoint: "r;lo" 419 -204 basechar 0
LayerCount: 3
Fore
SplineSet
141 522 m 0
 127 498 108 468 108 436 c 0
 108 363 249 139 295 66 c 0
 302 55 308 46 311 46 c 0
 315 46 318 51 327 65 c 0
 338 82 353 108 353 148 c 0
 353 176 325 230 294 286 c 0
 259 351 219 420 196 458 c 0
 186 475 176 500 167 519 c 0
 162 530 158 535 154 535 c 0
 150 535 147 531 141 522 c 0
303 697 m 0
 334 697 376 689 376 664 c 0
 376 639 371 627 353 627 c 0
 345 627 308 637 295 641 c 0
 284 644 277 646 262 646 c 0
 255 646 242 638 227 623 c 0
 215 611 214 602 214 594 c 2
 214 584 l 2
 214 552 293 435 349 331 c 0
 379 277 405 232 405 171 c 0
 405 130 383 73 341 25 c 0
 321 1 296 -25 270 -51 c 0
 226 -93 199 -129 118 -129 c 0
 88 -129 54 -120 54 -90 c 0
 54 -73 58 -59 76 -59 c 0
 86 -59 147 -68 176 -68 c 0
 195 -68 206 -66 222 -51 c 0
 243 -33 247 -23 247 -8 c 0
 247 51 56 272 56 391 c 0
 56 475 150 594 230 667 c 0
 250 685 268 697 303 697 c 0
EndSplineSet
Layer: 2
SplineSet
133 491 m 4
 118 465 97 432 97 398 c 4
 97 320 251 76 300 -2 c 4
 308 -14 314 -24 317 -24 c 4
 321 -24 325 -17 335 -2 c 4
 347 16 363 46 363 89 c 4
 363 119 333 177 300 237 c 4
 262 307 220 381 195 422 c 4
 184 440 171 469 162 489 c 4
 156 501 152 505 148 505 c 4
 144 505 139 501 133 491 c 4
308 678 m 4
 341 678 387 669 387 642 c 4
 387 615 381 604 362 604 c 4
 353 604 314 614 300 618 c 4
 288 621 279 624 263 624 c 4
 255 624 243 616 227 600 c 4
 214 587 212 578 212 569 c 6
 212 558 l 6
 212 524 298 397 358 285 c 4
 390 227 418 179 418 113 c 4
 418 69 394 8 349 -44 c 4
 327 -70 301 -98 273 -126 c 4
 226 -171 197 -210 110 -210 c 4
 78 -210 41 -200 41 -168 c 4
 41 -150 46 -135 65 -135 c 4
 76 -135 141 -145 172 -145 c 4
 192 -145 205 -143 223 -128 c 4
 245 -108 249 -98 249 -82 c 4
 249 -19 43 221 43 349 c 4
 43 439 144 567 230 645 c 4
 251 664 270 678 308 678 c 4
EndSplineSet
EndChar

StartChar: paragraph
Encoding: 182 182 96
Width: 629
VWidth: 0
Flags: HMW
HStem: -28 43<186.133 381.45> -25 65<42.9434 131.427 136.59 259.502> 175 52<212 388.711> 634 44<506.315 615.951> 651 27<342.067 442.111 485.416 570.745>
VStem: 41 204<315 520.413> 435 41<76.4079 207.188 235.59 347.536> 443 41<426.596 650.914>
AnchorPoint: "l;bl" 0 10 basechar 0
AnchorPoint: "l;x" 0 389 basechar 0
AnchorPoint: "l;o" 0 215 basechar 0
AnchorPoint: "r;bl" 599 10 basechar 0
AnchorPoint: "r;x" 599 389 basechar 0
AnchorPoint: "r;hi" 629 675 basechar 0
AnchorPoint: "r;o" 599 215 basechar 0
AnchorPoint: "l;hi" 0 675 basechar 0
LayerCount: 3
Fore
SplineSet
579 678 m 2xb6
 599 678 616 674 616 657 c 0
 616 646 607 634 592 634 c 0xb6
 565 634 554 651 504 651 c 0
 488 651 484 639 484 626 c 0xad
 481 433 481 313 476 142 c 0
 473 54 431 -28 329 -28 c 0
 260 -28 210 -3 133 -3 c 0
 99 -3 94 -25 62 -25 c 0
 48 -25 34 -17 34 -4 c 0
 34 29 76 40 114 40 c 0
 185 40 230 15 305 15 c 0
 400 15 435 79 435 177 c 2
 435 198 l 2
 435 215 432 216 422 211 c 0
 386 195 345 175 280 175 c 0
 144 175 41 273 41 422 c 0
 41 576 174 675 336 676 c 0
 411 676 480 678 556 678 c 2
 579 678 l 2xb6
443 631 m 0xa5
 443 651 423 652 408 652 c 2
 394 652 l 2
 301 652 245 531 245 426 c 0
 245 335 278 227 381 227 c 0
 406 227 435 243 435 256 c 0xa6
 438 382 443 618 443 631 c 0xa5
EndSplineSet
Layer: 2
SplineSet
625 648 m 6xb6
 648 648 669 643 669 623 c 4
 669 610 659 596 641 596 c 4xb6
 610 596 596 616 536 616 c 4
 517 616 512 602 512 587 c 4x2d
 508 359 509 217 503 15 c 4
 499 -89 465 -185 330 -185 c 4xae
 252 -185 211 -155 100 -155 c 4
 59 -155 51 -181 17 -182 c 28
 0 -182 -19 -173 -19 -157 c 4
 -19 -118 31 -109 76 -109 c 4x66
 160 -109 213 -135 302 -135 c 4
 414 -135 455 -61 455 55 c 6
 455 81 l 6
 455 94 454 100 448 100 c 4
 447 100 422 89 414 85 c 4
 386 74 342 53 272 53 c 4
 112 53 -11 168 -11 345 c 4
 -11 527 146 645 338 646 c 4
 427 646 507 648 597 648 c 6
 625 648 l 6xb6
466 593 m 4x25
 466 616 440 617 423 617 c 6
 407 617 l 6
 297 617 230 474 230 350 c 4
 230 242 270 115 392 115 c 4
 421 115 456 134 456 149 c 4
 459 297 466 578 466 593 c 4x25
EndSplineSet
EndChar

StartChar: dagger
Encoding: 8224 8224 97
Width: 418
VWidth: 0
Flags: W
HStem: 458 54<247.481 375.087> 468 39<237.666 326.904> 479 50<39.4714 177.24> 652 20G<207 220.5>
VStem: 173 68<-127.509 170.331> 185 51<248.521 467.927 522.666 671.071>
AnchorPoint: "l;bl" 0 10 basechar 0
AnchorPoint: "l;x" 0 389 basechar 0
AnchorPoint: "l;hi" 0 675 basechar 0
AnchorPoint: "l;o" 0 215 basechar 0
AnchorPoint: "l;lo" 0 -204 basechar 0
AnchorPoint: "r;bl" 418 10 basechar 0
AnchorPoint: "r;x" 418 389 basechar 0
AnchorPoint: "r;hi" 418 675 basechar 0
AnchorPoint: "r;o" 418 215 basechar 0
AnchorPoint: "r;lo" 418 -204 basechar 0
LayerCount: 3
Fore
SplineSet
191 -133 m 0x58
 176 -133 173 -118 173 -101 c 0x58
 173 -98 175 -68 175 -56 c 0
 178 63 181 280 185 458 c 0x94
 185 475 142 479 111 479 c 0
 74 479 54 463 44 463 c 0
 33 463 27 475 27 486 c 0
 27 514 59 529 85 529 c 0x34
 122 529 139 522 171 522 c 0
 181 522 185 532 185 542 c 0
 185 585 188 606 188 648 c 0
 188 661 201 672 213 672 c 0
 228 672 236 663 236 651 c 0
 236 614 235 586 235 549 c 0
 235 523 240 507 272 507 c 0x54
 331 507 344 512 366 512 c 0
 373 512 377 505 377 495 c 0
 377 463 359 458 329 458 c 0x94
 284 458 257 468 247 468 c 0
 237 468 236 458 236 449 c 2
 236 312 l 2x54
 236 193 241 97 241 -29 c 2
 241 -82 l 2
 241 -116 227 -133 191 -133 c 0x58
EndSplineSet
EndChar

StartChar: daggerdbl
Encoding: 8225 8225 98
Width: 471
VWidth: 0
Flags: W
HStem: 415 39<158.92 212.979 262.314 310.248> 646 20G<163 174.5 307 313>
VStem: 197 69<-124.179 124.834> 217 45<196.296 412.93 455.01 529.039> 293 31<621.244 665.867>
AnchorPoint: "l;bl" 0 10 basechar 0
AnchorPoint: "l;x" 0 389 basechar 0
AnchorPoint: "l;hi" 0 675 basechar 0
AnchorPoint: "l;o" 0 215 basechar 0
AnchorPoint: "l;lo" 0 -204 basechar 0
AnchorPoint: "r;bl" 471 10 basechar 0
AnchorPoint: "r;x" 471 389 basechar 0
AnchorPoint: "r;hi" 471 675 basechar 0
AnchorPoint: "r;o" 471 215 basechar 0
AnchorPoint: "r;lo" 471 -204 basechar 0
LayerCount: 3
Fore
SplineSet
232 542 m 2xd8
 236 533 237 530 239 530 c 0
 243 530 248 540 253 556 c 0
 263 585 275 617 293 655 c 1
 293 656 l 1
 296 661 304 666 310 666 c 0
 316 666 324 661 324 650 c 0
 324 626 280 548 268 512 c 0
 264 501 262 491 262 483 c 0xd8
 262 457 266 454 274 454 c 0
 280 454 288 457 298 461 c 0
 319 470 376 499 408 512 c 0
 415 515 421 516 426 516 c 0
 437 516 442 509 442 502 c 0
 442 492 432 486 419 480 c 0
 384 464 345 452 328 447 c 0
 309 441 309 441 309 438 c 0
 309 435 315 431 336 424 c 0
 353 418 392 408 418 397 c 0
 430 392 437 386 437 373 c 0
 437 363 428 359 419 359 c 0
 411 359 402 362 396 365 c 0
 380 373 350 389 325 399 c 0
 309 406 292 410 276 414 c 0
 274 415 271 415 269 415 c 0
 264 415 261 413 261 398 c 2
 261 312 l 2
 261 193 266 97 266 -29 c 2
 266 -82 l 2xe8
 266 -116 253 -128 217 -128 c 0xd8
 201 -128 197 -118 197 -101 c 0xe8
 197 -54 208 -9 213 407 c 0
 213 412 209 413 203 413 c 0
 195 413 185 410 181 409 c 0
 129 395 73 364 47 364 c 0
 37 364 27 370 27 381 c 0
 27 394 42 402 60 406 c 0
 87 412 145 432 149 436 c 1
 149 442 133 448 122 453 c 0
 97 463 64 480 38 491 c 0
 31 493 29 501 29 506 c 0
 29 515 36 522 46 522 c 0
 48 522 51 522 53 521 c 0
 94 504 138 481 174 466 c 0
 182 462 196 455 206 455 c 0
 213 455 217 458 217 468 c 0
 217 477 215 491 209 506 c 0
 194 544 152 627 152 648 c 0
 152 656 156 666 170 666 c 0
 179 666 186 660 188 656 c 2
 232 542 l 2xd8
EndSplineSet
EndChar

StartChar: bullet
Encoding: 8226 8226 99
Width: 313
VWidth: 0
Flags: W
HStem: 155 149<104.894 207.583>
VStem: 82 149<178.417 281.106>
AnchorPoint: "l;bl" 0 10 basechar 0
AnchorPoint: "l;x" 0 389 basechar 0
AnchorPoint: "l;hi" 0 675 basechar 0
AnchorPoint: "l;o" 0 215 basechar 0
AnchorPoint: "l;lo" 0 -204 basechar 0
AnchorPoint: "r;bl" 313 10 basechar 0
AnchorPoint: "r;x" 313 389 basechar 0
AnchorPoint: "r;hi" 313 675 basechar 0
AnchorPoint: "r;o" 313 215 basechar 0
AnchorPoint: "r;lo" 313 -204 basechar 0
LayerCount: 3
Fore
SplineSet
82 230 m 0
 82 271 115 304 156 304 c 0
 197 304 231 271 231 230 c 0
 231 189 197 155 156 155 c 0
 115 155 82 189 82 230 c 0
EndSplineSet
EndChar

StartChar: asterisk
Encoding: 42 42 100
Width: 447
VWidth: 250
Flags: W
HStem: 403 52<61.4648 118.805 327.637 385.704> 562 52<61.2959 117.743 329.349 385.535> 670 20G<214.5 233.5>
VStem: 196 55<327.639 459.337 557.25 689.361>
AnchorPoint: "l;x" 0 389 basechar 0
AnchorPoint: "l;hi" 0 675 basechar 0
AnchorPoint: "l;o" 20 215 basechar 0
AnchorPoint: "r;x" 447 389 basechar 0
AnchorPoint: "r;hi" 447 675 basechar 0
AnchorPoint: "r;o" 427 215 basechar 0
LayerCount: 3
Fore
SplineSet
206 548 m 0
 203 578 196 643 196 662 c 0
 196 677 204 690 225 690 c 0
 242 690 251 679 251 662 c 0
 251 631 243 578 240 548 c 0
 238 532 237 533 249 541 c 0
 274 558 327 598 346 609 c 0
 351 612 356 614 361 614 c 0
 370 614 387 600 387 584 c 0
 387 574 382 568 372 562 c 0
 346 546 295 525 267 514 c 0
 255 509 253 510 267 504 c 0
 293 493 356 464 373 455 c 0
 382 450 387 443 387 433 c 0
 387 418 374 403 361 403 c 0
 356 403 352 405 346 408 c 0
 319 424 274 459 249 476 c 0
 238 484 239 485 241 468 c 0
 244 438 251 373 251 355 c 0
 251 340 243 327 222 327 c 0
 205 327 196 338 196 355 c 0
 196 386 205 438 208 468 c 0
 210 483 211 485 199 477 c 0
 175 461 119 419 101 408 c 0
 96 405 91 403 86 403 c 0
 77 403 60 417 60 433 c 0
 60 443 65 449 75 455 c 0
 103 471 153 491 180 503 c 0
 192 509 192 507 179 513 c 0
 153 524 90 553 74 562 c 0
 65 567 60 574 60 584 c 0
 60 599 73 614 86 614 c 0
 91 614 95 612 101 609 c 0
 128 593 172 558 197 541 c 0
 208 534 208 531 206 548 c 0
EndSplineSet
Layer: 2
SplineSet
269 713 m 4
 289 713 298 701 298 681 c 4
 298 645 283 547 281 527 c 4
 280 519 280 508 278 499 c 5
 285 504 292 508 295 510 c 4
 297 512 408 595 429 607 c 4
 445 616 460 617 473 594 c 4
 483 577 477 562 460 552 c 4
 429 534 336 498 318 490 c 4
 311 487 301 482 292 479 c 5
 299 476 307 473 310 472 c 4
 313 471 439 417 460 405 c 4
 476 396 484 382 471 359 c 4
 461 342 446 340 429 350 c 4
 398 368 320 430 304 442 c 4
 297 447 286 452 278 458 c 5
 280 451 281 444 281 440 c 5
 282 437 298 300 298 276 c 4
 298 258 290 244 264 244 c 4
 244 244 235 256 235 276 c 4
 235 312 250 410 252 430 c 4
 253 438 253 449 254 458 c 5
 248 453 241 449 238 447 c 4
 236 445 125 362 104 350 c 4
 88 341 73 340 60 363 c 4
 50 380 56 395 73 405 c 4
 104 423 197 459 215 467 c 4
 222 470 231 475 240 479 c 5
 233 481 226 484 223 485 c 4
 220 486 94 540 73 552 c 4
 57 561 49 575 62 598 c 4
 72 615 87 617 104 607 c 4
 135 589 213 527 229 515 c 4
 236 510 246 505 254 499 c 5
 253 506 252 513 252 517 c 5
 251 520 235 657 235 681 c 4
 235 699 243 713 269 713 c 4
EndSplineSet
EndChar

StartChar: at
Encoding: 64 64 101
Width: 856
VWidth: 20
Flags: W
HStem: -154 39<279.965 519.73> 28 52<268.212 339.813> 28 33<430 550.716> 376 23<430.566 506.254> 405 20G<561 575> 570 39<383.057 625.394>
VStem: 50 44<56.2461 293.273> 218 73<86.9159 195.212> 402 71<43.5 133.092> 496 100<335 417.5> 766 40<244.797 440.407>
AnchorPoint: "l;bl" 0 10 basechar 0
AnchorPoint: "l;x" 0 389 basechar 0
AnchorPoint: "l;hi" 0 675 basechar 0
AnchorPoint: "l;o" 0 215 basechar 0
AnchorPoint: "l;lo" 0 -204 basechar 0
AnchorPoint: "r;bl" 856 10 basechar 0
AnchorPoint: "r;x" 856 389 basechar 0
AnchorPoint: "r;hi" 856 675 basechar 0
AnchorPoint: "r;o" 856 215 basechar 0
AnchorPoint: "r;lo" 856 -204 basechar 0
LayerCount: 3
Fore
SplineSet
766 334 m 0xbfe0
 766 499 655 570 506 570 c 0
 288 570 94 402 94 168 c 0
 94 -7 232 -115 384 -115 c 0
 530 -115 625 -61 714 21 c 0
 715 22 725 30 728 30 c 0
 737 30 749 14 749 11 c 0
 749 7 747 1 744 -2 c 0
 654 -100 521 -154 380 -154 c 0
 210 -154 50 -39 50 173 c 0
 50 420 279 609 505 609 c 0
 660 609 806 539 806 343 c 0
 806 135 600 28 440 28 c 0
 420 28 402 35 402 52 c 0
 402 67 409 103 409 103 c 1
 409 103 342 31 280 31 c 0
 238 31 218 74 218 121 c 0
 218 193 333 399 489 399 c 0
 503 399 520 393 523 393 c 0
 526 393 529 395 539 408 c 0
 549 421 554 425 568 425 c 0
 582 425 596 423 596 412 c 0
 596 408 594 401 592 397 c 0
 563 336 473 131 473 94 c 0
 473 77 473 61 495 61 c 0
 555 61 634 97 694 163 c 0
 736 209 766 271 766 334 c 0xbfe0
291 129 m 0
 291 103 308 80 336 80 c 0xdfe0
 411 80 496 320 496 350 c 0
 496 366 477 376 461 376 c 0
 407 376 291 247 291 129 c 0
EndSplineSet
Layer: 2
SplineSet
834.174804688 370 m 4xbfc0
 834.174804688 568 700.174804688 654 521.174804688 654 c 4
 259.174804688 654 27.1748046875 452 27.1748046875 171 c 4
 27.1748046875 -39 193.174804688 -169 375.174804688 -169 c 4
 550.174804688 -169 664.174804688 -104 771.174804688 -5 c 4
 772.174804688 -4 784.174804688 6 788.174804688 6 c 4
 799.174804688 6 805.174804688 -8 805.174804688 -12 c 4
 805.174804688 -17 804.174804688 -23 800.174804688 -27 c 4
 694.174804688 -142 537.174804688 -206 371.174804688 -206 c 4
 171.174804688 -206 -16.8251953125 -71 -16.8251953125 178 c 4
 -16.8251953125 469 252.174804688 691 518.174804688 691 c 4
 700.174804688 691 872.174804688 608 872.174804688 378 c 4
 872.174804688 133 630.174804688 8 442.174804688 8 c 4
 418.174804688 8 397.174804688 16 397.174804688 36 c 4
 397.174804688 54 406.174804688 96 406.174804688 96 c 5
 406.174804688 96 327.174804688 11 254.174804688 11 c 4
 204.174804688 11 181.174804688 62 181.174804688 117 c 4
 181.174804688 202 317.174804688 444 500.174804688 444 c 4
 517.174804688 444 536.174804688 437 540.174804688 437 c 4
 543.174804688 437 546.174804688 440 558.174804688 455 c 4
 570.174804688 470 576.174804688 475 593.174804688 475 c 4
 609.174804688 475 626.174804688 472 626.174804688 459 c 4
 626.174804688 454 623.174804688 447 621.174804688 442 c 4
 587.174804688 370 481.174804688 130 481.174804688 86 c 4
 481.174804688 66 481.174804688 47 507.174804688 47 c 4
 578.174804688 47 670.174804688 90 747.174804688 167 c 4
 800.174804688 220 834.174804688 294 834.174804688 370 c 4xbfc0
267.174804688 127 m 4
 267.174804688 97 287.174804688 69 320.174804688 69 c 4xdfc0
 408.174804688 69 508.174804688 352 508.174804688 387 c 4
 508.174804688 406 486.174804688 417 467.174804688 417 c 4
 404.174804688 417 267.174804688 266 267.174804688 127 c 4
EndSplineSet
EndChar

StartChar: guillemotleft
Encoding: 171 171 102
Width: 416
VWidth: 488
Flags: W
HStem: 86 264<185 195 339 349>
VStem: 51 86<189.993 245.01> 204 86<189.993 245.01>
AnchorPoint: "l;bl" 0 10 basechar 0
AnchorPoint: "l;x" 0 389 basechar 0
AnchorPoint: "l;o" 0 215 basechar 0
AnchorPoint: "r;bl" 416 10 basechar 0
AnchorPoint: "r;x" 416 389 basechar 0
AnchorPoint: "r;o" 416 215 basechar 0
LayerCount: 3
Fore
SplineSet
228 247 m 2
 330 344 l 2
 333 347 339 350 344 350 c 0
 349 350 355 346 355 339 c 0
 355 336 353 332 351 328 c 2
 301 241 l 2
 295 231 290 224 290 218 c 0
 290 212 295 204 301 194 c 2
 351 107 l 2
 353 103 355 99 355 96 c 0
 355 89 349 86 344 86 c 0
 339 86 333 89 330 92 c 2
 228 188 l 2
 212 203 204 211 204 218 c 0
 204 225 212 232 228 247 c 2
75 247 m 2
 177 344 l 2
 180 347 185 350 190 350 c 0
 195 350 201 346 201 339 c 0
 201 336 199 332 197 328 c 2
 147 241 l 2
 141 231 137 224 137 218 c 0
 137 212 141 204 147 194 c 2
 197 107 l 2
 199 103 201 99 201 96 c 0
 201 89 195 86 190 86 c 0
 185 86 180 89 177 92 c 2
 75 188 l 2
 59 203 51 211 51 218 c 0
 51 225 59 232 75 247 c 2
EndSplineSet
EndChar

StartChar: guillemotright
Encoding: 187 187 103
Width: 416
VWidth: 488
Flags: W
HStem: 86 264<68 78 221 231>
VStem: 126 86<189.993 245.01> 279 86<189.654 245.348>
AnchorPoint: "l;bl" 0 10 basechar 0
AnchorPoint: "l;x" 0 389 basechar 0
AnchorPoint: "l;o" 0 215 basechar 0
AnchorPoint: "r;bl" 416 10 basechar 0
AnchorPoint: "r;x" 416 389 basechar 0
AnchorPoint: "r;o" 416 215 basechar 0
LayerCount: 3
Fore
SplineSet
188 188 m 2
 86 92 l 2
 83 89 78 86 73 86 c 0
 68 86 61 89 61 96 c 0
 61 99 63 103 65 107 c 2
 116 194 l 2
 122 204 126 212 126 218 c 0
 126 224 122 231 116 241 c 2
 65 328 l 2
 63 332 61 336 61 339 c 0
 61 346 68 350 73 350 c 0
 78 350 83 347 86 344 c 2
 188 247 l 2
 204 232 212 225 212 218 c 0
 212 211 204 203 188 188 c 2
342 188 m 2
 239 92 l 2
 236 89 231 86 226 86 c 0
 221 86 215 89 215 96 c 0
 215 99 217 103 219 107 c 2
 269 194 l 2
 275 204 279 212 279 218 c 0
 279 224 275 231 269 241 c 2
 219 328 l 2
 217 332 215 336 215 339 c 0
 215 346 221 350 226 350 c 0
 231 350 236 347 239 344 c 2
 342 247 l 2
 358 232 365 225 365 218 c 0
 365 211 358 203 342 188 c 2
EndSplineSet
EndChar

StartChar: guilsinglleft
Encoding: 8249 8249 104
Width: 263
VWidth: 488
Flags: W
HStem: 86 264<185 195>
VStem: 51 86<189.993 245.01>
AnchorPoint: "l;bl" 0 10 basechar 0
AnchorPoint: "l;x" 0 389 basechar 0
AnchorPoint: "l;o" 0 215 basechar 0
AnchorPoint: "r;bl" 263 10 basechar 0
AnchorPoint: "r;x" 263 389 basechar 0
AnchorPoint: "r;o" 263 215 basechar 0
LayerCount: 3
Fore
SplineSet
75 247 m 2
 177 344 l 2
 180 347 185 350 190 350 c 0
 195 350 201 346 201 339 c 0
 201 336 199 332 197 328 c 2
 147 241 l 2
 141 231 137 224 137 218 c 0
 137 212 141 204 147 194 c 2
 197 107 l 2
 199 103 201 99 201 96 c 0
 201 89 195 86 190 86 c 0
 185 86 180 89 177 92 c 2
 75 188 l 2
 59 203 51 211 51 218 c 0
 51 225 59 232 75 247 c 2
EndSplineSet
EndChar

StartChar: guilsinglright
Encoding: 8250 8250 105
Width: 248
VWidth: 488
Flags: W
HStem: 86 264<47 57>
VStem: 105 86<189.654 245.348>
AnchorPoint: "l;bl" 0 10 basechar 0
AnchorPoint: "l;x" 0 389 basechar 0
AnchorPoint: "l;o" 0 215 basechar 0
AnchorPoint: "r;bl" 248 10 basechar 0
AnchorPoint: "r;x" 248 389 basechar 0
AnchorPoint: "r;o" 248 215 basechar 0
LayerCount: 3
Fore
SplineSet
168 188 m 2
 65 92 l 2
 62 89 57 86 52 86 c 0
 47 86 41 89 41 96 c 0
 41 99 43 103 45 107 c 2
 95 194 l 2
 101 204 105 212 105 218 c 0
 105 224 101 231 95 241 c 2
 45 328 l 2
 43 332 41 336 41 339 c 0
 41 346 47 350 52 350 c 0
 57 350 62 347 65 344 c 2
 168 247 l 2
 184 232 191 225 191 218 c 0
 191 211 184 203 168 188 c 2
EndSplineSet
EndChar

StartChar: slash
Encoding: 47 47 106
Width: 476
VWidth: 488
Flags: W
DStem2: 60 -167 100 -207 0.345805 0.938306<-60.5825 951.571>
AnchorPoint: "l;bl" 0 10 basechar 0
AnchorPoint: "l;x" 80 389 basechar 0
AnchorPoint: "l;hi" 165 675 basechar 0
AnchorPoint: "l;o" 40 215 basechar 0
AnchorPoint: "l;k;lo" 0 -204 basechar 0
AnchorPoint: "r;bl" 375 10 basechar 0
AnchorPoint: "r;x" 476 389 basechar 0
AnchorPoint: "r;k;hi" 476 675 basechar 0
AnchorPoint: "r;o" 435 215 basechar 0
AnchorPoint: "r;lo" 315 -204 basechar 0
LayerCount: 3
Fore
SplineSet
41 -225 m 0
 41 -216 52 -191 60 -167 c 2
 60 -167 382 695 384 702 c 0
 389 717 396 721 414 721 c 0
 423 721 436 719 436 709 c 0
 436 700 426 677 421 664 c 2
 100 -207 l 2
 90 -237 83 -238 70 -238 c 2
 65 -238 l 2
 53 -238 41 -237 41 -225 c 0
EndSplineSet
EndChar

StartChar: backslash
Encoding: 92 92 107
Width: 476
VWidth: 488
Flags: W
DStem2: 92 702 55 664 0.345805 -0.938306<-23.7966 988.357>
AnchorPoint: "l;lo" 165 -204 basechar 0
AnchorPoint: "l;o" 40 215 basechar 0
AnchorPoint: "l;k;hi" 0 675 basechar 0
AnchorPoint: "l;x" 0 389 basechar 0
AnchorPoint: "l;bl" 100 10 basechar 0
AnchorPoint: "r;k;lo" 476 -204 basechar 0
AnchorPoint: "r;o" 436 215 basechar 0
AnchorPoint: "r;hi" 311 675 basechar 0
AnchorPoint: "r;x" 396 389 basechar 0
AnchorPoint: "r;bl" 476 10 basechar 0
LayerCount: 3
Fore
SplineSet
436 -225 m 0
 436 -238 421 -238 409 -238 c 2
 406 -238 l 2
 392 -238 386 -237 376 -207 c 2
 55 664 l 2
 50 677 41 700 41 709 c 0
 41 719 53 721 62 721 c 0
 80 721 87 717 92 702 c 0
 94 695 416 -167 416 -167 c 2
 424 -191 436 -216 436 -225 c 0
EndSplineSet
EndChar

StartChar: plus
Encoding: 43 43 108
Width: 527
VWidth: 488
Flags: W
HStem: -22 21G<262 277.5> 192 45<32.0031 246 292.192 506.998>
VStem: 246 46<-21.9914 191.996 237 451.984>
AnchorPoint: "l;bl" 0 10 basechar 0
AnchorPoint: "l;x" 0 389 basechar 0
AnchorPoint: "l;hi" 0 675 basechar 0
AnchorPoint: "l;o" 0 215 basechar 0
AnchorPoint: "l;lo" 0 -204 basechar 0
AnchorPoint: "r;bl" 527 10 basechar 0
AnchorPoint: "r;x" 527 389 basechar 0
AnchorPoint: "r;hi" 527 675 basechar 0
AnchorPoint: "r;o" 527 215 basechar 0
AnchorPoint: "r;lo" 527 -204 basechar 0
LayerCount: 3
Fore
SplineSet
32 217 m 0
 32 230 32 237 50 237 c 2
 224 237 l 2
 243 237 246 246 246 257 c 2
 246 437 l 2
 246 452 254 452 268 452 c 0
 282 452 292 451 292 431 c 2
 292 265 l 2
 292 251 294 237 310 237 c 2
 491 237 l 2
 507 237 507 230 507 216 c 0
 507 199 507 192 486 192 c 2
 310 192 l 2
 293 192 292 186 292 174 c 2
 292 -5 l 2
 292 -22 283 -22 272 -22 c 0
 252 -22 246 -22 246 -4 c 2
 246 174 l 2
 246 192 239 192 222 192 c 2
 49 192 l 2
 31 192 32 200 32 217 c 0
EndSplineSet
EndChar

StartChar: less
Encoding: 60 60 109
Width: 527
VWidth: 488
Flags: W
AnchorPoint: "l;bl" 0 10 basechar 0
AnchorPoint: "l;x" 0 389 basechar 0
AnchorPoint: "l;hi" 0 675 basechar 0
AnchorPoint: "l;o" 0 215 basechar 0
AnchorPoint: "l;lo" 0 -204 basechar 0
AnchorPoint: "r;bl" 527 10 basechar 0
AnchorPoint: "r;x" 527 389 basechar 0
AnchorPoint: "r;hi" 527 675 basechar 0
AnchorPoint: "r;o" 527 215 basechar 0
AnchorPoint: "r;lo" 527 -204 basechar 0
LayerCount: 3
Fore
SplineSet
42 216 m 0
 42 226 42 230 57 236 c 0
 473 387 473 390 479 390 c 0
 488 390 498 385 498 364 c 0
 498 355 490 350 482 348 c 2
 170 234 l 2
 151 227 127 218 127 213 c 0
 127 208 150 201 170 194 c 2
 487 80 l 2
 493 78 498 73 498 66 c 0
 498 58 491 42 473 42 c 0
 467 42 470 42 56 192 c 0
 42 197 42 202 42 216 c 0
EndSplineSet
EndChar

StartChar: equal
Encoding: 61 61 110
Width: 527
VWidth: 488
Flags: W
HStem: 112 46<32.0031 506.992> 272 45<32.0031 506.998>
AnchorPoint: "l;bl" 0 10 basechar 0
AnchorPoint: "l;x" 0 389 basechar 0
AnchorPoint: "l;hi" 0 675 basechar 0
AnchorPoint: "l;o" 0 215 basechar 0
AnchorPoint: "l;lo" 0 -204 basechar 0
AnchorPoint: "r;bl" 527 10 basechar 0
AnchorPoint: "r;x" 527 389 basechar 0
AnchorPoint: "r;hi" 527 675 basechar 0
AnchorPoint: "r;o" 527 215 basechar 0
AnchorPoint: "r;lo" 527 -204 basechar 0
LayerCount: 3
Fore
SplineSet
32 137 m 0
 32 150 32 158 50 158 c 2
 491 158 l 2
 507 158 507 151 507 137 c 0
 507 120 507 112 486 112 c 2
 49 112 l 2
 31 112 32 120 32 137 c 0
32 297 m 0
 32 310 32 317 50 317 c 2
 491 317 l 2
 507 317 507 310 507 296 c 0
 507 279 507 272 486 272 c 2
 49 272 l 2
 31 272 32 280 32 297 c 0
EndSplineSet
EndChar

StartChar: greater
Encoding: 62 62 111
Width: 527
VWidth: 488
Flags: W
AnchorPoint: "l;bl" 0 10 basechar 0
AnchorPoint: "l;x" 0 389 basechar 0
AnchorPoint: "l;hi" 0 675 basechar 0
AnchorPoint: "l;o" 0 215 basechar 0
AnchorPoint: "l;lo" 0 -204 basechar 0
AnchorPoint: "r;bl" 527 10 basechar 0
AnchorPoint: "r;x" 527 389 basechar 0
AnchorPoint: "r;hi" 527 675 basechar 0
AnchorPoint: "r;o" 527 215 basechar 0
AnchorPoint: "r;lo" 527 -204 basechar 0
LayerCount: 3
Fore
SplineSet
42 66 m 0
 42 73 46 78 52 80 c 2
 370 194 l 2
 390 201 413 208 413 213 c 0
 413 218 389 227 370 234 c 2
 57 348 l 2
 49 350 42 355 42 364 c 0
 42 385 51 390 60 390 c 0
 66 390 66 387 482 236 c 0
 497 230 498 226 498 216 c 0
 498 202 497 197 483 192 c 0
 69 42 71 42 65 42 c 0
 47 42 42 58 42 66 c 0
EndSplineSet
EndChar

StartChar: multiply
Encoding: 215 215 112
Width: 527
VWidth: 488
Flags: W
HStem: 177 78<243.391 295.781>
VStem: 231 76<189.391 241.562>
DStem2: 252 267 97 355 0.705971 -0.708241<-182.998 21.6781 75.8766 282.75> 222 199 130 43 0.705971 0.708241<-188.763 17.4323 74.3544 277.723>
AnchorPoint: "l;bl" 0 10 basechar 0
AnchorPoint: "l;x" 0 389 basechar 0
AnchorPoint: "l;hi" 0 675 basechar 0
AnchorPoint: "l;o" 0 215 basechar 0
AnchorPoint: "l;lo" 0 -204 basechar 0
AnchorPoint: "r;bl" 527 10 basechar 0
AnchorPoint: "r;x" 527 389 basechar 0
AnchorPoint: "r;hi" 527 675 basechar 0
AnchorPoint: "r;o" 527 215 basechar 0
AnchorPoint: "r;lo" 527 -204 basechar 0
LayerCount: 3
Fore
SplineSet
439 352 m 2
 315 228 l 2
 310 223 307 218 307 215 c 0
 307 211 311 206 315 202 c 2
 442 76 l 2
 447 71 448 66 448 63 c 0
 448 55 428 36 421 36 c 0
 418 36 413 38 408 43 c 2
 282 170 l 2
 277 175 273 177 269 177 c 0
 264 177 260 173 253 166 c 2
 130 43 l 2
 125 38 121 36 118 36 c 0
 111 36 91 54 91 62 c 0
 91 66 94 71 99 76 c 2
 222 199 l 2
 228 205 231 211 231 215 c 0
 231 220 228 224 224 228 c 2
 97 355 l 2
 93 359 90 363 90 366 c 0
 90 373 110 393 119 393 c 0
 123 393 128 389 133 384 c 2
 252 267 l 2
 258 261 264 255 271 255 c 0
 274 255 278 256 282 260 c 2
 410 388 l 2
 414 392 419 394 422 394 c 0
 428 394 448 376 448 366 c 0
 448 363 445 358 439 352 c 2
EndSplineSet
Layer: 2
SplineSet
88 358 m 4
 88 365 107 384 116 384 c 4
 120 384 125 381 130 376 c 6
 246 261 l 6
 252 255 258 249 265 249 c 4
 268 249 272 250 276 254 c 6
 401 379 l 6
 405 383 410 385 413 385 c 4
 420 385 438 367 438 359 c 4
 438 355 435 350 429 344 c 6
 308 223 l 6
 303 218 300 213 300 210 c 4
 300 206 304 202 308 198 c 6
 432 74 l 6
 437 69 438 65 438 62 c 4
 438 54 419 35 412 35 c 4
 409 35 404 37 399 42 c 6
 276 166 l 6
 271 171 267 173 263 173 c 4
 258 173 254 169 247 162 c 6
 127 42 l 6
 122 37 118 35 115 35 c 4
 108 35 89 53 89 61 c 4
 89 65 92 69 97 74 c 6
 217 195 l 6
 223 201 226 206 226 210 c 4
 226 215 223 219 219 223 c 6
 95 347 l 6
 91 351 88 355 88 358 c 4
EndSplineSet
EndChar

StartChar: divide
Encoding: 247 247 113
Width: 527
VWidth: 488
Flags: WO
HStem: 61 83<227.824 299.915> 192 45<32.0031 506.998> 286 83<223.359 294.915>
VStem: 222 84<67.0854 137.915 295.57 360.305>
AnchorPoint: "l;bl" 0 10 basechar 0
AnchorPoint: "l;x" 0 389 basechar 0
AnchorPoint: "l;hi" 0 675 basechar 0
AnchorPoint: "l;o" 0 215 basechar 0
AnchorPoint: "l;lo" 0 -204 basechar 0
AnchorPoint: "r;bl" 527 10 basechar 0
AnchorPoint: "r;x" 527 389 basechar 0
AnchorPoint: "r;hi" 527 675 basechar 0
AnchorPoint: "r;o" 527 215 basechar 0
AnchorPoint: "r;lo" 527 -204 basechar 0
LayerCount: 3
Fore
SplineSet
32 217 m 0
 32 230 32 237 50 237 c 2
 491 237 l 2
 507 237 507 230 507 216 c 0
 507 199 507 192 486 192 c 2
 49 192 l 2
 31 192 32 200 32 217 c 0
217 327 m 0
 217 349 238 369 260 369 c 0
 282 369 301 350 301 328 c 0
 301 306 281 286 259 286 c 0
 237 286 217 305 217 327 c 0
222 103 m 0
 222 125 242 144 264 144 c 0
 286 144 306 124 306 102 c 0
 306 80 287 61 265 61 c 0
 243 61 222 79 222 103 c 0
EndSplineSet
EndChar

StartChar: minus
Encoding: 8722 8722 114
Width: 527
VWidth: 488
Flags: W
HStem: 192 45<32.0352 506.998>
AnchorPoint: "l;bl" 0 10 basechar 0
AnchorPoint: "l;x" 0 389 basechar 0
AnchorPoint: "l;hi" 0 675 basechar 0
AnchorPoint: "l;o" 0 215 basechar 0
AnchorPoint: "l;lo" 0 -204 basechar 0
AnchorPoint: "r;bl" 527 10 basechar 0
AnchorPoint: "r;x" 527 389 basechar 0
AnchorPoint: "r;hi" 527 675 basechar 0
AnchorPoint: "r;o" 527 215 basechar 0
AnchorPoint: "r;lo" 527 -204 basechar 0
LayerCount: 3
Fore
SplineSet
32 217 m 0
 32 230 32 237 50 237 c 2
 491 237 l 2
 507 237 507 230 507 216 c 0
 507 199 507 192 486 192 c 2
 49 192 l 2
 34 192 32 200 32 217 c 0
EndSplineSet
EndChar

StartChar: f_f
Encoding: 65542 -1 145
Width: 554
VWidth: 0
Flags: W
HStem: 0 28<27.0587 85.5 166.259 240.989 287.059 347.037 430.23 499.668> 348 27<31.6619 79.3423> 369 41<431.739 536> 369 35<173.25 353.578 421.127 521.4> 637 41<240.333 346.993> 644 53<495.236 607.023>
VStem: 97 65<34.0964 354.915 389.012 522.37> 353 69<35.7224 368.992 404.005 530.637>
AnchorPoint: "l;bl" 0 10 basechar 0
AnchorPoint: "l;x" 15 389 basechar 0
AnchorPoint: "l;o" 10 215 basechar 0
AnchorPoint: "r;bl" 524 10 basechar 0
AnchorPoint: "r;x" 554 389 basechar 0
AnchorPoint: "r;o" 539 215 basechar 0
LayerCount: 3
Fore
SplineSet
236 619 m 0x9b
 197 594 162 514 162 408 c 0
 162 398 164 389 173 389 c 0
 177 389 267 399 327 399 c 0
 342 399 356 400 356 404 c 0
 356 474 371 531 391 570 c 0
 394 576 399 585 399 587 c 0
 399 590 393 592 384 596 c 0
 377 599 368 603 360 608 c 0
 345 618 319 637 299 637 c 0
 275 637 254 630 236 619 c 0x9b
572 697 m 0x87
 594 697 639 690 639 663 c 0
 639 643 613 620 594 620 c 0
 565 620 546 644 529 644 c 0
 468 644 419 574 419 421 c 0
 419 411 422 404 431 404 c 0x97
 446 404 510 410 522 410 c 0
 529 410 536 407 536 398 c 2
 536 387 l 2
 536 373 532 369 522 369 c 2
 438 369 l 2xa3
 424 369 421 359 421 350 c 0
 421 340 422 260 422 216 c 2
 422 89 l 2
 422 28 434 36 474 34 c 0
 487 33 500 31 500 18 c 0
 500 6 494 1 483 1 c 0
 453 1 425 0 383 0 c 0
 351 0 333 -2 308 -2 c 0
 296 -2 287 3 287 13 c 0
 287 25 301 29 314 29 c 2
 324 29 l 2
 350 29 353 52 353 78 c 2
 354 344 l 2
 354 364 352 371 335 371 c 0
 303 371 217 367 174 361 c 0
 156 359 158 356 158 345 c 0
 160 261 162 174 162 89 c 0
 162 28 163 35 209 31 c 0
 226 29 241 27 241 14 c 0
 241 2 229 0 218 0 c 0
 188 0 171 2 129 2 c 0
 99 2 73 0 48 0 c 0
 36 0 27 3 27 13 c 0
 27 25 38 27 48 28 c 0
 89 32 92 44 93 80 c 2
 98 336 l 2
 98 344 98 355 80 355 c 0
 66 355 50 348 40 348 c 0
 35 348 31 350 31 358 c 0
 31 367 43 373 49 375 c 0
 77 383 97 379 97 390 c 0
 97 542 165 678 346 678 c 0xcb
 368 678 392 675 417 661 c 0
 436 650 441 642 445 642 c 0
 448 642 449 646 461 654 c 0
 488 671 520 697 572 697 c 0x87
EndSplineSet
Ligature2: "'liga' Standard Ligatures in Latin lookup 4 subtable" f f
LCarets2: 1 0 
EndChar

StartChar: f_i
Encoding: 65543 -1 146
Width: 529
VWidth: 0
Flags: W
HStem: -2 31<24.0118 89.316 179.004 258.988 297.093 361.086 450.38 511.815> 340 33<26.0432 80.2486> 372 29<168.521 358.727> 660 47<238.003 339.5>
VStem: 95 72<36.4834 349.994 401.006 556.669> 366 73<38.9005 364.551>
AnchorPoint: "l;o" 10 215 basechar 0
AnchorPoint: "l;x" 15 389 basechar 0
AnchorPoint: "l;bl" 0 10 basechar 0
AnchorPoint: "r;bl" 529 10 basechar 0
AnchorPoint: "r;x" 519 389 basechar 0
AnchorPoint: "r;o" 519 215 basechar 0
LayerCount: 3
Fore
SplineSet
263 372 m 2xbc
 232 372 l 2xbc
 201 372 167 370 167 352 c 2
 167 332 l 2
 167 258 172 181 172 107 c 2
 172 84 l 2
 172 41 182 34 206 33 c 2
 226 32 l 2
 243 31 259 27 259 14 c 0
 259 2 246 -1 235 -1 c 0
 205 -1 180 0 138 0 c 0
 99 0 65 -2 40 -2 c 0
 28 -2 24 3 24 13 c 0
 24 25 37 29 50 29 c 2
 60 29 l 2
 89 29 94 35 95 104 c 0
 96 181 96 258 96 335 c 0
 96 342 95 350 81 350 c 0
 65 350 47 340 37 340 c 0
 30 340 26 344 26 356 c 0
 26 365 41 371 47 373 c 0xdc
 74 382 95 384 95 395 c 0
 95 515 115 599 185 653 c 0
 209 671 263 707 323 707 c 0
 356 707 415 702 415 664 c 0
 415 642 393 621 367 621 c 0
 322 621 305 660 276 660 c 0
 192 660 167 540 167 419 c 0
 167 409 170 401 179 401 c 0
 216 401 294 407 335 410 c 0
 361 412 387 416 398 429 c 0
 404 437 413 455 425 455 c 0
 431 455 440 451 440 437 c 0
 440 428 439 248 439 86 c 0
 439 47 446 40 479 35 c 0
 498 32 512 28 512 17 c 0
 512 4 507 0 493 0 c 0
 468 0 431 1 407 1 c 0
 371 1 341 -2 321 -2 c 0
 310 -2 297 3 297 15 c 0
 297 27 305 30 317 31 c 0
 362 33 366 36 366 83 c 0
 366 153 364 269 364 342 c 0
 364 353 362 359 346 364 c 0
 326 370 291 372 263 372 c 2xbc
EndSplineSet
Ligature2: "'liga' Standard Ligatures in Latin lookup 4 subtable" f i
LCarets2: 1 0 
EndChar

StartChar: f_l
Encoding: 65544 -1 147
Width: 527
VWidth: 0
Flags: W
HStem: 0 32<26.008 87.7122 159.566 237.987> 1 38<282.301 347.281 425.655 499.939> 357 29<29.4674 73.5767> 374 31<158.529 270.874> 656 38<220.53 338.359> 681 20G<401 414.5>
VStem: 95 63<32.797 361.692 405.003 545.879> 351 72<41.7678 644.863>
AnchorPoint: "l;bl" 0 10 basechar 0
AnchorPoint: "l;x" 15 389 basechar 0
AnchorPoint: "l;o" 10 215 basechar 0
AnchorPoint: "r;bl" 527 10 basechar 0
AnchorPoint: "r;x" 517 389 basechar 0
AnchorPoint: "r;hi" 517 675 basechar 0
AnchorPoint: "r;o" 517 215 basechar 0
LayerCount: 3
Fore
SplineSet
307 694 m 0xab
 329 694 360 686 367 686 c 0
 382 686 392 701 410 701 c 0
 419 701 424 693 424 683 c 0
 424 657 423 633 423 612 c 2
 423 75 l 2
 423 49 434 42 458 39 c 0
 479 36 500 36 500 19 c 0
 500 7 490 1 479 1 c 0x47
 455 1 452 2 393 2 c 0
 367 2 316 0 306 0 c 0
 289 0 282 6 282 17 c 0
 282 33 299 34 311 35 c 0
 347 38 348 50 348 72 c 0
 348 167 349 188 351 400 c 2
 352 552 l 2
 352 582 351 614 343 631 c 0
 335 648 306 656 277 656 c 0
 248 656 201 645 180 574 c 0
 168 534 158 498 158 419 c 0
 158 409 162 405 171 405 c 0
 183 405 218 408 240 408 c 0
 246 408 251 407 255 407 c 0
 264 406 271 407 271 392 c 0
 271 377 261 374 249 374 c 0
 222 374 204 374 174 370 c 0
 162 369 158 362 158 354 c 0
 158 266 157 177 157 89 c 0
 157 29 160 33 203 32 c 0x9b
 220 32 238 29 238 16 c 0
 238 4 227 -2 216 -2 c 0
 186 -2 162 1 120 1 c 0x43
 81 1 69 0 44 0 c 0
 32 0 26 6 26 16 c 0
 26 28 37 32 50 32 c 2
 60 32 l 2
 87 32 89 35 89 76 c 2
 90 345 l 2
 90 353 92 362 74 362 c 0
 65 362 54 359 45 357 c 0
 29 353 24 352 24 364 c 0
 24 370 41 381 58 386 c 0
 75 391 95 392 95 396 c 0
 95 505 119 568 156 621 c 0
 184 662 237 694 307 694 c 0xab
EndSplineSet
Ligature2: "'liga' Standard Ligatures in Latin lookup 4 subtable" f l
LCarets2: 1 0 
EndChar

StartChar: f_f_i
Encoding: 65545 -1 148
Width: 784
VWidth: 0
Flags: W
HStem: -2 26<28.2076 88.3865> -1 32<165.79 245.827 287.093 349.942 427.816 506.991 555.017 621.733 698.204 764.991> 340 25<29.2111 79.3409> 369 27<178.044 351.483 426.97 616.941> 640 37<255.412 345.101> 655 42<500.954 590.603>
VStem: 96 67<71 350.625 389.554 505.414> 356 66<34.4869 364.885 396.077 537.209> 625 70<33.0074 367.572>
AnchorPoint: "r;o" 774 215 basechar 0
AnchorPoint: "r;x" 774 389 basechar 0
AnchorPoint: "r;bl" 784 10 basechar 0
AnchorPoint: "l;o" 10 215 basechar 0
AnchorPoint: "l;x" 15 389 basechar 0
AnchorPoint: "l;bl" 0 10 basechar 0
LayerCount: 3
Fore
SplineSet
80 351 m 0xb380
 66 351 48 340 38 340 c 0
 33 340 29 343 29 351 c 0
 29 359 41 363 47 365 c 0
 61 371 75 374 85 377 c 0
 99 381 100 387 100 397 c 0
 100 494 137 585 208 634 c 0
 241 656 289 677 337 677 c 0xbb80
 363 677 383 673 405 660 c 0
 425 648 433 628 437 628 c 0
 440 628 450 642 461 651 c 0
 488 671 527 697 587 697 c 0
 620 697 676 689 676 658 c 0
 676 642 658 620 632 620 c 0
 598 620 572 655 543 655 c 0
 468 655 426 551 426 419 c 0
 426 409 429 396 438 396 c 0
 475 396 553 401 594 404 c 0
 620 406 641 405 658 429 c 0
 664 437 675 455 684 455 c 0
 690 455 696 451 696 437 c 0
 695 390 695 332 695 262 c 2
 695 188 l 2
 695 150 695 108 696 65 c 0
 697 30 709 32 729 31 c 2
 747 30 l 2
 759 29 765 22 765 15 c 0
 765 2 753 -1 746 -1 c 0
 721 -1 690 0 666 0 c 0
 630 0 610 -1 590 -1 c 0
 579 -1 555 3 555 15 c 0
 555 27 564 31 576 31 c 0
 621 32 625 35 625 82 c 2
 625 280 l 2
 625 302 625 324 622 342 c 0
 618 366 606 369 588 369 c 2
 558 369 l 2
 528 369 491 368 463 367 c 0
 428 366 422 365 422 332 c 0
 422 250 423 165 423 83 c 0
 423 40 433 31 457 30 c 2
 478 29 l 2
 495 28 507 28 507 15 c 0
 507 3 496 1 485 1 c 0
 455 1 438 2 396 2 c 2
 304 2 l 2
 292 2 287 7 287 17 c 0
 287 29 301 33 314 33 c 0
 353 33 354 38 354 103 c 0
 354 180 356 258 356 335 c 0
 356 342 354 365 337 365 c 0
 301 365 219 364 176 360 c 0
 163 359 163 344 163 336 c 2
 163 293 l 2
 163 226 162 157 162 88 c 0
 162 27 171 30 214 28 c 0
 231 27 246 26 246 13 c 0
 246 1 234 -1 223 -1 c 0x7780
 193 -1 171 0 129 0 c 0
 99 0 73 -2 48 -2 c 0
 36 -2 28 -1 28 9 c 0
 28 18 38 23 48 24 c 0
 89 28 93 29 93 71 c 2
 96 336 l 2
 96 346 90 351 80 351 c 0xb380
165 408 m 0
 165 398 166 389 176 389 c 2
 176 389 269 395 319 395 c 0
 337 395 356 396 356 404 c 0
 356 474 371 531 391 570 c 0
 394 576 399 585 399 587 c 0
 399 590 393 592 384 596 c 0
 358 607 334 640 299 640 c 0
 217 639 165 541 165 408 c 0
EndSplineSet
Ligature2: "'liga' Standard Ligatures in Latin lookup 4 subtable" f f i
LCarets2: 2 0 0 
EndChar

StartChar: f_f_l
Encoding: 65546 -1 149
Width: 799
VWidth: 0
Flags: W
HStem: 0 31<28.7427 74 165.788 233.928 290.02 331 436.846 505.694 547.129 613.443> 3 36<691.424 773.821> 346 24<23.4429 76.1541> 371 30<171.35 358.991> 375 33<439.397 533.991> 639 41<242.61 343.158> 658 43<487.457 621.399>
VStem: 96 64<32.0781 354.984 392.004 521.716> 359 63<126.179 370.98 406.182 560.957> 360 72<32.6328 325.092> 609 75<365.643 650.558> 619 71<39.7508 301.912>
AnchorPoint: "r;o" 789 215 basechar 0
AnchorPoint: "r;hi" 789 675 basechar 0
AnchorPoint: "r;x" 789 389 basechar 0
AnchorPoint: "r;bl" 799 10 basechar 0
AnchorPoint: "l;bl" 0 10 basechar 0
AnchorPoint: "l;x" 15 389 basechar 0
AnchorPoint: "l;o" 10 215 basechar 0
LayerCount: 3
Fore
SplineSet
228 621 m 0x3580
 189 596 160 514 160 408 c 0x2d80
 160 398 162 392 171 392 c 0
 177 392 278 401 349 401 c 0
 356 401 359 402 359 413 c 0
 360 478 366 533 385 570 c 0
 388 576 394 585 394 587 c 0
 394 590 388 592 379 596 c 0
 358 605 343 622 319 633 c 0
 310 637 300 639 290 639 c 0
 258 639 240 628 228 621 c 0x3580
339 371 m 0xb180
 312 371 216 366 173 362 c 0
 155 360 157 356 157 345 c 0
 159 261 162 174 162 89 c 0
 162 39 166 31 196 31 c 2
 210 31 l 2
 228 31 234 24 234 14 c 0
 234 4 228 0 217 0 c 0
 187 0 170 1 128 1 c 0
 98 1 71 -2 46 -2 c 0
 34 -2 28 1 28 11 c 0
 28 20 35 24 45 25 c 2
 74 29 l 2
 82 30 95 45 95 55 c 2
 94 336 l 2
 94 344 94 355 77 355 c 0
 59 355 38 346 32 346 c 0
 28 346 22 346 22 354 c 0
 22 363 40 368 46 370 c 0
 74 378 96 377 96 385 c 0
 96 513 140 603 220 648 c 0
 250 665 282 680 336 680 c 0xb580
 368 680 390 673 412 661 c 0
 421 656 431 643 435 643 c 0
 438 643 443 648 450 654 c 0
 480 681 522 701 577 701 c 0
 605 701 631 694 638 694 c 0
 653 694 662 706 675 706 c 0
 684 706 687 698 687 688 c 0
 687 662 684 590 684 569 c 2x23a0
 690 76 l 2
 690 50 694 40 716 39 c 2
 751 37 l 2
 763 36 774 30 774 19 c 0
 774 7 764 3 753 3 c 2x6310
 661 2 l 2
 635 2 584 0 574 0 c 0
 557 0 547 6 547 17 c 0
 547 33 567 31 579 32 c 0
 587 32 594 32 599 34 c 0
 615 40 619 56 619 73 c 0xa110
 619 203 612 449 609 604 c 0
 609 617 608 629 605 637 c 0
 600 650 571 658 542 658 c 0
 510 658 463 645 442 574 c 0
 430 534 422 498 422 419 c 0
 422 409 426 406 435 406 c 0
 449 406 459 408 516 408 c 0
 525 408 534 405 534 392 c 0
 534 379 522 375 512 375 c 0
 485 374 468 375 438 372 c 0
 426 371 422 362 422 354 c 0xaba0
 424 266 428 177 432 89 c 0
 435 35 437 32 468 32 c 2
 491 32 l 2
 501 32 506 29 506 19 c 0
 506 5 494 2 483 2 c 0
 453 2 430 1 388 1 c 0
 349 1 334 0 309 0 c 0
 297 0 290 6 290 16 c 0
 290 28 302 30 315 31 c 2
 331 32 l 2
 358 34 360 33 360 62 c 2xab40
 359 355 l 2
 359 366 357 371 339 371 c 0xb180
EndSplineSet
Ligature2: "'liga' Standard Ligatures in Latin lookup 4 subtable" f f l
LCarets2: 2 0 0 
EndChar

StartChar: exclamdown
Encoding: 161 161 150
Width: 264
VWidth: 0
Flags: W
HStem: -13 21G<90 125> 567 96<73.0684 153.615>
VStem: 61 94<-3 192.775> 65 97<575.385 655.248>
AnchorPoint: "l;bl" 0 10 basechar 0
AnchorPoint: "l;x" 0 389 basechar 0
AnchorPoint: "l;hi" 0 675 basechar 0
AnchorPoint: "l;o" 0 215 basechar 0
AnchorPoint: "l;lo" 0 -204 basechar 0
AnchorPoint: "r;bl" 264 10 basechar 0
AnchorPoint: "r;x" 264 389 basechar 0
AnchorPoint: "r;hi" 264 675 basechar 0
AnchorPoint: "r;o" 264 215 basechar 0
AnchorPoint: "r;lo" 264 -204 basechar 0
LayerCount: 3
Fore
SplineSet
155 75 m 2xe0
 155 28 149 -13 101 -13 c 0
 79 -13 61 2 61 22 c 0
 61 35 70 72 71 84 c 0
 86 212 91 279 96 469 c 0
 96 485 97 500 112 500 c 0
 128 500 132 486 133 469 c 0
 142 323 155 176 155 92 c 2
 155 75 l 2xe0
162 616 m 0xd0
 162 589 140 567 113 567 c 0
 86 567 65 589 65 616 c 0
 65 643 86 663 113 663 c 0
 140 663 162 643 162 616 c 0xd0
EndSplineSet
EndChar

StartChar: questiondown
Encoding: 191 191 151
Width: 392
VWidth: 250
Flags: W
HStem: -13 39<163.593 263> 519 96<159.44 240.56>
VStem: 41 59<119.228 257.307> 152 96<526.44 607.56> 242 44<321 443.526>
AnchorPoint: "l;bl" 0 10 basechar 0
AnchorPoint: "l;x" 0 389 basechar 0
AnchorPoint: "l;hi" 0 675 basechar 0
AnchorPoint: "l;o" 0 215 basechar 0
AnchorPoint: "l;lo" 0 -204 basechar 0
AnchorPoint: "r;bl" 392 10 basechar 0
AnchorPoint: "r;x" 392 389 basechar 0
AnchorPoint: "r;hi" 392 675 basechar 0
AnchorPoint: "r;o" 392 215 basechar 0
AnchorPoint: "r;lo" 392 -204 basechar 0
LayerCount: 3
Fore
SplineSet
310 35 m 0xe8
 310 4 280 -13 246 -13 c 0
 117 -13 41 106 41 228 c 0
 41 322 120 357 228 357 c 0
 238 357 242 377 242 387 c 0
 242 422 231 447 225 462 c 0
 221 471 222 480 233 480 c 0
 237 480 241 478 244 475 c 0
 278 439 286 371 286 338 c 0
 286 304 259 303 220 299 c 0
 119 288 100 244 100 183 c 0
 100 101 153 26 196 26 c 0
 233 26 249 70 276 70 c 0
 293 70 310 55 310 35 c 0xe8
248 567 m 0xf0
 248 540 227 519 200 519 c 0
 173 519 152 540 152 567 c 0
 152 594 173 615 200 615 c 0
 227 615 248 594 248 567 c 0xf0
EndSplineSet
EndChar

StartChar: afii00208
Encoding: 8213 8213 152
Width: 787
VWidth: 250
Flags: W
HStem: 193 51<5.06836 781.918>
AnchorPoint: "l;bl" 20 10 basechar 0
AnchorPoint: "l;x" 20 389 basechar 0
AnchorPoint: "l;o" 0 215 basechar 0
AnchorPoint: "r;bl" 767 10 basechar 0
AnchorPoint: "r;x" 767 389 basechar 0
AnchorPoint: "r;o" 787 215 basechar 0
LayerCount: 3
Fore
SplineSet
19 244 m 2
 768 244 l 2
 780 244 782 232 782 218 c 0
 782 204 780 193 768 193 c 2
 19 193 l 2
 6 193 5 205 5 220 c 0
 5 234 7 244 19 244 c 2
EndSplineSet
EndChar

StartChar: quotesinglbase
Encoding: 8218 8218 153
Width: 226
VWidth: 0
Flags: W
HStem: -95 174<92 129.683>
VStem: 113 61<-48.0932 29.5>
AnchorPoint: "l;bl" 0 10 basechar 0
AnchorPoint: "l;o" 0 215 basechar 0
AnchorPoint: "l;lo" 0 -204 basechar 0
AnchorPoint: "r;bl" 226 10 basechar 0
AnchorPoint: "r;o" 226 215 basechar 0
AnchorPoint: "r;lo" 226 -204 basechar 0
LayerCount: 3
Fore
SplineSet
113 79 m 0
 151 79 174 50 174 9 c 0
 174 -41 113 -95 97 -95 c 0
 92 -95 86 -92 86 -84 c 0
 86 -73 99 -60 107 -47 c 0
 110 -41 113 -35 113 -29 c 0
 113 -14 101 -5 90 3 c 0
 77 12 72 27 72 40 c 0
 72 60 85 79 113 79 c 0
EndSplineSet
EndChar

StartChar: quotereversed
Encoding: 8219 8219 154
Width: 226
VWidth: 0
Flags: W
HStem: 518 174<85.6302 124>
VStem: 41 61<565.848 643.5>
AnchorPoint: "l;x" 0 389 basechar 0
AnchorPoint: "l;hi" 0 675 basechar 0
AnchorPoint: "l;o" 0 215 basechar 0
AnchorPoint: "r;x" 226 389 basechar 0
AnchorPoint: "r;hi" 226 675 basechar 0
AnchorPoint: "r;o" 226 215 basechar 0
LayerCount: 3
Fore
SplineSet
102 692 m 0
 130 692 144 673 144 653 c 0
 144 640 139 626 126 617 c 0
 115 609 102 600 102 585 c 0
 102 579 105 572 108 566 c 0
 116 553 130 541 130 530 c 0
 130 522 124 518 119 518 c 0
 103 518 41 573 41 623 c 0
 41 664 64 692 102 692 c 0
EndSplineSet
EndChar

StartChar: quotedblbase
Encoding: 8222 8222 155
Width: 379
VWidth: 0
Flags: W
HStem: -95 174<92 129.683 246 283.683>
VStem: 113 61<-48.0932 29.5> 267 61<-48.0932 29.5>
AnchorPoint: "r;lo" 379 -204 basechar 0
AnchorPoint: "r;o" 379 215 basechar 0
AnchorPoint: "r;bl" 379 10 basechar 0
AnchorPoint: "l;lo" 0 -204 basechar 0
AnchorPoint: "l;o" 0 215 basechar 0
AnchorPoint: "l;bl" 0 10 basechar 0
LayerCount: 3
Fore
SplineSet
267 79 m 0
 305 79 328 50 328 9 c 0
 328 -41 267 -95 251 -95 c 0
 246 -95 239 -92 239 -84 c 0
 239 -73 253 -60 261 -47 c 0
 264 -41 267 -35 267 -29 c 0
 267 -14 254 -5 243 3 c 0
 230 12 225 27 225 40 c 0
 225 60 239 79 267 79 c 0
113 79 m 0
 151 79 174 50 174 9 c 0
 174 -41 113 -95 97 -95 c 0
 92 -95 86 -92 86 -84 c 0
 86 -73 99 -60 107 -47 c 0
 110 -41 113 -35 113 -29 c 0
 113 -14 101 -5 90 3 c 0
 77 12 72 27 72 40 c 0
 72 60 85 79 113 79 c 0
EndSplineSet
EndChar

StartChar: uni201F
Encoding: 8223 8223 156
Width: 379
VWidth: 0
Flags: W
HStem: 518 174<85.6302 124 238.63 277>
VStem: 41 61<565.848 643.5> 194 61<565.848 643.5>
AnchorPoint: "l;o" 0 215 basechar 0
AnchorPoint: "l;hi" 0 675 basechar 0
AnchorPoint: "l;x" 0 389 basechar 0
AnchorPoint: "r;o" 379 215 basechar 0
AnchorPoint: "r;hi" 379 675 basechar 0
AnchorPoint: "r;x" 379 389 basechar 0
LayerCount: 3
Fore
SplineSet
255 692 m 0
 283 692 298 673 298 653 c 0
 298 640 292 626 279 617 c 0
 268 609 255 600 255 585 c 0
 255 579 259 572 262 566 c 0
 270 553 283 541 283 530 c 0
 283 522 277 518 272 518 c 0
 256 518 194 573 194 623 c 0
 194 664 217 692 255 692 c 0
102 692 m 0
 130 692 144 673 144 653 c 0
 144 640 139 626 126 617 c 0
 115 609 102 600 102 585 c 0
 102 579 105 572 108 566 c 0
 116 553 130 541 130 530 c 0
 130 522 124 518 119 518 c 0
 103 518 41 573 41 623 c 0
 41 664 64 692 102 692 c 0
EndSplineSet
EndChar

StartChar: figuredash
Encoding: 8210 8210 157
Width: 450
VWidth: 250
Flags: W
HStem: 193 51<26.0684 423.918>
AnchorPoint: "l;bl" 0 10 basechar 0
AnchorPoint: "l;x" 0 389 basechar 0
AnchorPoint: "l;hi" 0 675 basechar 0
AnchorPoint: "l;lo" 0 -204 basechar 0
AnchorPoint: "r;bl" 450 10 basechar 0
AnchorPoint: "r;x" 450 389 basechar 0
AnchorPoint: "r;hi" 450 675 basechar 0
AnchorPoint: "r;o" 450 215 basechar 0
AnchorPoint: "r;lo" 450 -204 basechar 0
AnchorPoint: "l;o" 0 215 basechar 0
LayerCount: 3
Fore
SplineSet
40 244 m 2
 410 244 l 2
 422 244 424 232 424 218 c 0
 424 204 422 193 410 193 c 2
 40 193 l 2
 27 193 26 205 26 220 c 0
 26 234 28 244 40 244 c 2
EndSplineSet
EndChar

StartChar: dotlessi
Encoding: 305 305 158
Width: 268
VWidth: 0
Flags: W
HStem: -1 27<23.0109 89.1013 176.25 246.683> 350 29<43.0334 92.4129>
VStem: 99 68<31.647 290.848> 104 73<134.856 433>
AnchorPoint: "r;o" 258 215 basechar 0
AnchorPoint: "r;x" 258 389 basechar 0
AnchorPoint: "r;bl" 268 10 basechar 0
AnchorPoint: "l;o" 0 215 basechar 0
AnchorPoint: "l;x" 0 389 basechar 0
AnchorPoint: "l;bl" 0 10 basechar 0
AnchorPoint: "top" 128 469 basechar 0
LayerCount: 3
Fore
SplineSet
177 426 m 0xd0
 177 417 167 133 167 79 c 0
 167 40 177 29 211 29 c 2
 227 29 l 2
 239 29 247 25 247 17 c 0
 247 7 244 0 228 0 c 2
 42 -1 l 2
 31 -1 23 0 23 13 c 0
 23 25 38 26 42 26 c 2
 65 26 l 2
 83 26 97 39 99 78 c 0xe0
 102 144 104 227 104 294 c 0xd0
 104 325 100 343 62 350 c 0
 51 352 43 357 43 364 c 0
 43 369 48 377 62 379 c 0
 102 385 127 406 147 430 c 0
 153 438 163 444 167 444 c 0xe0
 171 444 177 440 177 426 c 0xd0
EndSplineSet
EndChar

StartChar: gravecomb
Encoding: 768 768 163
Width: 0
VWidth: 0
Flags: W
HStem: 491 186
VStem: -337 152
AnchorPoint: "top" -225 469 mark 0
LayerCount: 3
Fore
SplineSet
-337 650 m 0
 -337 671 -287 677 -283 677 c 0
 -279 677 -270 673 -263 657 c 0
 -210 529 -185 516 -185 502 c 0
 -185 496 -191 491 -197 491 c 0
 -205 491 -222 506 -237 522 c 0
 -279 566 -337 629 -337 650 c 0
EndSplineSet
EndChar

StartChar: uni0237
Encoding: 567 567 168
Width: 222
VWidth: 0
Flags: W
VStem: 83 71<-95.2264 428>
AnchorPoint: "r;lo" 122 -204 basechar 0
AnchorPoint: "r;o" 222 215 basechar 0
AnchorPoint: "r;x" 222 389 basechar 0
AnchorPoint: "r;bl" 222 10 basechar 0
AnchorPoint: "l;k;lo" 0 -204 basechar 0
AnchorPoint: "l;o" 0 215 basechar 0
AnchorPoint: "l;x" 0 389 basechar 0
AnchorPoint: "l;bl" 0 10 basechar 0
AnchorPoint: "top" 97 469 basechar 0
LayerCount: 3
Fore
SplineSet
154 428 m 4
 154 301 151 60 149 -1 c 4
 144 -126 83 -204 41 -231 c 4
 34 -235 27 -239 21 -239 c 4
 10 -239 6 -231 6 -227 c 4
 6 -222 9 -217 13 -214 c 4
 29 -199 49 -181 59 -153 c 4
 69 -125 80 -98 81 -24 c 4
 82 54 83 283 83 296 c 4
 83 336 82 353 54 361 c 4
 42 365 26 369 26 380 c 4
 26 383 27 389 39 394 c 4
 51 399 71 406 83 413 c 4
 101 423 115 435 124 442 c 4
 130 446 135 449 140 449 c 4
 147 449 154 442 154 428 c 4
EndSplineSet
EndChar

StartChar: gravecomb.cap
Encoding: 65548 -1 169
Width: 0
VWidth: 0
Flags: W
HStem: 491 186
VStem: -337 152
AnchorPoint: "top" -225 469 mark 0
LayerCount: 3
Fore
SplineSet
-337 650 m 0
 -337 671 -287 677 -283 677 c 0
 -279 677 -270 673 -263 657 c 0
 -210 529 -185 516 -185 502 c 0
 -185 496 -191 491 -197 491 c 0
 -205 491 -222 506 -237 522 c 0
 -279 566 -337 629 -337 650 c 0
EndSplineSet
EndChar

StartChar: acutecomb
Encoding: 769 769 175
Width: 0
VWidth: 0
Flags: W
HStem: 491 186
VStem: -264 152
AnchorPoint: "top" -225 469 mark 0
LayerCount: 3
Fore
SplineSet
-264 502 m 0
 -264 516 -240 529 -187 657 c 0
 -180 673 -170 677 -166 677 c 0
 -162 677 -112 671 -112 650 c 0
 -112 629 -170 566 -212 522 c 0
 -227 506 -244 491 -252 491 c 0
 -258 491 -264 496 -264 502 c 0
EndSplineSet
EndChar

StartChar: acutecomb.cap
Encoding: 65549 -1 176
Width: 0
VWidth: 0
Flags: W
HStem: 491 186
VStem: -264 152
AnchorPoint: "top" -225 469 mark 0
LayerCount: 3
Fore
SplineSet
-264 502 m 0
 -264 516 -240 529 -187 657 c 0
 -180 673 -170 677 -166 677 c 0
 -162 677 -112 671 -112 650 c 0
 -112 629 -170 566 -212 522 c 0
 -227 506 -244 491 -252 491 c 0
 -258 491 -264 496 -264 502 c 0
EndSplineSet
EndChar

StartChar: uni0302
Encoding: 770 770 177
Width: 0
VWidth: 0
Flags: W
HStem: 590 73<-253.982 -198.25>
VStem: -339 231<505 512>
AnchorPoint: "top" -225 469 mark 0
LayerCount: 3
Fore
SplineSet
-339 510 m 0
 -339 512 -337 515 -335 519 c 0
 -246 649 -256 663 -239 663 c 2
 -214 663 l 2
 -208 663 -202 662 -196 651 c 0
 -157 581 -108 521 -108 511 c 0
 -108 503 -117 503 -120 503 c 0
 -133 503 -218 590 -225 590 c 0
 -238 590 -315 504 -329 504 c 0
 -332 504 -339 505 -339 510 c 0
EndSplineSet
EndChar

StartChar: uni0302.cap
Encoding: 65550 -1 201
Width: 0
VWidth: 0
Flags: W
HStem: 589 61<-257.918 -196.224>
VStem: -339 231<517 522>
AnchorPoint: "top" -225 480 mark 0
LayerCount: 3
Fore
SplineSet
-339 521 m 0
 -339 522 -337 526 -335 529 c 0
 -246 639 -256 650 -239 650 c 2
 -214 650 l 2
 -208 650 -202 649 -196 640 c 0
 -157 581 -108 529 -108 521 c 0
 -108 514 -117 514 -120 514 c 0
 -133 514 -218 589 -225 589 c 0
 -238 589 -315 515 -329 515 c 0
 -332 515 -339 517 -339 521 c 0
EndSplineSet
EndChar

StartChar: uni0302.ascend
Encoding: 65551 -1 202
Width: 0
VWidth: 0
Flags: W
HStem: 589 61<-257.918 -196.224>
VStem: -339 231<517 522>
AnchorPoint: "top" -225 480 mark 0
LayerCount: 3
Fore
SplineSet
-339 521 m 0
 -339 522 -337 526 -335 529 c 0
 -246 639 -256 650 -239 650 c 2
 -214 650 l 2
 -208 650 -202 649 -196 640 c 0
 -157 581 -108 529 -108 521 c 0
 -108 514 -117 514 -120 514 c 0
 -133 514 -218 589 -225 589 c 0
 -238 589 -315 515 -329 515 c 0
 -332 515 -339 517 -339 521 c 0
EndSplineSet
EndChar

StartChar: uni0308
Encoding: 776 776 227
Width: 0
VWidth: 0
Flags: W
HStem: 558 82<-340.861 -266.233 -189.861 -115.233>
VStem: -346 84<563.39 635.115> -195 84<563.39 635.115>
AnchorPoint: "top" -225 469 mark 0
LayerCount: 3
Fore
SplineSet
-195 600 m 0
 -195 624 -176 640 -152 640 c 0
 -128 640 -111 622 -111 600 c 0
 -111 570 -128 558 -152 558 c 0
 -176 558 -195 576 -195 600 c 0
-346 600 m 0
 -346 624 -327 640 -303 640 c 0
 -279 640 -262 622 -262 600 c 0
 -262 570 -279 558 -303 558 c 0
 -327 558 -346 576 -346 600 c 0
EndSplineSet
Layer: 2
SplineSet
-336 591 m 4
 -336 608 -311 642 -289 642 c 4
 -266 642 -241 611 -241 591 c 4
 -241 567 -275 538 -284 538 c 4
 -313 538 -336 575 -336 591 c 4
-176 591 m 4
 -176 608 -151 642 -129 642 c 4
 -106 642 -81 611 -81 591 c 4
 -81 567 -116 538 -125 538 c 4
 -154 538 -176 575 -176 591 c 4
EndSplineSet
EndChar

StartChar: uni0307
Encoding: 775 775 228
Width: 0
VWidth: 0
Flags: W
HStem: 558 82<-258.861 -184.233>
VStem: -264 84<563.39 635.115>
AnchorPoint: "top" -225 469 mark 0
LayerCount: 3
Fore
SplineSet
-264 600 m 0
 -264 624 -245 640 -221 640 c 0
 -197 640 -180 622 -180 600 c 0
 -180 570 -197 558 -221 558 c 0
 -245 558 -264 576 -264 600 c 0
EndSplineSet
Layer: 2
SplineSet
-266 590 m 4
 -266 603 -238 645 -216 645 c 4
 -193 645 -169 608 -169 588 c 4
 -169 564 -208 533 -217 533 c 4
 -246 533 -266 574 -266 590 c 4
EndSplineSet
EndChar

StartChar: uni0306
Encoding: 774 774 229
Width: 0
VWidth: 0
Flags: W
HStem: 512 60<-280.71 -154.246>
VStem: -340 242<598 643>
AnchorPoint: "top" -225 469 mark 0
LayerCount: 3
Fore
SplineSet
-340 641 m 0
 -340 643 -334 644 -329 644 c 2
 -324 644 l 2
 -311 644 -300 572 -214 572 c 0
 -131 572 -126 644 -113 644 c 2
 -109 644 l 2
 -104 644 -98 643 -98 641 c 0
 -98 598 -135 512 -220 512 c 0
 -305 512 -340 593 -340 641 c 0
EndSplineSet
EndChar

StartChar: uni0304
Encoding: 772 772 230
Width: 0
VWidth: -2
Flags: W
HStem: 572 45<-332.942 -117.209>
VStem: -333 216<572.034 614.831>
AnchorPoint: "top" -225 469 mark 0
LayerCount: 3
Fore
SplineSet
-333 597 m 0
 -333 612 -324 617 -317 617 c 0
 -174 617 -221 615 -132 615 c 0
 -120 615 -117 613 -117 585 c 0
 -117 573 -129 571 -131 571 c 0
 -149 571 -286 572 -323 572 c 0
 -327 572 -333 573 -333 597 c 0
EndSplineSet
EndChar

StartChar: tildecomb
Encoding: 771 771 231
Width: 0
VWidth: 0
Flags: W
HStem: 542 59<-206.395 -129.438> 591 59<-319.179 -244.666>
VStem: -375 300
AnchorPoint: "top" -225 469 mark 0
LayerCount: 3
Fore
SplineSet
-375 542 m 0xa0
 -375 558 -322 650 -276 650 c 0x60
 -226 650 -198 601 -148 601 c 0
 -114 601 -94 658 -85 658 c 0
 -81 658 -75 656 -75 646 c 0
 -75 628 -127 542 -173 542 c 0xa0
 -224 542 -257 591 -302 591 c 0x60
 -338 591 -356 534 -365 534 c 0
 -369 534 -375 535 -375 542 c 0xa0
EndSplineSet
EndChar

StartChar: tildecomb.cap
Encoding: 65552 -1 232
Width: 0
VWidth: 0
Flags: W
HStem: 542 59<-206.395 -129.438> 591 59<-319.179 -244.666>
VStem: -375 300
AnchorPoint: "top" -225 469 mark 0
LayerCount: 3
Fore
SplineSet
-375 542 m 0xa0
 -375 558 -322 650 -276 650 c 0x60
 -226 650 -198 601 -148 601 c 0
 -114 601 -94 658 -85 658 c 0
 -81 658 -75 656 -75 646 c 0
 -75 628 -127 542 -173 542 c 0xa0
 -224 542 -257 591 -302 591 c 0x60
 -338 591 -356 534 -365 534 c 0
 -369 534 -375 535 -375 542 c 0xa0
EndSplineSet
EndChar

StartChar: uni030C
Encoding: 780 780 243
Width: 0
VWidth: 0
Flags: W
HStem: 503 73<-250.533 -194.99>
VStem: -339 231<653 660>
AnchorPoint: "top" -225 469 mark 0
LayerCount: 3
Fore
SplineSet
-339 654 m 0
 -339 662 -331 662 -328 662 c 0
 -315 662 -231 576 -224 576 c 0
 -211 576 -133 662 -119 662 c 0
 -116 662 -108 660 -108 655 c 0
 -108 653 -110 650 -112 646 c 0
 -201 516 -192 503 -209 503 c 2
 -234 503 l 2
 -240 503 -247 503 -253 514 c 0
 -292 584 -339 644 -339 654 c 0
EndSplineSet
EndChar

StartChar: uni030C.cap
Encoding: 65553 -1 244
Width: 0
VWidth: 0
Flags: W
HStem: 514 62<-252.998 -190.787>
VStem: -339 231<643 648>
AnchorPoint: "top" -225 480 mark 0
LayerCount: 3
Fore
SplineSet
-339 643 m 0
 -339 650 -331 650 -328 650 c 0
 -315 650 -231 576 -224 576 c 0
 -211 576 -133 649 -119 649 c 0
 -116 649 -108 648 -108 644 c 0
 -108 643 -110 640 -112 637 c 0
 -201 527 -192 514 -209 514 c 2
 -234 514 l 2
 -240 514 -247 516 -253 525 c 0
 -292 584 -339 635 -339 643 c 0
EndSplineSet
EndChar

StartChar: uni0304.cap
Encoding: 65554 -1 259
Width: 0
VWidth: -2
Flags: W
HStem: 572 45<-332.942 -117.209>
VStem: -333 216<572.034 614.831>
AnchorPoint: "top" -225 469 mark 0
LayerCount: 3
Fore
SplineSet
-333 597 m 0
 -333 612 -324 617 -317 617 c 0
 -174 617 -221 615 -132 615 c 0
 -120 615 -117 613 -117 585 c 0
 -117 573 -129 571 -131 571 c 0
 -149 571 -286 572 -323 572 c 0
 -327 572 -333 573 -333 597 c 0
EndSplineSet
EndChar

StartChar: uni0306.cap
Encoding: 65555 -1 270
Width: 0
VWidth: 0
Flags: W
HStem: 512 60<-280.71 -154.246>
VStem: -340 242<598 643>
AnchorPoint: "top" -225 469 mark 0
LayerCount: 3
Fore
SplineSet
-340 641 m 0
 -340 643 -334 644 -329 644 c 2
 -324 644 l 2
 -311 644 -300 572 -214 572 c 0
 -131 572 -126 644 -113 644 c 2
 -109 644 l 2
 -104 644 -98 643 -98 641 c 0
 -98 598 -135 512 -220 512 c 0
 -305 512 -340 593 -340 641 c 0
EndSplineSet
EndChar

StartChar: uni0307.cap
Encoding: 65556 -1 287
Width: 0
VWidth: 0
Flags: W
HStem: 558 82<-258.861 -184.233>
VStem: -264 84<563.39 635.115>
AnchorPoint: "top" -225 469 mark 0
LayerCount: 3
Fore
SplineSet
-264 600 m 0
 -264 624 -245 640 -221 640 c 0
 -197 640 -180 622 -180 600 c 0
 -180 570 -197 558 -221 558 c 0
 -245 558 -264 576 -264 600 c 0
EndSplineSet
EndChar

StartChar: uni0308.cap
Encoding: 65557 -1 293
Width: 0
VWidth: 0
Flags: W
HStem: 558 82<-340.861 -266.233 -189.861 -115.233>
VStem: -346 84<563.39 635.115> -195 84<563.39 635.115>
AnchorPoint: "top" -225 469 mark 0
LayerCount: 3
Fore
SplineSet
-195 600 m 0
 -195 624 -176 640 -152 640 c 0
 -128 640 -111 622 -111 600 c 0
 -111 570 -128 558 -152 558 c 0
 -176 558 -195 576 -195 600 c 0
-346 600 m 0
 -346 624 -327 640 -303 640 c 0
 -279 640 -262 622 -262 600 c 0
 -262 570 -279 558 -303 558 c 0
 -327 558 -346 576 -346 600 c 0
EndSplineSet
EndChar

StartChar: uni030A
Encoding: 778 778 294
Width: 0
VWidth: 0
Flags: W
HStem: 521 40<-257.969 -191.396> 643 40<-257.195 -190.824>
VStem: -303 39<566.682 635.714> -186 39<567.112 639.029>
AnchorPoint: "top" -225 469 mark 0
LayerCount: 3
Fore
SplineSet
-303 604 m 0
 -303 637 -270 683 -223 683 c 0
 -167 683 -147 629 -147 600 c 0
 -147 543 -210 521 -224 521 c 0
 -294 521 -303 580 -303 604 c 0
-264 603 m 0
 -264 578 -248 561 -224 561 c 0
 -217 561 -186 567 -186 601 c 0
 -186 616 -191 643 -224 643 c 0
 -242 643 -264 625 -264 603 c 0
EndSplineSet
EndChar

StartChar: uni030A.cap
Encoding: 65558 -1 295
Width: 0
VWidth: 0
Flags: W
HStem: 521 40<-257.969 -191.396> 643 40<-257.195 -190.824>
VStem: -303 39<566.682 635.714> -186 39<567.112 639.029>
AnchorPoint: "top" -225 469 mark 0
LayerCount: 3
Fore
SplineSet
-303 604 m 0
 -303 637 -270 683 -223 683 c 0
 -167 683 -147 629 -147 600 c 0
 -147 543 -210 521 -224 521 c 0
 -294 521 -303 580 -303 604 c 0
-264 603 m 0
 -264 578 -248 561 -224 561 c 0
 -217 561 -186 567 -186 601 c 0
 -186 616 -191 643 -224 643 c 0
 -242 643 -264 625 -264 603 c 0
EndSplineSet
EndChar

StartChar: uni030B
Encoding: 779 779 300
Width: 0
VWidth: 0
Flags: W
HStem: 491 186
VStem: -334 314
AnchorPoint: "top" -225 469 mark 0
LayerCount: 3
Fore
SplineSet
-334 502 m 0
 -334 516 -310 529 -257 657 c 0
 -250 673 -239 677 -235 677 c 0
 -231 677 -182 671 -182 650 c 0
 -182 629 -239 566 -281 522 c 0
 -296 506 -313 491 -321 491 c 0
 -327 491 -334 496 -334 502 c 0
-172 502 m 0
 -172 516 -147 529 -94 657 c 0
 -87 673 -78 677 -74 677 c 0
 -70 677 -20 671 -20 650 c 0
 -20 629 -78 566 -120 522 c 0
 -135 506 -152 491 -160 491 c 0
 -166 491 -172 496 -172 502 c 0
EndSplineSet
EndChar

StartChar: uni030B.cap
Encoding: 65559 -1 301
Width: 0
VWidth: 0
Flags: W
HStem: 491 186
VStem: -334 314
AnchorPoint: "top" -225 469 mark 0
LayerCount: 3
Fore
SplineSet
-334 502 m 0
 -334 516 -310 529 -257 657 c 0
 -250 673 -239 677 -235 677 c 0
 -231 677 -182 671 -182 650 c 0
 -182 629 -239 566 -281 522 c 0
 -296 506 -313 491 -321 491 c 0
 -327 491 -334 496 -334 502 c 0
-172 502 m 0
 -172 516 -147 529 -94 657 c 0
 -87 673 -78 677 -74 677 c 0
 -70 677 -20 671 -20 650 c 0
 -20 629 -78 566 -120 522 c 0
 -135 506 -152 491 -160 491 c 0
 -166 491 -172 496 -172 502 c 0
EndSplineSet
EndChar

StartChar: uni0308.narrow
Encoding: 65560 -1 302
Width: 0
VWidth: 0
Flags: W
HStem: 558 82<-333.093 -258.445 -203.861 -129.233>
VStem: -338 84<562.928 635.115> -209 84<563.39 635.115>
AnchorPoint: "top" -225 469 mark 0
LayerCount: 3
Fore
SplineSet
-209 600 m 0
 -209 624 -190 640 -166 640 c 0
 -142 640 -125 622 -125 600 c 0
 -125 570 -142 558 -166 558 c 0
 -190 558 -209 576 -209 600 c 0
-338 600 m 0
 -338 624 -320 640 -296 640 c 0
 -272 640 -254 622 -254 600 c 0
 -254 570 -272 558 -296 558 c 0
 -320 558 -338 576 -338 600 c 0
EndSplineSet
EndChar

StartChar: uni0327
Encoding: 807 807 319
Width: 0
Flags: W
HStem: -221 27<-275.862 -193.789>
VStem: -253 39<-86.5 -31.9345> -180 53<-186.707 -101.46>
AnchorPoint: "cedilla" -215 -81 mark 0
LayerCount: 3
Fore
SplineSet
-232 -194 m 0
 -190 -194 -180 -165 -180 -145 c 0
 -180 -112 -198 -92 -246 -89 c 0
 -247 -89 -253 -88 -253 -85 c 0
 -253 -83 -230 -24 -221 5 c 1
 -201 5 l 1
 -205 -11 -214 -45 -214 -46 c 0
 -214 -48 -204 -50 -204 -50 c 1
 -146 -60 -127 -100 -127 -136 c 0
 -127 -158 -145 -221 -224 -221 c 0
 -260 -221 -286 -206 -286 -193 c 0
 -286 -192 -287 -182 -277 -182 c 0
 -276 -182 -251 -194 -232 -194 c 0
EndSplineSet
Layer: 2
SplineSet
-199 -199 m 4
 -231 -199 -273 -190 -278 -186 c 4
 -280 -184 -281 -182 -281 -179 c 4
 -281 -178 -278 -155 -267 -155 c 4
 -266 -155 -235 -163 -216 -163 c 4
 -193 -163 -178 -150 -178 -130 c 4
 -178 -104 -207 -82 -249 -79 c 4
 -250 -79 -254 -79 -254 -76 c 4
 -254 -74 -233 -22 -222 5 c 5
 -191 5 l 5
 -196 -11 -207 -43 -207 -44 c 4
 -207 -46 -207 -47 -203 -47 c 6
 -201 -47 l 6
 -153 -47 -117 -73 -117 -123 c 4
 -117 -156 -133 -199 -199 -199 c 4
EndSplineSet
EndChar

StartChar: ccedilla
Encoding: 231 231 320
Width: 415
VWidth: 0
Flags: W
HStem: -221 27<170.138 252.211> -16 60<234.092 307.234> 403 40<171.58 286.339>
VStem: 32 70<129.064 299.72> 266 53<-186.707 -101.46>
AnchorPoint: "l;x" 20 389 basechar 0
AnchorPoint: "r;bl" 405 10 basechar 0
AnchorPoint: "r;o" 415 215 basechar 0
AnchorPoint: "l;o" 0 215 basechar 0
AnchorPoint: "l;bl" 20 10 basechar 0
AnchorPoint: "r;x" 415 389 basechar 0
LayerCount: 3
Fore
SplineSet
214 -194 m 0
 256 -194 266 -165 266 -145 c 0
 266 -112 248 -92 200 -89 c 0
 199 -89 193 -88 193 -85 c 0
 193 -83 208 -46 218 -16 c 1
 123 -11 32 64 32 196 c 0
 32 322 122 443 260 443 c 0
 336 443 374 411 374 374 c 0
 374 358 359 350 349 350 c 0
 302 350 289 403 237 403 c 0
 147 403 102 314 102 222 c 0
 102 125 163 44 254 44 c 0
 339 44 364 103 376 103 c 0
 381 103 388 99 388 91 c 0
 388 59 316 -10 240 -16 c 1
 236 -31 232 -45 232 -46 c 0
 232 -48 242 -50 242 -50 c 1
 300 -60 319 -100 319 -136 c 0
 319 -158 301 -221 222 -221 c 0
 186 -221 160 -206 160 -193 c 0
 160 -192 159 -182 169 -182 c 0
 170 -182 195 -194 214 -194 c 0
EndSplineSet
EndChar

StartChar: Ccedilla
Encoding: 199 199 321
Width: 693
VWidth: 0
Flags: W
HStem: -221 27<308.138 390.211> -13 49<293.911 357 372.642 498.388> 640 43<302.512 494.488>
VStem: 41 102<201.195 446.046> 404 53<-186.707 -101.46> 544 35<563.397 596.417>
AnchorPoint: "r;hi" 693 675 basechar 0
AnchorPoint: "l;x" 0 389 basechar 0
AnchorPoint: "r;bl" 673 10 basechar 0
AnchorPoint: "r;o" 693 215 basechar 0
AnchorPoint: "l;o" 0 215 basechar 0
AnchorPoint: "l;hi" 20 675 basechar 0
AnchorPoint: "l;bl" 40 10 basechar 0
AnchorPoint: "r;x" 673 389 basechar 0
LayerCount: 3
Fore
SplineSet
352 -194 m 0
 394 -194 404 -165 404 -145 c 0
 404 -112 386 -92 338 -89 c 0
 337 -89 331 -88 331 -85 c 0
 331 -83 346 -43 357 -13 c 1
 155 -10 41 146 41 317 c 0
 41 483 148 683 405 683 c 0
 475 683 517 673 554 658 c 0
 570 652 576 644 579 625 c 0
 582 610 590 571 590 563 c 0
 590 552 582 548 575 548 c 0
 564 548 550 570 544 578 c 0
 525 605 479 640 403 640 c 0
 240 640 143 502 143 353 c 0
 143 111 267 36 395 36 c 0
 456 36 483 47 510 63 c 0
 539 80 558 93 579 137 c 2
 588 155 l 2
 594 165 599 178 608 178 c 0
 616 178 622 172 622 160 c 0
 622 142 612 105 609 63 c 0
 607 41 590 35 558 21 c 0
 492 -9 419 -13 378 -13 c 1
 374 -29 370 -45 370 -46 c 0
 370 -48 380 -50 380 -50 c 1
 438 -60 457 -100 457 -136 c 0
 457 -158 439 -221 360 -221 c 0
 324 -221 298 -206 298 -193 c 0
 298 -192 297 -182 307 -182 c 0
 308 -182 333 -194 352 -194 c 0
EndSplineSet
EndChar

StartChar: Scedilla
Encoding: 350 350 322
Width: 524
VWidth: 0
Flags: W
HStem: -221 27<201.138 283.211> -19 46<172.526 248 264.16 350.269> 643 45<180.148 324.378>
VStem: 63 31<110.418 197.981> 73 60<473.969 593.721> 297 53<-186.707 -101.46> 370 35<515.165 590.06> 407 55<87.5171 207.171>
AnchorPoint: "r;hi" 524 675 basechar 0
AnchorPoint: "l;x" 0 389 basechar 0
AnchorPoint: "r;bl" 524 10 basechar 0
AnchorPoint: "r;o" 524 215 basechar 0
AnchorPoint: "l;o" 0 215 basechar 0
AnchorPoint: "l;hi" 0 675 basechar 0
AnchorPoint: "l;bl" 0 10 basechar 0
AnchorPoint: "r;x" 524 389 basechar 0
LayerCount: 3
Fore
SplineSet
245 -194 m 0xef
 287 -194 297 -165 297 -145 c 0
 297 -112 279 -92 231 -89 c 0
 230 -89 224 -88 224 -85 c 0
 224 -83 238 -48 248 -19 c 1
 192 -18 126 -4 95 6 c 0
 68 14 61 16 61 26 c 0
 61 53 63 76 63 98 c 2
 63 164 l 2
 63 172 65 198 78 198 c 0
 90 198 92 176 94 162 c 0xf7
 99 126 108 109 126 85 c 0
 156 47 211 27 272 27 c 0
 359 27 407 88 407 145 c 0
 407 235 303 270 213 317 c 0
 136 357 73 418 73 511 c 0
 73 607 151 688 269 688 c 0
 319 688 356 678 395 663 c 0
 404 659 405 649 405 638 c 0
 405 627 404 614 404 603 c 0
 404 577 405 546 405 539 c 0
 405 520 403 514 393 514 c 0
 378 514 373 535 370 548 c 0
 354 618 303 643 253 643 c 0
 196 643 133 610 133 526 c 0
 133 463 212 429 294 387 c 0
 378 344 462 290 462 178 c 0
 462 83 394 -12 270 -19 c 1
 266 -33 263 -45 263 -46 c 0
 263 -48 273 -50 273 -50 c 1
 331 -60 350 -100 350 -136 c 0
 350 -158 332 -221 253 -221 c 0
 217 -221 191 -206 191 -193 c 0
 191 -192 190 -182 200 -182 c 0
 201 -182 226 -194 245 -194 c 0xef
EndSplineSet
EndChar

StartChar: scedilla
Encoding: 351 351 323
Width: 343
VWidth: 0
Flags: W
HStem: -233 27<105.138 187.211> -15 33<115.598 158 174.694 217.355> 394 30<115.32 217.655>
VStem: 41 54<289.214 377.265> 41 28<70.9241 127.692> 201 53<-198.707 -113.46> 253 63<48.485 133.195> 259 26<312.35 352.427>
AnchorPoint: "l;x" 5 389 basechar 0
AnchorPoint: "r;bl" 343 10 basechar 0
AnchorPoint: "r;o" 343 215 basechar 0
AnchorPoint: "l;o" 0 215 basechar 0
AnchorPoint: "l;bl" 0 10 basechar 0
AnchorPoint: "r;x" 338 389 basechar 0
LayerCount: 3
Fore
SplineSet
149 -206 m 0xf4
 191 -206 201 -177 201 -157 c 0xf4
 201 -124 183 -104 135 -101 c 0
 134 -101 128 -100 128 -97 c 0
 128 -95 148 -46 158 -15 c 1
 156 -15 155 -15 153 -15 c 0
 122 -15 41 -7 41 24 c 2
 41 102 l 2
 41 116 47 128 53 128 c 0
 62 128 66 115 69 105 c 0
 86 41 126 18 173 18 c 0
 212 18 253 53 253 94 c 0xea
 253 135 189 162 134 192 c 0
 84 219 41 252 41 309 c 0
 41 375 86 424 173 424 c 0
 204 424 236 418 259 410 c 0
 279 403 284 391 284 376 c 2
 285 337 l 2
 285 321 280 312 274 312 c 0
 269 312 263 318 259 328 c 0xf1
 245 365 212 394 162 394 c 0
 120 394 95 370 95 337 c 0
 95 294 136 270 186 244 c 0
 245 213 316 188 316 117 c 0xf2
 316 54 267 -4 179 -14 c 1
 175 -31 167 -57 167 -58 c 0
 167 -60 177 -62 177 -62 c 1
 235 -72 254 -112 254 -148 c 0
 254 -170 236 -233 157 -233 c 0
 121 -233 95 -218 95 -205 c 0
 95 -204 94 -194 104 -194 c 0
 105 -194 130 -206 149 -206 c 0xf4
EndSplineSet
AlternateSubs2: "'aalt' Access All Alternates in Latin lookup 0 subtable" uni0219
Substitution2: "romanian subtable" uni0219
EndChar

StartChar: uni0162
Encoding: 354 354 324
Width: 643
VWidth: 0
Flags: W
HStem: -217 27<252.138 334.211> -8 36<163.173 223> -1 37<394 479.988> 618 53<87.3283 270.022> 618 45<364.282 547.296> 681 20G<53.5 68.5 581 599>
VStem: 8 40<512.184 577.799> 163 191<1 320.52> 266 88<40.6905 332.979> 274 84<341.843 617.8> 348 53<-182.707 -97.4604>
AnchorPoint: "r;hi" 643 679 basechar 0
AnchorPoint: "l;x" 70 393 basechar 0
AnchorPoint: "r;bl" 518 14 basechar 0
AnchorPoint: "r;o" 553 219 basechar 0
AnchorPoint: "l;o" 90 219 basechar 0
AnchorPoint: "l;hi" 0 679 basechar 0
AnchorPoint: "l;bl" 125 14 basechar 0
AnchorPoint: "r;x" 578 393 basechar 0
LayerCount: 3
Fore
SplineSet
296 -190 m 0xae20
 338 -190 348 -161 348 -141 c 0xae20
 348 -108 330 -88 282 -85 c 0
 281 -85 275 -84 275 -81 c 0
 275 -79 294 -31 304 0 c 1
 253 -1 197 -8 184 -8 c 0
 173 -8 163 -6 163 8 c 0xc7
 163 22 178 25 195 28 c 2
 223 33 l 2
 248 37 264 41 266 80 c 0xc680
 272 196 274 447 274 584 c 0
 274 618 268 618 257 618 c 0
 201 618 141 617 98 602 c 0
 74 593 58 567 48 546 c 0
 39 528 34 511 24 511 c 0
 10 511 8 521 8 528 c 0
 8 562 21 600 35 654 c 0
 37 661 46 701 61 701 c 0
 76 701 83 671 96 671 c 0xd640
 249 670 554 663 554 663 c 2
 579 663 571 699 591 699 c 0
 607 699 609 674 609 650 c 2
 609 617 l 2
 609 600 616 551 616 539 c 0
 616 532 613 515 601 515 c 0
 568 515 591 579 543 598 c 0
 512 610 397 618 386 618 c 0
 359 618 358 611 358 578 c 0x8e40
 358 431 354 187 354 70 c 0x8f
 354 41 359 41 394 39 c 2
 443 36 l 2
 463 35 480 32 480 17 c 0
 480 3 467 -1 450 -1 c 0
 444 -1 376 0 325 0 c 1
 321 -17 314 -41 314 -42 c 0
 314 -44 324 -46 324 -46 c 1
 382 -56 401 -96 401 -132 c 0
 401 -154 383 -217 304 -217 c 0
 268 -217 242 -202 242 -189 c 0
 242 -188 241 -178 251 -178 c 0
 252 -178 277 -190 296 -190 c 0xae20
EndSplineSet
EndChar

